<?xml version="1.0" encoding="UTF-8"?>
<svg version="1.2" viewBox="0 0 228.71 119.66" xmlns="http://www.w3.org/2000/svg">
 <!-- Extracted from https://download.8bitdo.com/Manual/Controller/Zero2/Zero2_Manual.pdf -->
 <path d="m29.179 57.641c0 7.543 1.9844 15.113 5.7617 21.621 3.7852 6.5234 9.3125 12.02 15.848 15.77 6.5352 3.7539 14.07 5.7539 21.594 5.7461 15.785-0.0195 31.574-0.0273 47.363-0.0273 15.789 0 31.578 8e-3 47.363 0.0273 7.5352 8e-3 15.07-1.9961 21.602-5.75 6.5352-3.7539 12.059-9.25 15.84-15.766 3.7774-6.5078 5.7617-14.078 5.7617-21.621 0-7.5391-1.9844-15.109-5.7617-21.617-3.7812-6.5156-9.3047-12.012-15.84-15.766-6.5312-3.7539-14.066-5.7578-21.602-5.75-15.785 0.0195-31.574 0.0274-47.363 0.0274-15.789 0-31.578-8e-3 -47.363-0.0274-7.5234-8e-3 -15.059 1.9922-21.594 5.7461-6.5352 3.75-12.062 9.2461-15.848 15.77-3.7773 6.5078-5.7617 14.078-5.7617 21.617z" fill="none" stroke="#302828" stroke-miterlimit="22.926" stroke-width=".216"/>
 <path d="m138.26 14.531c0.17969-0.45312 0.36329-0.90234 0.54297-1.3555 0.31641-0.77734 0.89453-1.5312 1.6562-2.0469 0.76172-0.51172 1.6797-0.76953 2.5195-0.76953 8.0312 8e-3 15.996 0.0195 24.172 0.0312 4.1055 4e-3 8.2617 0.5625 12.234 1.8047 3.9688 1.2422 7.7461 3.1875 11.105 5.6914 6.7188 5.0078 11.281 12.238 14.945 19.738" fill="none" stroke="#302828" stroke-miterlimit="22.926" stroke-width=".216"/>
 <path d="m101.24 14.531c-0.18359-0.45312-0.36718-0.90234-0.54687-1.3555-0.31641-0.77734-0.89454-1.5312-1.6563-2.0469-0.76172-0.51172-1.6797-0.76953-2.5195-0.76953-8.0312 8e-3 -15.992 0.0195-24.172 0.0312-4.1055 4e-3 -8.2617 0.5625-12.23 1.8047-3.9727 1.2422-7.75 3.1875-11.109 5.6914-6.7188 5.0078-11.328 12.324-14.992 19.828" fill="none" stroke="#302828" stroke-miterlimit="22.926" stroke-width=".216"/>
 <path d="m121.74 78.215c-8e-3 4.4062 3.5703 7.9883 7.9727 7.9922 4.3867 4e-3 8-3.5976 7.9766-7.9922-4e-3 -4.4062-3.5586-7.9844-7.9727-7.9844-4.4102 0-7.9766 3.5781-7.9766 7.9844z" fill="none" stroke="#302828" stroke-miterlimit="22.926" stroke-width=".216"/>
 <path d="m101.8 78.215c4e-3 -4.4062 3.5586-7.9844 7.9727-7.9844 4.4102 0 7.9766 3.5781 7.9727 7.9844 0.0117 4.4062-3.5664 7.9883-7.9727 7.9922-4.3867 4e-3 -7.9961-3.5976-7.9727-7.9922z" fill="none" stroke="#302828" stroke-miterlimit="22.926" stroke-width=".216"/>
 <path d="m167.11 48.453c5.25 0.0156 9.5117-4.2734 9.5117-9.5156-8e-3 -5.25-4.2539-9.5156-9.5117-9.5117-5.2734 0.0195-9.4727 4.2539-9.5078 9.5156 0 5.2617 4.2539 9.4922 9.5078 9.5117z" fill="none" stroke="#302828" stroke-miterlimit="22.926" stroke-width=".216"/>
 <path d="m50.89 49.043c3.4219 0 6.8438 0 10.266 4e-3 1.4453 0 2.625-1.1797 2.625-2.625-0.0039-3.4219-0.0039-6.8398-0.0039-10.262-0.0039-1.9375 1.3672-3.6406 3.2695-4.0312 1.7695-0.36719 3.5312-0.54688 5.3359-0.54688 1.8047 0 3.5586 0.17969 5.3242 0.55078 1.8984 0.39844 3.2774 2.082 3.2695 4.0274v10.262c-4e-3 1.4414 1.1758 2.6328 2.6211 2.6211 3.418 0 6.8398 4e-3 10.258 0 1.9414-4e-3 3.6289 1.3711 4.0234 3.2695 0.36719 1.7695 0.55078 3.5234 0.55078 5.3281 0 1.8047-0.18359 3.5625-0.55078 5.3281-0.39453 1.9023-2.082 3.2773-4.0234 3.2734-3.418-4e-3 -6.8398 0-10.258-4e-3 -1.4453-4e-3 -2.6289 1.1797-2.6211 2.625v10.262c8e-3 1.9414-1.3711 3.6367-3.2695 4.0273-1.7656 0.3711-3.5195 0.55079-5.3242 0.55079-1.8047 0-3.5664-0.17969-5.3359-0.55079-1.9023-0.39062-3.2734-2.0898-3.2695-4.0273v-10.262c0.0039-1.4414-1.1758-2.6328-2.6211-2.625h-10.266c-0.32031 0-0.62891-0.0352-0.94141-0.10937-1.5508-0.35938-2.7617-1.5977-3.0859-3.1602-0.37109-1.7656-0.55078-3.5234-0.55078-5.3281 0-1.8047 0.17969-3.5586 0.55078-5.3242 0.32422-1.5625 1.5352-2.8008 3.0859-3.1641 0.3125-0.0703 0.62109-0.10937 0.94141-0.10937z" fill="none" stroke="#302828" stroke-miterlimit="22.926" stroke-width=".216"/>
 <path d="m167.11 85.859c5.25 0.043 9.5117-4.293 9.5156-9.5156-4e-3 -5.2188-4.2656-9.5547-9.5156-9.5117-5.2578 0.0156-9.5078 4.25-9.5078 9.5117 0.0352 5.2617 4.2344 9.4961 9.5078 9.5156z" fill="none" stroke="#302828" stroke-miterlimit="22.926" stroke-width=".216"/>
 <path d="m195.32 57.641c8e-3 1.8359-0.54297 3.6641-1.5469 5.1992-1.0234 1.5625-2.5156 2.8164-4.2344 3.543-1.1289 0.48438-2.3516 0.7461-3.5742 0.76563-1.707 0.0234-3.418-0.41797-4.8945-1.2695-1.5234-0.875-2.7969-2.1875-3.6328-3.7383-0.73828-1.375-1.1328-2.9375-1.1328-4.5 4e-3 -1.4648 0.34765-2.9336 1.0039-4.2461 0.77344-1.5469 1.9805-2.8789 3.4453-3.7969 1.5-0.94141 3.2734-1.4531 5.0469-1.457 1.2812 0 2.5586 0.26171 3.7383 0.76171 1.625 0.6875 3.0508 1.8438 4.0625 3.2891 1.1094 1.582 1.7266 3.5117 1.7188 5.4492z" fill="none" stroke="#302828" stroke-miterlimit="22.926" stroke-width=".216"/>
 <path d="m157.92 57.641c4e-3 2.3711-0.92578 4.7461-2.5391 6.4805-1.7734 1.9062-4.375 3.0391-6.9727 3.0391-2.6797 0-5.3516-1.207-7.1289-3.2109-1.5195-1.7148-2.3828-4.0156-2.3828-6.3086 0-2.2891 0.86328-4.5859 2.3789-6.3008 1.7774-2.0078 4.4531-3.2148 7.1289-3.2148 2.5976-4e-3 5.1992 1.1328 6.9726 3.0352 1.6172 1.7383 2.5469 4.1094 2.543 6.4805z" fill="none" stroke="#302828" stroke-miterlimit="22.926" stroke-width=".216"/>
 <path d="m87.706 117.24c-0.0781 0-0.14062 0.0625-0.14062 0.14062v0.6875c0 0.0742 0.0625 0.13672 0.14062 0.13672h1.8867c0.0742 0 0.13672-0.0625 0.13672-0.13672v-0.6875c0-0.0781-0.0625-0.14062-0.13672-0.14062zm7.0312-0.0898c0-0.80468-0.74609-1.1133-1.3711-1.1133-0.67187 0-1.3906 0.42578-1.3906 1.043 0 0.8125 0.82421 1.0352 1.3906 1.1094 0.32031 0.043 0.63672 0.0859 0.63672 0.32031 0 0.21484-0.26172 0.32422-0.63672 0.32422-0.31641 0-0.58203-0.0898-0.60547-0.35938-0.0156-0.11719-0.043-0.17187-0.21094-0.17187h-0.52343c-0.0781 0-0.14063 0.0625-0.14063 0.13672 0 0.875 0.72266 1.2148 1.4805 1.2148 0.78906 0 1.4648-0.44531 1.4648-1.1289 0-0.95312-0.85546-1.043-1.4648-1.1602-0.28516-0.0547-0.55078-0.0742-0.55078-0.28516 0-0.19141 0.24219-0.28125 0.55078-0.28125 0.25781 0 0.51953 0.0898 0.55469 0.31641 0.0195 0.14453 0.0898 0.17578 0.15625 0.17578h0.51953c0.0781 0 0.14062-0.0625 0.14062-0.14063zm2.0664-0.29687c0.29688 0 0.58594 0.13672 0.58594 0.4375 0 0.0391-0.0273 0.0586-0.0664 0.0586h-1.0508c-0.043 0-0.0703-0.0195-0.0703-0.0586 0-0.26563 0.20703-0.4375 0.60156-0.4375zm1.2695 1.2695c0.0781 0 0.14063-0.0664 0.14063-0.14063v-0.57421c0-0.87891-0.58203-1.3711-1.4102-1.3711-0.84375 0-1.3398 0.5586-1.4336 1.2891-0.0312 0.27344-0.0312 0.76172 0 1.0391 0.0937 0.72656 0.58984 1.2891 1.4336 1.2891 0.76563 0 1.2383-0.45313 1.3945-1.0977 0.0312-0.10937-0.0469-0.15234-0.11719-0.15234h-0.57031c-0.0664 0-0.125 0.0273-0.16015 0.12109-0.0898 0.21875-0.27735 0.28907-0.54688 0.28907-0.33203 0-0.60937-0.20704-0.60937-0.58985 0-0.0625 0.043-0.10156 0.10546-0.10156zm1.6406-3.3281c0-0.0781-0.0625-0.14062-0.13672-0.14062h-0.625c-0.0742 0-0.13672 0.0625-0.13672 0.14062v4.6445c0 0.0742 0.0625 0.13671 0.13672 0.13671h0.625c0.0742 0 0.13672-0.0625 0.13672-0.13671zm2.1992 2.0586c0.29688 0 0.58594 0.13672 0.58594 0.4375 0 0.0391-0.0273 0.0586-0.0664 0.0586h-1.0508c-0.043 0-0.0703-0.0195-0.0703-0.0586 0-0.26563 0.20703-0.4375 0.60156-0.4375zm1.2734 1.2695c0.0742 0 0.13672-0.0664 0.13672-0.14063v-0.57421c0-0.87891-0.58203-1.3711-1.4102-1.3711-0.84375 0-1.3398 0.5586-1.4297 1.2891-0.0352 0.27344-0.0352 0.76172 0 1.0391 0.0898 0.72656 0.58593 1.2891 1.4297 1.2891 0.76563 0 1.2383-0.45313 1.3945-1.0977 0.0312-0.10937-0.0469-0.15234-0.11719-0.15234h-0.57422c-0.0586 0-0.125 0.0273-0.15625 0.12109-0.0898 0.21875-0.27734 0.28907-0.54688 0.28907-0.33203 0-0.60937-0.20704-0.60937-0.58985 0-0.0625 0.043-0.10156 0.10547-0.10156zm2.7305 0.14453c-0.0547 0.375-0.24219 0.48438-0.54687 0.48438-0.35157 0-0.51172-0.14454-0.53907-0.38672-0.0352-0.27735-0.0352-0.76563 0-1.0391 0.0352-0.26562 0.1875-0.39062 0.53125-0.39062 0.32032 0 0.53125 0.14453 0.55469 0.48437 8e-3 0.0781 0.0664 0.11329 0.13281 0.11329h0.61328c0.0742 0 0.11719-0.0625 0.11719-0.14063 0-0.85937-0.64844-1.3555-1.4102-1.3555-0.85157 0-1.3477 0.5586-1.4375 1.2891-0.0352 0.27344-0.0352 0.76172 0 1.0391 0.0898 0.72656 0.58593 1.2891 1.4375 1.2891 0.76171 0 1.4102-0.51563 1.4102-1.3594 0-0.0781-0.043-0.13671-0.11719-0.13671h-0.61328c-0.0664 0-0.12109 0.0312-0.13281 0.10937zm2.8906-2.1367c-0.043 0-0.0703-0.0273-0.0703-0.0664v-1.0625c0-0.0742-0.0625-0.13672-0.13672-0.13672h-0.625c-0.0742 0-0.13671 0.0625-0.13671 0.13672v1.0625c0 0.0391-0.0273 0.0664-0.0703 0.0664h-0.53906c-0.0742 0-0.13672 0.0625-0.13672 0.14063v0.55468c0 0.0742 0.0625 0.13672 0.13672 0.13672h0.53906c0.043 0 0.0703 0.0273 0.0703 0.0703v1.2734c0 0.79297 0.52343 1.2695 1.3125 1.2695h0.48437c0.0781 0 0.13672-0.0625 0.13672-0.13671v-0.58985c0-0.0781-0.0586-0.14062-0.13672-0.14062h-0.48437c-0.25 0-0.41407-0.1836-0.41407-0.41407v-1.2617c0-0.043 0.0273-0.0703 0.0703-0.0703h0.75781c0.0781 0 0.14062-0.0625 0.14062-0.13672v-0.55468c0-0.0781-0.0625-0.14063-0.14062-0.14063z" fill="#282828"/>
 <path d="m130.72 118.29c0.043 0 0.0664 0.0273 0.0664 0.0703v0.875c0 0.0742 0.0664 0.13672 0.14063 0.13672h0.61719c0.0742 0 0.13672-0.0625 0.13672-0.13672v-0.875c0-0.043 0.0312-0.0703 0.0703-0.0703h0.875c0.0742 0 0.13672-0.0625 0.13672-0.13672v-0.61718c0-0.0781-0.0625-0.14063-0.13672-0.14063h-0.875c-0.0391 0-0.0703-0.0273-0.0703-0.0664v-0.86718c0-0.0781-0.0625-0.14063-0.13672-0.14063h-0.61719c-0.0742 0-0.14063 0.0625-0.14063 0.14063v0.86718c0 0.0391-0.0234 0.0664-0.0664 0.0664h-0.86719c-0.0781 0-0.13672 0.0625-0.13672 0.14063v0.61718c0 0.0742 0.0586 0.13672 0.13672 0.13672zm7.0625-1.1367c0-0.80468-0.75-1.1133-1.3711-1.1133-0.67578 0-1.3945 0.42578-1.3945 1.043 0 0.8125 0.82422 1.0352 1.3945 1.1094 0.31641 0.043 0.63672 0.0859 0.63672 0.32031 0 0.21484-0.26562 0.32422-0.63672 0.32422-0.32031 0-0.58593-0.0898-0.61328-0.35938-0.0117-0.11719-0.0391-0.17187-0.20703-0.17187h-0.52734c-0.0742 0-0.13672 0.0625-0.13672 0.13672 0 0.875 0.71875 1.2148 1.4844 1.2148 0.78907 0 1.4688-0.44531 1.4688-1.1289 0-0.95312-0.85937-1.043-1.4688-1.1602-0.28515-0.0547-0.55468-0.0742-0.55468-0.28516 0-0.19141 0.24218-0.28125 0.55468-0.28125 0.25391 0 0.51954 0.0898 0.55469 0.31641 0.0195 0.14453 0.0898 0.17578 0.15625 0.17578h0.51953c0.0781 0 0.14063-0.0625 0.14063-0.14063zm2.0703-1.0195c-0.0391 0-0.0664-0.0273-0.0664-0.0664v-1.0625c0-0.0742-0.0625-0.13672-0.14062-0.13672h-0.625c-0.0742 0-0.13672 0.0625-0.13672 0.13672v1.0625c0 0.0391-0.0273 0.0664-0.0703 0.0664h-0.53906c-0.0781 0-0.14063 0.0625-0.14063 0.14063v0.55468c0 0.0742 0.0625 0.13672 0.14063 0.13672h0.53906c0.043 0 0.0703 0.0273 0.0703 0.0703v1.2734c0 0.79297 0.52734 1.2695 1.3164 1.2695h0.48437c0.0781 0 0.14063-0.0625 0.14063-0.13671v-0.58985c0-0.0781-0.0625-0.14062-0.14063-0.14062h-0.48437c-0.25 0-0.41407-0.1836-0.41407-0.41407v-1.2617c0-0.043 0.0273-0.0703 0.0664-0.0703h0.76563c0.0742 0 0.13671-0.0625 0.13671-0.13672v-0.55468c0-0.0781-0.0625-0.14063-0.13671-0.14063zm3.2734 2.0312c0.043 0 0.0703 0.0273 0.0703 0.0703v0.16797c0 0.35938-0.30469 0.47657-0.70312 0.47657-0.2461 0-0.45704-0.11329-0.45704-0.36719 0-0.10547 0.0586-0.34766 0.35547-0.34766zm-0.5-1.3359c0.30469 0 0.53515 0.13672 0.53515 0.42188v0.11328c0 0.0391-0.0273 0.0664-0.0703 0.0664h-0.70703c-0.79687 0-1.1914 0.60547-1.1914 1.082 0 0.72656 0.5 1.1445 1.3008 1.1445 0.51562 0 0.70703-0.26563 0.83203-0.26563 0.0937 0 0.0977 0.082 0.14062 0.14063 0.0273 0.0352 0.0547 0.0469 0.0977 0.0469h0.34375c0.0781 0 0.14062-0.0625 0.14062-0.13671v-2.1484c0-0.80469-0.54687-1.2539-1.3867-1.2539-0.83203 0-1.3359 0.4961-1.3359 1.043 0 0.0781 0.0625 0.14063 0.13672 0.14063h0.5c0.125 0 0.16015-0.0156 0.1875-0.13282 0.0469-0.22265 0.33203-0.26172 0.47656-0.26172zm4.2773 0.11719c0.0781 0 0.14063-0.0625 0.14063-0.14062v-0.55078c0-0.0781-0.0625-0.14063-0.14063-0.14063h-0.23437c-0.6875 0-0.77735 0.38281-0.99219 0.38281-0.11719 0-0.14453-0.17578-0.1875-0.29297-0.0195-0.0547-0.0898-0.0898-0.14453-0.0898h-0.34766c-0.0742 0-0.13672 0.0625-0.13672 0.14063v3.1875c0 0.0742 0.0625 0.13671 0.13672 0.13671h0.625c0.0742 0 0.13672-0.0625 0.13672-0.13671v-1.6562c0-0.5625 0.38281-0.83985 0.90234-0.83985zm1.9258-0.8125c-0.043 0-0.0664-0.0273-0.0664-0.0664v-1.0625c0-0.0742-0.0664-0.13672-0.14063-0.13672h-0.625c-0.0742 0-0.13672 0.0625-0.13672 0.13672v1.0625c0 0.0391-0.0273 0.0664-0.0703 0.0664h-0.53906c-0.0781 0-0.14063 0.0625-0.14063 0.14063v0.55468c0 0.0742 0.0625 0.13672 0.14063 0.13672h0.53906c0.043 0 0.0703 0.0273 0.0703 0.0703v1.2734c0 0.79297 0.52735 1.2695 1.3164 1.2695h0.48437c0.0781 0 0.14063-0.0625 0.14063-0.13671v-0.58985c0-0.0781-0.0625-0.14062-0.14063-0.14062h-0.48437c-0.25 0-0.41406-0.1836-0.41406-0.41407v-1.2617c0-0.043 0.0234-0.0703 0.0664-0.0703h0.76563c0.0742 0 0.13672-0.0625 0.13672-0.13672v-0.55468c0-0.0781-0.0625-0.14063-0.13672-0.14063z" fill="#282828"/>
 <path d="m109.77 111.16v-32.938" fill="none" stroke="#302828" stroke-miterlimit="22.926" stroke-width=".4252"/>
 <path d="m129.72 111.16v-32.938" fill="none" stroke="#302828" stroke-miterlimit="22.926" stroke-width=".4252"/>
 <path d="m84.429 10.375v-3.1406" fill="none" stroke="#302828" stroke-miterlimit="22.926" stroke-width=".4252"/>
 <path d="m84.081 0.13676c0-0.0781-0.0625-0.13672-0.13671-0.13672h-0.69532c-0.0742 0-0.13672 0.0586-0.13672 0.13672v4.5742c0 0.0781 0.0625 0.13672 0.13672 0.13672h2.3594c0.0742 0 0.13672-0.0586 0.13672-0.13672v-0.69141c0-0.0781-0.0625-0.14062-0.13672-0.14062h-1.457c-0.043 0-0.0703-0.0273-0.0703-0.0703z" fill="#302828"/>
 <path d="m155.06 10.375v-3.1406" fill="none" stroke="#302828" stroke-miterlimit="22.926" stroke-width=".4252"/>
 <path d="m154.96 2.9102c0.0781 0 0.11328 0.0547 0.125 0.0898l0.70703 1.7109c0.0352 0.082 0.0898 0.13672 0.20312 0.13672h0.71485c0.13671 0 0.17968-0.10157 0.1289-0.20704l-0.74219-1.7305c-0.0469-0.10547-0.0547-0.16016 0.043-0.23047 0.49219-0.33203 0.71875-0.69141 0.71875-1.2266 0-0.79687-0.65625-1.4531-1.4531-1.4531h-1.5234c-0.0781 0-0.14062 0.0586-0.14062 0.13672v4.5742c0 0.0781 0.0625 0.13672 0.14062 0.13672h0.69141c0.0742 0 0.13672-0.0586 0.13672-0.13672v-1.7344c0-0.0391 0.0273-0.0664 0.0703-0.0664zm0.44531-1.9414c0.26172 0 0.48437 0.22266 0.48437 0.48437 0 0.26954-0.22265 0.48438-0.48437 0.48438h-0.625c-0.043 0-0.0703-0.0273-0.0703-0.0664v-0.83203c0-0.043 0.0273-0.0703 0.0703-0.0703z" fill="#302828"/>
 <path d="m226.17 18.793c-0.0273-0.0742-0.0703-0.10156-0.13281-0.10156h-0.76172c-0.0898 0-0.15234 0.0898-0.11328 0.1914l1.2266 3.0938v1.4258c0 0.0781 0.0625 0.14063 0.14063 0.14063h0.6914c0.0781 0 0.14063-0.0625 0.14063-0.14063v-1.4258l1.2266-3.0938c0.043-0.10156-0.0195-0.1914-0.10937-0.1914h-0.76563c-0.0625 0-0.10156 0.0273-0.1289 0.10156l-0.66797 1.9219c-0.0117 0.0391-0.0664 0.0391-0.082 0z" fill="#282828"/>
 <path d="m226.79 39.617c0.0117-0.0391 0.0664-0.0391 0.082 0l0.64453 1.6445c0.0274 0.0742 0.082 0.10156 0.14453 0.10156h0.82032c0.0898 0 0.15234-0.0977 0.10937-0.19141l-1.0195-2.3008c-0.0273-0.0664-0.0273-0.0859 0-0.15625l0.90234-2.0078c0.0391-0.0977-0.0234-0.19531-0.11328-0.19531h-0.78125c-0.0625 0-0.0976 0.0273-0.13281 0.10547l-0.57422 1.4336c-0.0156 0.043-0.0703 0.043-0.082 0l-0.57812-1.4336c-0.0312-0.0781-0.0664-0.10547-0.12891-0.10547h-0.78516c-0.0898 0-0.15234 0.0977-0.10937 0.19531l0.90234 2.0039c0.0234 0.0664 0.0234 0.0898 0 0.15234l-1.0195 2.3086c-0.043 0.0937 0.0195 0.19141 0.10938 0.19141h0.8164c0.0625 0 0.11719-0.0273 0.14844-0.10156z" fill="#282828"/>
 <path d="m227.19 58.18h-0.64062c-0.0391 0-0.0664-0.0234-0.0547-0.0781l0.33203-1.6641c8e-3 -0.0195 0.0156-0.0273 0.0352-0.0273h0.0156c0.0195 0 0.0274 8e-3 0.0312 0.0273l0.33594 1.6641c0.0117 0.0547-0.0156 0.0781-0.0547 0.0781zm0.51954 1.7852c0.0195 0.0625 0.0664 0.10547 0.1289 0.10547h0.73047c0.10938 0 0.15234-0.0781 0.13672-0.14062l-1.2344-4.6055c-0.0117-0.0625-0.0664-0.10547-0.1289-0.10547h-0.92969c-0.0625 0-0.11719 0.043-0.13281 0.10547l-1.2383 4.6055c-0.0156 0.0625 0.0273 0.14062 0.13672 0.14062h0.72656c0.0625 0 0.11719-0.043 0.13281-0.10547l0.19531-0.71093c0.0117-0.0625 0.0391-0.10547 0.10157-0.10547h1.0547c0.0625 0 0.0899 0.0469 0.10157 0.10547z" fill="#282828"/>
 <path d="m226.77 76.754c0.29297 0 0.48828 0.25 0.48828 0.51953 0 0.27734-0.1875 0.52734-0.48828 0.52734h-0.71875c-0.043 0-0.0703-0.0273-0.0703-0.0703v-0.90625c0-0.043 0.0273-0.0703 0.0703-0.0703zm0.0352-2.8359h-1.6328c-0.0781 0-0.14063 0.0625-0.14063 0.14062v4.5742c0 0.0742 0.0625 0.14063 0.14063 0.14063h1.6328c0.85156 0 1.4219-0.59375 1.4219-1.5 0-0.35157-0.17968-0.7461-0.41015-0.94141-0.0391-0.0352-0.0391-0.082 0-0.125 0.20312-0.20312 0.35547-0.57031 0.35547-0.875 0-0.78125-0.58985-1.4141-1.3672-1.4141zm-0.75391 1.8672c-0.043 0-0.0703-0.0273-0.0703-0.0703v-0.75781c0-0.0391 0.0273-0.0664 0.0703-0.0664h0.71875c0.24219 0 0.45703 0.19922 0.45703 0.44141s-0.21484 0.45313-0.45703 0.45313z" fill="#282828"/>
 <path d="m167.11 38.938h52.266" fill="none" stroke="#302828" stroke-miterlimit="22.926" stroke-width=".4252"/>
 <path d="m167.11 76.344h52.266" fill="none" stroke="#302828" stroke-miterlimit="22.926" stroke-width=".4252"/>
 <path d="m185.82 57.645h33.562" fill="none" stroke="#302828" stroke-miterlimit="22.926" stroke-width=".4252"/>
 <path d="m148.41 57.641v-36.523h70.965" fill="none" stroke="#302828" stroke-miterlimit="22.926" stroke-width=".4252"/>
 <path d="m72.366 57.641h-52.254" fill="none" stroke="#302828" stroke-miterlimit="22.926" stroke-width=".4252"/>
 <path d="m0.91699 57.156c0.01563-0.22656 0.1875-0.41406 0.51953-0.41406 0.33984 0 0.50781 0.15234 0.52734 0.41406 0.01953 0.27734 0.01953 0.76172 0 1.0391-0.01953 0.2461-0.1875 0.41797-0.52734 0.41797-0.33203 0-0.50391-0.1875-0.51953-0.41797-0.01953-0.27734-0.01953-0.76172 0-1.0391zm0.41406 2.3281c0.51562 0 0.57031-0.23437 0.76953-0.23437 0.07031 0 0.13281 0.0625 0.17578 0.11328 0.02734 0.0234 0.05469 0.0469 0.09766 0.0469h0.34375c0.07813 0 0.14063-0.0625 0.14063-0.14063v-4.6406c0-0.0781-0.0625-0.14063-0.14063-0.14063h-0.62109c-0.07813 0-0.14062 0.0625-0.14062 0.14063v1.1758c0 0.15234-0.10156 0.1875-0.20703 0.14453-0.09766-0.0391-0.20703-0.082-0.41797-0.082-0.72656 0-1.2578 0.5625-1.3164 1.2891-0.01953 0.27734-0.01953 0.76172 0 1.0391 0.05859 0.73047 0.58984 1.2891 1.3164 1.2891zm2.4609-2.4102c-0.07422 0-0.13672 0.0625-0.13672 0.13672v0.6875c0 0.0742 0.0625 0.14062 0.13672 0.14062h1.8945c0.07422 0 0.13672-0.0664 0.13672-0.14062v-0.6875c0-0.0742-0.0625-0.13672-0.13672-0.13672zm4.7344 1.1211c-0.01172 0.23047-0.1875 0.41797-0.51953 0.41797-0.33984 0-0.50391-0.15234-0.52734-0.41797-0.01953-0.27734-0.01953-0.76172 0-1.0391 0.02344-0.24219 0.1875-0.41406 0.52734-0.41406 0.33203 0 0.50781 0.1875 0.51953 0.41406 0.02344 0.27734 0.02344 0.76172 0 1.0391zm-0.41406-2.3281c-0.51562 0-0.57031 0.23437-0.76953 0.23437-0.07031 0-0.13281-0.0586-0.17578-0.10937-0.02734-0.0273-0.05469-0.0469-0.09375-0.0469h-0.34766c-0.07813 0-0.14062 0.0625-0.14062 0.13672v4.5742c0 0.0781 0.0625 0.14062 0.14062 0.14062h0.625c0.07422 0 0.13672-0.0625 0.13672-0.14062v-1.1094c0-0.15234 0.10547-0.18359 0.20703-0.14453 0.09766 0.043 0.21094 0.082 0.41797 0.082 0.72656 0 1.2617-0.55859 1.3164-1.2891 0.01953-0.27734 0.01953-0.76172 0-1.0391-0.05469-0.72656-0.58984-1.2891-1.3164-1.2891zm3.8594 2.1289c0.04297 0 0.07031 0.0273 0.07031 0.0703v0.16406c0 0.35937-0.30469 0.48047-0.69922 0.48047-0.25 0-0.46094-0.11328-0.46094-0.36719 0-0.10547 0.05859-0.34766 0.35547-0.34766zm-0.5-1.3398c0.30469 0 0.53516 0.14062 0.53516 0.42578v0.10938c0 0.043-0.02734 0.0703-0.07031 0.0703h-0.70703c-0.79688 0-1.1914 0.60156-1.1914 1.082 0 0.72656 0.5 1.1406 1.3047 1.1406 0.51172 0 0.70703-0.26171 0.83203-0.26171 0.08984 0 0.09375 0.082 0.13672 0.14062 0.02734 0.0312 0.05469 0.0469 0.09766 0.0469h0.34766c0.07422 0 0.13672-0.0625 0.13672-0.14063v-2.1484c0-0.80078-0.54688-1.2539-1.3867-1.2539-0.83203 0-1.3359 0.5-1.3359 1.0469 0 0.0781 0.0625 0.14063 0.13672 0.14063h0.5c0.125 0 0.16016-0.0156 0.1875-0.13282 0.04687-0.22265 0.33203-0.26562 0.47656-0.26562zm3.0312 0.5c0.01172-0.22656 0.1875-0.41406 0.51953-0.41406 0.33984 0 0.50391 0.15234 0.52734 0.41406 0.01953 0.27734 0.01953 0.76172 0 1.0391-0.02344 0.2461-0.1875 0.41797-0.52734 0.41797-0.33203 0-0.50781-0.1875-0.51953-0.41797-0.02344-0.27734-0.02344-0.76172 0-1.0391zm0.41406 2.3281c0.51172 0 0.57031-0.23437 0.76953-0.23437 0.07031 0 0.13281 0.0625 0.17188 0.11328 0.03125 0.0234 0.05859 0.0469 0.09766 0.0469h0.34766c0.07813 0 0.14062-0.0625 0.14062-0.14063v-4.6406c0-0.0781-0.0625-0.14063-0.14062-0.14063h-0.625c-0.07422 0-0.13672 0.0625-0.13672 0.14063v1.1758c0 0.15234-0.10547 0.1875-0.20703 0.14453-0.09766-0.0391-0.21094-0.082-0.41797-0.082-0.72656 0-1.2617 0.5625-1.3164 1.2891-0.01953 0.27734-0.01953 0.76172 0 1.0391 0.05469 0.73047 0.58984 1.2891 1.3164 1.2891" fill="#282828"/>
</svg>
