<?xml version="1.0" encoding="UTF-8"?>
<svg id="svg710" fill="none" version="1.1" viewBox="0 0 1090 707" xmlns="http://www.w3.org/2000/svg">
 <!-- Extracted from SVGs from https://stadia.google.com/controller/assets/Unlock_Unplug.svg -->
 <g transform="translate(-94,-404)" stroke-miterlimit="10">
  <path id="L" d="m425.78 428.51v-12.073c0-4.16-3.165-7.602-7.322-7.771-23.927-0.971-101.05-1.145-149.61 33.048-2.048 1.443-3.21 3.816-3.21 6.322v23.23" stroke="#444746" stroke-width="8"/>
  <path id="R" d="m854.89 428.51v-12.073c0-4.16 3.165-7.602 7.322-7.771 23.928-0.971 101.05-1.145 149.61 33.048 2.05 1.443 3.21 3.816 3.21 6.322v23.23" stroke="#444746" stroke-width="8"/>
  <path id="body" d="m1178.4 975.76c-20.37-154.68-63.44-322.57-101.82-422.84-37.59-101.05-137.05-121.26-230.25-121.26h-412.74c-93.199 0-192.66 20.209-230.26 121.26-37.592 101.05-80.668 268.16-101.81 422.84-11.747 76.952 44.642 123.59 94.765 129.03 50.124 5.44 110.43-13.22 140.19-89.39 29.761-75.396 42.292-139.91 104.95-139.91h396.29c62.654 0 75.185 64.514 104.95 139.91 29.761 75.4 90.071 94.83 140.19 89.39s107.3-52.08 95.55-129.03z" fill="#fff" stroke="#8e918f" stroke-width="10"/>
  <path id="dpad" d="m405.61 582.85h-31.218c-2.209 0-4-1.791-4-4v-31.218c0-14.869-12.522-27.391-27.392-27.391-14.869 0-27.391 12.522-27.391 27.391v31.218c0 2.209-1.791 4-4 4h-31.218c-14.87 0-27.392 12.521-27.392 27.391 0 14.869 12.522 27.391 27.392 27.391h31.218c2.209 0 4 1.791 4 4v31.218c0 14.869 12.522 27.391 27.391 27.391 14.87 0 27.392-12.522 27.392-27.391v-31.218c0-2.209 1.791-4 4-4h31.218c14.87 0 27.392-12.522 27.392-27.391 0-14.87-11.74-27.391-27.392-27.391z" stroke="#8e918f" stroke-width="6"/>
  <path id="leftcircle" d="m480.45 829.4c35.347 0 64.001-28.654 64.001-64s-28.654-64-64.001-64c-35.346 0-64 28.654-64 64s28.654 64 64 64z" stroke="#444746" stroke-width="2"/>
  <path id="leftstick" d="m480 813.4c26.51 0 48.001-21.49 48.001-48s-21.491-48-48.001-48-48.001 21.49-48.001 48 21.491 48 48.001 48z" stroke="#8e918f" stroke-width="6"/>
  <path id="stadiabutton" d="m640 801.4c19.882 0 36-16.118 36-36s-16.118-36-36-36-36 16.118-36 36 16.118 36 36 36z" stroke="#e3e3e3" stroke-width="4"/>
  <path id="stadia" d="m630.8 762.18c11.256-5.076 21.094-2.016 26.349 0.549 0.493 0.24 1.083-8e-3 1.257-0.528l1.537-4.611c0.18-0.539-0.068-1.127-0.58-1.377-6.486-3.168-21.884-8.221-38.886 3.744-0.44 0.31-0.597 0.89-0.378 1.383l3.589 8.075c0.241 0.545 0.863 0.809 1.423 0.604 4.106-1.504 10.317-3.083 16.755-2.154-4.357 0.738-7.858 2.275-10.547 3.925-0.48 0.294-0.67 0.897-0.446 1.413 0 0 1.426 3.266 2.206 5.053 0.194 0.446 0.78 0.549 1.114 0.197 0.826-0.872 1.741-1.507 2.484-1.938 3.477-2.019 8.284-3.515 14.783-3.171 0.508 0.026 0.972-0.29 1.132-0.772l1.643-4.927c0.164-0.493-0.027-1.036-0.465-1.314-4.82-3.046-12.243-5.584-22.999-4.138z" fill="#c4c7c5"/>
  <path id="rightcircle" d="m800 829.4c35.346 0 64-28.653 64-63.999s-28.654-63.999-64-63.999-64 28.653-64 63.999 28.654 63.999 64 63.999z" stroke="#444746" stroke-width="2"/>
  <path id="rightstick" d="m800.47 813.89c26.51 0 48-21.49 48-47.999s-21.49-47.999-48-47.999-48 21.49-48 47.999 21.49 47.999 48 47.999z" stroke="#8e918f" stroke-width="6"/>
  <path id="optionsbutton" d="m532.4 552.58c10.747 0 19.6-9.12 19.6-20s-8.853-20-19.6-20h-28.8c-10.747 0-19.6 9.12-19.6 20s8.853 20 19.6 20z" stroke="#8e918f" stroke-width="4"/>
  <path id="options1" d="m510 532.4c0 2.209-1.791 4-4 4s-4-1.791-4-4 1.791-4 4-4 4 1.791 4 4z" fill="#c4c7c5"/>
  <path id="options2" d="m522 532.4c0 2.209-1.791 4-4 4s-4-1.791-4-4 1.791-4 4-4 4 1.791 4 4z" fill="#c4c7c5"/>
  <path id="options3" d="m534 532.4c0 2.209-1.791 4-4 4s-4-1.791-4-4 1.791-4 4-4 4 1.791 4 4z" fill="#c4c7c5"/>
  <path id="assistantbutton" d="m564 635.43c13.255 0 24-10.745 24-24s-10.745-24-24-24-24 10.745-24 24 10.745 24 24 24z" stroke="#8e918f" stroke-width="4"/>
  <path id="assistant" d="m575.08 607.9c-0.486 0-0.904-0.165-1.254-0.496-0.33-0.35-0.496-0.768-0.496-1.254s0.166-0.895 0.496-1.225c0.35-0.35 0.768-0.525 1.254-0.525 0.487 0 0.895 0.175 1.225 0.525 0.35 0.33 0.525 0.739 0.525 1.225s-0.175 0.904-0.525 1.254c-0.33 0.331-0.738 0.496-1.225 0.496zm-5.25 5.833c-0.972 0-1.798-0.34-2.479-1.021-0.68-0.68-1.021-1.507-1.021-2.479s0.341-1.798 1.021-2.479c0.681-0.681 1.507-1.021 2.479-1.021 0.973 0 1.799 0.34 2.48 1.021 0.68 0.681 1.02 1.507 1.02 2.479s-0.34 1.799-1.02 2.479c-0.681 0.681-1.507 1.021-2.48 1.021zm0 9.333c-1.127 0-2.09-0.398-2.887-1.195-0.797-0.798-1.196-1.76-1.196-2.888s0.399-2.09 1.196-2.887c0.797-0.798 1.76-1.196 2.887-1.196 1.128 0 2.091 0.398 2.888 1.196 0.797 0.797 1.196 1.759 1.196 2.887s-0.399 2.09-1.196 2.888c-0.797 0.797-1.76 1.195-2.888 1.195zm-11.666-9.333c-1.945 0-3.597-0.68-4.959-2.042-1.361-1.361-2.041-3.013-2.041-4.958 0-1.944 0.68-3.597 2.041-4.958 1.362-1.361 3.014-2.042 4.959-2.042 1.944 0 3.597 0.681 4.958 2.042s2.042 3.014 2.042 4.958c0 1.945-0.681 3.597-2.042 4.958-1.361 1.362-3.014 2.042-4.958 2.042z" fill="#c4c7c5"/>
  <path id="capturebutton" d="m715.37 635.43c13.255 0 24-10.746 24-24 0-13.255-10.745-24-24-24s-24 10.745-24 24c0 13.254 10.745 24 24 24z" stroke="#8e918f" stroke-width="4"/>
  <path id="capture" d="m704.5 621.9v-7.388h2.625v4.763h4.762v2.625zm0-13.65v-7.35h7.387v2.625h-4.762v4.725zm13.65 13.65v-2.625h4.725v-4.763h2.625v7.388zm4.725-13.65v-4.725h-4.725v-2.625h7.35v7.35z" fill="#c4c7c5"/>
  <path id="menubutton" d="m776.28 552.58c10.747 0 19.6-9.12 19.6-20s-8.853-20-19.6-20h-28.8c-10.747 0-19.6 9.12-19.6 20s8.853 20 19.6 20z" stroke="#8e918f" stroke-width="4"/>
  <path id="menu" d="m749.25 540.9v-2.55h25.5v2.55zm0-7.225v-2.55h25.5v2.55zm0-7.225v-2.55h25.5v2.55z" fill="#c4c7c5"/>
  <path id="Abutton" d="m946.75 711.4c18.778 0 34-15.222 34-34s-15.222-34-34-34-34 15.222-34 34 15.222 34 34 34z" stroke="#8e918f" stroke-width="4"/>
  <path id="A" d="m936.84 688.4 8.64-22.912h4l8.672 22.912h-3.872l-2.112-5.888h-9.344l-2.112 5.888zm14.144-9.152-2.528-7.008-0.864-2.624h-0.192l-0.864 2.624-2.528 7.008z" fill="#c4c7c5"/>
  <path id="Xbutton" d="m879 643.32c18.778 0 34-15.222 34-34 0-18.777-15.222-34-34-34s-34 15.223-34 34c0 18.778 15.222 34 34 34z" stroke="#8e918f" stroke-width="4"/>
  <path id="X" d="m869.51 597.49h4.32l5.088 8.224h0.192l5.12-8.224h4.288l-7.136 11.008 7.648 11.904h-4.288l-5.632-8.928h-0.192l-5.632 8.928h-4.288l7.648-11.904z" fill="#c4c7c5"/>
  <path id="Ybutton" d="m946.75 575.4c18.778 0 34-15.222 34-34s-15.222-34-34-34-34 15.222-34 34 15.222 34 34 34z" stroke="#8e918f" stroke-width="4"/>
  <path id="Y" d="m945.33 552.31v-10.624l-7.744-12.288h4.16l5.216 8.64h0.192l5.088-8.64h4.192l-7.616 12.288v10.624z" fill="#c4c7c5"/>
  <path id="Bbutton" d="m1015 643.32c18.78 0 34-15.222 34-34 0-18.777-15.22-34-34-34-18.778 0-34 15.222-34 34s15.222 34 34 34z" stroke="#8e918f" stroke-width="4"/>
  <path id="B" d="m1008.1 620.4v-22.912h8.57c1.26 0 2.4 0.267 3.43 0.8 1.02 0.533 1.83 1.259 2.43 2.176 0.62 0.917 0.93 1.952 0.93 3.104 0 1.173-0.29 2.176-0.87 3.008-0.57 0.832-1.32 1.461-2.24 1.888v0.16c1.15 0.384 2.09 1.045 2.82 1.984 0.72 0.939 1.09 2.059 1.09 3.36 0 1.28-0.33 2.4-1 3.36-0.64 0.96-1.51 1.717-2.62 2.272-1.09 0.533-2.28 0.8-3.58 0.8zm3.52-10.144v6.88h5.44c0.76 0 1.43-0.16 1.98-0.48 0.56-0.32 0.97-0.747 1.25-1.28 0.3-0.533 0.45-1.088 0.45-1.664 0-0.619-0.15-1.184-0.45-1.696-0.3-0.533-0.74-0.96-1.31-1.28-0.56-0.32-1.24-0.48-2.05-0.48zm0-3.136h4.89c0.75 0 1.38-0.149 1.89-0.448 0.53-0.32 0.94-0.725 1.22-1.216 0.27-0.512 0.41-1.035 0.41-1.568s-0.14-1.035-0.41-1.504c-0.26-0.491-0.64-0.885-1.16-1.184-0.51-0.32-1.12-0.48-1.82-0.48h-5.02z" fill="#c4c7c5"/>
 </g>
</svg>
