<?xml version="1.0" encoding="UTF-8"?>
<svg version="1.1" viewBox="0 0 175.15 116.31" xmlns="http://www.w3.org/2000/svg" xmlns:xlink="http://www.w3.org/1999/xlink">
 <!-- Extracted from https://gulikit.com/productinfo/1523654.html -->
 <g transform="translate(-24.99 -198.96)">
  <path transform="matrix(1.3333 0 0 -1.3333 0 2381.1)" d="m67.362 1599.9c5.7734 0 10.455-4.682 10.455-10.455 0-5.7733-4.6817-10.455-10.455-10.455-5.7733 0-10.455 4.6817-10.455 10.455 0 5.7731 4.6817 10.455 10.455 10.455zm-3.1566-1.3672c-0.2982-0.091-0.5667-0.3557-0.5525-0.648l0.2387-4.9325 0.25-0.2503 6.4885 0.017 0.2673 0.2675 0.1216 4.826c0.0077 0.3028-0.178 0.6378-0.5241 0.7351m-12.222-12.208c0.0916-0.2979 0.3558-0.5667 0.648-0.5522l4.9326 0.2384 0.2503 0.25-0.017 6.4885-0.2676 0.2676-4.826 0.1213c-0.3024 0.01-0.6378-0.1777-0.735-0.5241m9.1037 6.4403c5.3147 0 9.6245-4.3098 9.6245-9.6245 0-5.3146-4.3098-9.6247-9.6245-9.6247-5.3146 0-9.6244 4.3101-9.6244 9.6247 0 5.3147 4.3098 9.6245 9.6244 9.6245zm-3.1566-18.662c-0.2982 0.091-0.5667 0.3555-0.5525 0.648l0.2387 4.9326 0.25 0.25 6.4885-0.017 0.2673-0.2673 0.1216-4.8263c0.0077-0.3024-0.178-0.6375-0.5241-0.7347m5.9037 5.9468c-0.0916-0.2979-0.3557-0.5667-0.648-0.5522l-4.9326 0.2384-0.2503 0.25 0.017 6.4885 0.2676 0.2676 4.826 0.1213c0.3025 0.01 0.6378-0.1777 0.735-0.5241m-38.952 32.457 0.2341 2.692c1.6988 2.721 7.8214 5.4976 12.978 7.0867 2.1767 0.6709 4.1879 1.08 5.5791 1.3399 3.5122 0.6562 5.4723-0.2251 7.829-1.3717 1.0324-0.5023 2.3576-1.1545 3.5657-1.5522 0.4723-0.1557 0.1557-0.563 0.468-0.798m-28.929-3.0078c0.6667 0.7789 1.3853 2.1608 2.133 2.8678 1.7195 1.6245 5.1228 3.9398 7.8634 3.5645 0.7664-0.1048 0.9742-0.5618 1.5468-0.9898m33.696-62.365h-22.596c-4.2993 0-9.8377-3.9566-12.726-7.2884-7.8905-9.1032-12.505-15.288-17.768-15.706-5.9652-0.4734-11.793 6.1721-12.363 15.403-0.358 5.7911 0.9819 12.844 3.0926 22.312 2.6575 11.917 7.9795 23.851 12.512 35.982 0.1503 0.402 1.0114 0.9621 1.4029 1.1373 5.4862 2.4548 9.7387 4.9334 14.675 6.3785 2.6756 0.7835 5.7518 0.9655 8.8889 1.4071h8.0291c0.7228 0.092 1.0536 0.6185 1.3428 0.9281h31.023c0.2892-0.3096 0.6265-0.836 1.3496-0.9281h8.0223c3.1374-0.4416 6.2136-0.6236 8.8892-1.4071 4.9357-1.4451 9.1885-3.9237 14.674-6.3785 0.3914-0.1752 1.2526-0.7353 1.4028-1.1373 4.5321-12.131 9.8544-24.065 12.512-35.982 2.111-9.4678 3.4506-16.52 3.0929-22.312-0.5703-9.2308-6.3978-15.876-12.363-15.403-5.2634 0.4178-9.8782 6.6024-17.769 15.706-2.8885 3.3318-8.4269 7.2884-12.726 7.2884zm-61.429 18.041 10.843 0.362 18.19-22.864m-11.798 5.409 2.5977-3.4032m-0.4856 5.0315 2.7434-3.5487m55.648 60.903c0.3126 0.235-4e-3 0.6423 0.468 0.798 1.2081 0.3977 2.5333 1.0499 3.5657 1.5522 2.3567 1.1466 4.3168 2.0279 7.8292 1.3717 1.391-0.2599 3.4022-0.669 5.5789-1.3399 5.1565-1.5891 11.279-4.3657 12.978-7.0867l0.2338-2.692m-13.268 9.8314c0.5723 0.428 0.78 0.885 1.5468 0.9898 2.7403 0.3753 6.1438-1.94 7.863-3.5645 0.7481-0.707 1.4664-2.0889 2.1334-2.8678m-12.843-61.384 18.189 22.864 10.843-0.362m-17.235-17.093-2.5979-3.4032m0.4859 5.0315-2.7437-3.5487m-22.636 60.606-14.385-15.735c-0.6679-0.7308-1.5647-1.0673-2.4458-1.0573-0.909 0.01-1.8019 0.3807-2.4108 1.0573l-14.155 15.735zm-33.057-9.5179h4.8143c0.3955 0 0.7189-0.3234 0.7189-0.7188v-1.4375c0-0.3954-0.3234-0.7189-0.7189-0.7189h-4.8143c-0.3958 0-0.7192 0.3235-0.7192 0.7189v1.4375c0 0.3954 0.3234 0.7188 0.7192 0.7188zm28.85-3.8809v1.1441h-1.144c-0.3955 0-0.7189 0.284-0.7189 0.6315v1.2632c0 0.3475 0.3234 0.6318 0.7189 0.6318h1.144v1.1438c0 0.3954 0.2841 0.7188 0.6316 0.7188h1.2631c0.3475 0 0.6319-0.3234 0.6319-0.7188v-1.1438h1.1437c0.3955 0 0.7189-0.2843 0.7189-0.6318v-1.2632c0-0.3475-0.3234-0.6315-0.7189-0.6315h-1.1437v-1.1441c0-0.3954-0.2844-0.7189-0.6319-0.7189h-1.2631c-0.3475 0-0.6316 0.3235-0.6316 0.7189zm-23.374-5.0581c1.9537 0 3.5382-1.5846 3.5382-3.5382 0-1.9537-1.5845-3.538-3.5382-3.538-1.9536 0-3.5379 1.5843-3.5379 3.538 0 1.9536 1.5843 3.5382 3.5379 3.5382zm21.558 0c1.9536 0 3.5382-1.5846 3.5382-3.5382 0-1.9537-1.5846-3.538-3.5382-3.538-1.9534 0-3.538 1.5843-3.538 3.538 0 1.9536 1.5846 3.5382 3.538 3.5382zm-10.68-0.6693c1.584 0 2.869-1.2847 2.869-2.8689 0-1.5843-1.285-2.869-2.869-2.869-1.5842 0-2.8689 1.2847-2.8689 2.869 0 1.5842 1.2847 2.8689 2.8689 2.8689zm0-29.336c1.584 0 2.869-1.2847 2.869-2.869 0-1.5842-1.285-2.8689-2.869-2.8689-1.5842 0-2.8689 1.2847-2.8689 2.8689 0 1.5843 1.2847 2.869 2.8689 2.869zm2.9197-2.7598h2.1527l11.862-6.9404v-1.4414m-33.87 0v1.4414l11.862 6.9404h2.1529m2.9199 26.372v-23.601m37.207 26.527c0 2.5722 2.0863 4.6585 4.6585 4.6585 2.5721 0 4.6584-2.0863 4.6584-4.6585s-2.0863-4.6585-4.6584-4.6585c-2.5722 0-4.6585 2.0863-4.6585 4.6585zm-4.0266-4.0266c2.5722 0 4.6585-2.0863 4.6585-4.6585 0-2.5721-2.0863-4.6581-4.6585-4.6581s-4.6582 2.086-4.6582 4.6581c0 2.5722 2.086 4.6585 4.6582 4.6585zm-13.344 4.0266c0 2.5722 2.0863 4.6585 4.6584 4.6585 2.5722 0 4.6582-2.0863 4.6582-4.6585s-2.086-4.6585-4.6582-4.6585c-2.5721 0-4.6584 2.0863-4.6584 4.6585zm13.344 13.344c2.5722 0 4.6585-2.086 4.6585-4.6584 0-2.5722-2.0863-4.6582-4.6585-4.6582s-4.6582 2.086-4.6582 4.6582c0 2.5724 2.086 4.6584 4.6582 4.6584zm5.3847-16.672-2.0736-2.0738m-6.6401 0.017-2.0733 2.0736m-7e-3 6.616 2.0976 2.098m6.6543-0.031 2.0498-2.0498m-21.798-15.884c3.8937 0 7.0509-3.1573 7.0509-7.0506 0-3.8934-3.1572-7.0507-7.0509-7.0507-3.8934 0-7.0506 3.1573-7.0506 7.0507 0 3.8933 3.1572 7.0506 7.0506 7.0506zm0 1.2909c4.6063 0 8.3415-3.7352 8.3415-8.3415s-3.7352-8.3416-8.3415-8.3416-8.3415 3.7353-8.3415 8.3416 3.7352 8.3415 8.3415 8.3415zm0 1.3685c5.3623 0 9.7101-4.348 9.7101-9.71 0-5.3621-4.3478-9.7101-9.7101-9.7101-5.362 0-9.71 4.348-9.71 9.7101 0 5.362 4.348 9.71 9.71 9.71zm-49.871 17.024c3.8934 0 7.0506-3.1573 7.0506-7.0507 0-3.8933-3.1572-7.0506-7.0506-7.0506s-7.0506 3.1573-7.0506 7.0506c0 3.8934 3.1572 7.0507 7.0506 7.0507zm0 1.2909c4.6063 0 8.3415-3.7353 8.3415-8.3416s-3.7352-8.3415-8.3415-8.3415-8.3415 3.7352-8.3415 8.3415 3.7352 8.3416 8.3415 8.3416zm0 1.3685c5.362 0 9.7101-4.348 9.7101-9.7101 0-5.362-4.3481-9.71-9.7101-9.71s-9.7101 4.348-9.7101 9.71c0 5.3621 4.3481 9.7101 9.7101 9.7101z" fill="#fff" stroke="#595757" stroke-linejoin="bevel" stroke-miterlimit="22.926" stroke-width=".3402"/>
  <g fill="#9f9fa0">
   <path transform="matrix(1.3333 0 0 -1.3333 0 2381.1)" d="m73.546 1613.2c1.645 0 2.9781-1.3334 2.9781-2.978 0-1.6447-1.3331-2.9781-2.9781-2.9781-1.6446 0-2.9781 1.3334-2.9781 2.9781 0 1.6446 1.3335 2.978 2.9781 2.978"/>
   <path transform="matrix(1.3333 0 0 -1.3333 0 2381.1)" d="m95.104 1613.2c1.6449 0 2.9783-1.3334 2.9783-2.978 0-1.6447-1.3334-2.9781-2.9783-2.9781-1.6447 0-2.9781 1.3334-2.9781 2.9781 0 1.6446 1.3334 2.978 2.9781 2.978"/>
   <path transform="matrix(1.3333 0 0 -1.3333 0 2381.1)" d="m84.424 1612.6c1.3057 0 2.3644-1.0584 2.3644-2.3643 0-1.3057-1.0587-2.3644-2.3644-2.3644-1.3059 0-2.3643 1.0587-2.3643 2.3644 0 1.3059 1.0584 2.3643 2.3643 2.3643"/>
   <path transform="matrix(1.3333 0 0 -1.3333 0 2381.1)" d="m84.424 1583.2c1.3057 0 2.3644-1.0587 2.3644-2.3644 0-1.3059-1.0587-2.3643-2.3644-2.3643-1.3059 0-2.3643 1.0584-2.3643 2.3643 0 1.3057 1.0584 2.3644 2.3643 2.3644"/>
  </g>
  <g fill="#b5b5b6">
   <path transform="matrix(1.3333 0 0 -1.3333 0 2381.1)" d="m122.46 1610.3c0 2.1144 1.7152 3.8293 3.8296 3.8293 2.1143 0 3.8293-1.7149 3.8293-3.8293s-1.715-3.8293-3.8293-3.8293c-2.1144 0-3.8296 1.7149-3.8296 3.8293"/>
   <path transform="matrix(1.3333 0 0 -1.3333 0 2381.1)" d="m117.61 1605.4c2.1144 0 3.8296-1.7152 3.8296-3.8296 0-2.1143-1.7152-3.8293-3.8296-3.8293s-3.8293 1.715-3.8293 3.8293c0 2.1144 1.7149 3.8296 3.8293 3.8296"/>
   <path transform="matrix(1.3333 0 0 -1.3333 0 2381.1)" d="m105.09 1610.3c0 2.1144 1.7153 3.8293 3.8296 3.8293 2.1144 0 3.8293-1.7149 3.8293-3.8293s-1.7149-3.8293-3.8293-3.8293c-2.1143 0-3.8296 1.7149-3.8296 3.8293"/>
   <path transform="matrix(1.3333 0 0 -1.3333 0 2381.1)" d="m117.61 1622.8c2.1144 0 3.8296-1.715 3.8296-3.8296 0-2.1144-1.7152-3.8294-3.8296-3.8294s-3.8293 1.715-3.8293 3.8294c0 2.1146 1.7149 3.8296 3.8293 3.8296"/>
  </g>
  <g fill="#c9cacb">
   <path transform="matrix(1.3333 0 0 -1.3333 0 2381.1)" d="m70.43 1597.4c0.0071 0.2478-0.1485 0.5222-0.438 0.6018-0.8753 0.2407-1.7572 0.3889-2.5857 0.3926-1.0004 0-1.9253-0.1803-2.6722-0.4048-0.2492-0.075-0.4731-0.2911-0.4618-0.5306l0.1888-4.034 0.2089-0.205 5.4244 0.014 0.2236 0.2189 0.112 3.9469z"/>
   <path transform="matrix(1.3333 0 0 -1.3333 0 2381.1)" d="m59.39 1592.6c-0.2477 0.01-0.5221-0.1488-0.6018-0.4382-0.2409-0.8754-0.3889-1.7572-0.3929-2.5858-0.0042-1.0001 0.1806-1.925 0.4048-2.6722 0.0751-0.2492 0.2914-0.4729 0.5307-0.4618l4.034 0.1888 0.2049 0.2092-0.0139 5.4241-0.2191 0.2236z"/>
   <path transform="matrix(1.3333 0 0 -1.3333 0 2381.1)" d="m70.43 1581.5c0.0071-0.2477-0.1485-0.5221-0.438-0.6018-0.8753-0.2409-1.7572-0.3889-2.5857-0.3926-1.0004 0-1.9253 0.1803-2.6722 0.4048-0.2492 0.075-0.4731 0.2911-0.4618 0.5307l0.1888 4.0337 0.2089 0.2049 5.4244-0.014 0.2236-0.2191 0.112-3.9467z"/>
   <path transform="matrix(1.3333 0 0 -1.3333 0 2381.1)" d="m75.282 1592.6c0.2478 0.01 0.5222-0.1488 0.6018-0.4382 0.241-0.8754 0.3889-1.7572 0.3929-2.5858 0.0042-1.0001-0.1806-1.925-0.4048-2.6722-0.0751-0.2492-0.2914-0.4729-0.5306-0.4618l-4.034 0.1888-0.205 0.2092 0.0139 5.4241 0.2191 0.2236z"/>
  </g>
  <g fill="#fff">
   <path transform="matrix(1.3333 0 0 -1.3333 0 2381.1)" d="m82.798 1581.5c0.076-0.091 0.2214-0.1231 0.3186-0.056 0.4119 0.286 0.8941 0.4224 1.3726 0.4088 0.4357-0.012 0.8685-0.1486 1.2433-0.4088 0.0972-0.068 0.2429-0.035 0.3189 0.056 0.0413 0.05 0.06 0.1142 0.0515 0.178-0.0082 0.064-0.0433 0.121-0.0963 0.1576-0.4496 0.3129-0.9698 0.4779-1.4925 0.4946-0.5822 0.018-1.1704-0.146-1.6713-0.4946-0.0527-0.037-0.0879-0.094-0.0964-0.1576-0.0085-0.064 0.0102-0.1284 0.0516-0.178zm2.4361-0.9737c0.0434 0.052 0.0746 0.1357 0.0627 0.2021-0.0119 0.067-0.053 0.1253-0.1117 0.1587-0.2154 0.1239-0.4538 0.1913-0.6937 0.2013-0.2843 0.012-0.5717-0.055-0.8271-0.2013-0.059-0.033-0.0998-0.092-0.1117-0.1587-0.0119-0.066 0.0065-0.1352 0.0502-0.1874 0.0711-0.085 0.2055-0.1216 0.3016-0.067 0.1664 0.095 0.3523 0.1403 0.5374 0.1377 0.1735 0 0.3473-0.049 0.5035-0.1377 0.0961-0.055 0.2177-0.033 0.2888 0.052zm-0.5227-0.965c0 0.1585-0.1284 0.2866-0.2866 0.2866-0.1584 0-0.2865-0.1281-0.2865-0.2866 0-0.1581 0.1281-0.2863 0.2865-0.2863 0.1582 0 0.2866 0.1282 0.2866 0.2863"/>
   <path transform="matrix(1.3333 0 0 -1.3333 0 2381.1)" d="m85.888 1610.5h-0.1244c-0.1236 0-0.1236 0.082-0.1236 0.082l-0.1647 0.2475c0 0.083 0 0.165 0.0408 0.2061l0.1239 0.083c0.0414 0.082 0.0414 0.123 0 0.2058l-0.2058 0.1647c-0.0411 0.042-0.1236 0.042-0.1647 0l-0.083-0.1236c-0.0822-0.041-0.1647-0.041-0.2058 0l-0.2064 0.082c-0.0819 0-0.1239 0.083-0.1239 0.1644v0.1245c0 0.082-0.0411 0.1233-0.1233 0.1233h-0.2063c-0.082 0-0.1236-0.041-0.1236-0.1233v-0.1245c0-0.082-0.0414-0.1644-0.1236-0.1644l-0.2061-0.082c-0.0411-0.041-0.165-0.041-0.2061 0l-0.083 0.1236c-0.0411 0.042-0.1233 0.042-0.2058 0l-0.1644-0.1647c-0.042-0.083-0.042-0.1236 0-0.2058l0.1233-0.083c0.0411-0.041 0.0411-0.1233 0-0.2061l-0.0825-0.2055c0-0.042-0.0828-0.1245-0.1239-0.1245h-0.1647c-0.0825 0-0.1238-0.041-0.1238-0.1235v-0.2469c0-0.041 0.0413-0.1242 0.1238-0.1242h0.1647c0.0411 0 0.1239-0.041 0.1239-0.1236l0.0825-0.2058c0.0411-0.041 0.0411-0.1241 0-0.165l-0.1233-0.1238c-0.042-0.041-0.042-0.1236 0-0.165l0.1644-0.1647c0.0825-0.083 0.1647-0.083 0.2058 0l0.083 0.082c0.0411 0.041 0.165 0.082 0.2061 0.041l0.2061-0.082c0.0822-0.041 0.1236-0.1244 0.1236-0.1647v-0.1653c0-0.041 0.0416-0.1235 0.1236-0.1235h0.2063c0.0822 0 0.1233 0.082 0.1233 0.1235v0.1653c0 0.04 0.042 0.1236 0.1239 0.1647l0.2064 0.082c0.0411 0.041 0.1236 0 0.2058-0.041l0.083-0.082c0.0411-0.083 0.1236-0.083 0.1647 0l0.2058 0.1647c0.0414 0.041 0.0414 0.1241 0 0.165l-0.1239 0.1238c-0.0408 0.041-0.0408 0.1236-0.0408 0.165l0.0828 0.2058c0.0411 0.082 0.1233 0.1236 0.1641 0.1236h0.1658c0.0817 0 0.1236 0.083 0.1236 0.1242v0.2469c0 0.083-0.0419 0.1235-0.1236 0.1235zm-0.8662-0.2471c0-0.3294-0.2889-0.6183-0.5772-0.6183-0.3296 0-0.6182 0.2889-0.6182 0.6183 0 0.3716 0.2886 0.6185 0.6182 0.6185 0.2883 0 0.5772-0.2469 0.5772-0.6185"/>
   <path transform="matrix(1.3333 0 0 -1.3333 0 2381.1)" d="m95.679 1609c0-0.044-0.0442-0.088-0.0884-0.088h-1.0168c-0.0439 0-0.0879 0.044-0.0879 0.088v1.1047c0 0.044 0.044 0.088 0.0879 0.088h1.0168c0.0442 0 0.0884-0.044 0.0884-0.088zm-0.5746 3.0492-1.8564-1.7237h0.4422v-1.6792h2.7845v1.6792h0.4859z"/>
   <path transform="matrix(1.3333 0 0 -1.3333 0 2381.1)" d="m74.563 1611.9h-2.0752c-0.3385 0-0.6353-0.2962-0.6353-0.6766v-2.0753c0-0.339 0.2968-0.6347 0.6353-0.6347h2.0752c0.3804 0 0.6769 0.2957 0.6769 0.6347v2.0753c0 0.3804-0.2965 0.6766-0.6769 0.6766zm-1.0165-3.0487c-0.762 0-1.3544 0.593-1.3544 1.3555 0 0.7195 0.5924 1.355 1.3544 1.355 0.7617 0 1.3547-0.6355 1.3547-1.355 0-0.7625-0.593-1.3555-1.3547-1.3555"/>
  </g>
  <path transform="matrix(1.3333 0 0 -1.3333 0 2381.1)" d="m90.247 1626.5c0.3385 0.2486 0.8144 0.1757 1.0627-0.1627 0.2486-0.3382 0.1758-0.8142-0.1627-1.0625-0.3382-0.2486-0.8141-0.1757-1.0624 0.1625-0.2486 0.3384-0.1758 0.8141 0.1624 1.0627zm-1.9437-1.4193c0.3382 0.2486 0.8141 0.1757 1.0624-0.1625 0.2486-0.3384 0.1758-0.8144-0.1624-1.063-0.3385-0.2483-0.8141-0.1754-1.0627 0.1627-0.2486 0.3385-0.1758 0.8142 0.1627 1.0628zm-6.0528-1.1231c1.4232 1.0454 3.3885 0.8234 4.5473-0.4598-0.1542 0.1182-0.3745 0.1264-0.5383 0.01l-0.4232-0.3107c-0.0615-0.043-0.1364-0.069-0.2171-0.069-0.1228 0-0.2322 0.058-0.3014 0.1491l-0.3098 0.4218c-0.1457 0.1985-0.4275 0.2416-0.6259 0.096l-0.3606-0.2651c-0.1984-0.146-0.2415-0.4274-0.0958-0.6259l0.3099-0.4218c0.0654-0.093 0.0887-0.2148 0.0518-0.3319-0.0241-0.077-0.0705-0.1412-0.1301-0.1868l-0.4232-0.311c-0.1984-0.1457-0.2415-0.4274-0.0958-0.6256l0.265-0.3608c0.1457-0.1985 0.4275-0.2415 0.6259-0.096l0.4232 0.3109c0.0616 0.043 0.1364 0.068 0.2172 0.068 0.123 0 0.2321-0.058 0.3013-0.1491l0.3098-0.4218c0.1457-0.1984 0.4275-0.2415 0.6259-0.096l0.3606 0.2654c0.1984 0.1457 0.2415 0.4271 0.0958 0.6256l-0.3098 0.4218c-0.0655 0.093-0.0888 0.2148-0.0519 0.3319 0.0241 0.077 0.0706 0.1412 0.1301 0.1871l0.4232 0.3107c0.1639 0.1204 0.2217 0.333 0.1551 0.5153 0.8776-1.489 0.5017-3.4308-0.9216-4.4762-1.5176-1.1151-3.6518-0.7886-4.7673 0.7294-1.1148 1.5176-0.7883 3.6521 0.7297 4.7673" fill="#c9cacb"/>
  <path transform="matrix(1.3333 0 0 -1.3333 0 2381.1)" d="m121.87 1579.4-0.8717-1.0868-0.2795 0.2243 1.1302 1.4091 0.0153-0.012c0.3597-0.2923 0.6211-0.6614 0.6727-1.1311 0.051-0.466-0.1188-0.8784-0.4079-1.2387-0.3637-0.4535-0.826-0.7313-1.4125-0.75-0.4264-0.013-0.8068 0.1131-1.1396 0.3801-0.2469 0.1981-0.4277 0.445-0.5411 0.7404-0.1137 0.2956-0.1431 0.6004-0.0896 0.9125 0.0562 0.3279 0.2013 0.6199 0.4088 0.8787 0.1723 0.2149 0.3787 0.394 0.6199 0.5278 0.2588 0.1435 0.5488 0.2228 0.8405 0.2628h0.0204l0.032-0.3911h-0.0184c-0.2438-0.029-0.4782-0.097-0.6948-0.2129-0.1933-0.1032-0.3682-0.2367-0.5059-0.4082-0.1627-0.2027-0.2648-0.4337-0.311-0.6897-0.0456-0.2522-0.0283-0.5 0.0621-0.7401 0.0862-0.2287 0.2222-0.4229 0.413-0.576 0.1959-0.157 0.4209-0.2492 0.6698-0.284 0.2585-0.036 0.5085-9e-4 0.7492 0.1 0.2497 0.1043 0.4575 0.2667 0.6267 0.4779 0.1973 0.2457 0.3147 0.525 0.3121 0.8422-2e-3 0.2942-0.1043 0.5482-0.3007 0.7647zm-0.1443 1.3998 0.2047 0.2551 0.8319-0.6673c0.1163-0.093 0.2954-0.2375 0.4329-0.2951 0.1275-0.051 0.2571-0.059 0.3889-0.019 0.1403 0.043 0.2528 0.1296 0.3438 0.2432 0.0893 0.1112 0.1514 0.2382 0.1613 0.3819 9e-3 0.1304-0.0198 0.2506-0.0901 0.3608-0.076 0.1174-0.2886 0.2858-0.398 0.3736l-0.832 0.6673 0.2087 0.2599 0.8736-0.7007c0.1721-0.1377 0.3827-0.3279 0.4825-0.5281 0.0782-0.1564 0.1074-0.3217 0.0853-0.4952-0.025-0.1936-0.1211-0.3679-0.2415-0.5182-0.1211-0.151-0.2707-0.2826-0.4547-0.3498-0.1658-0.061-0.3348-0.068-0.506-0.024-0.2202 0.056-0.4586 0.2271-0.6338 0.3674l-0.8575 0.688zm1.0545 2.5713 0.2049 0.2554 2.4378-1.9556-0.2046-0.2554zm1.2532 0.2134 0.2049 0.2552 1.7793-1.4273-0.2046-0.2554zm-0.5567 0.6551c0.0445 0.055 0.1026 0.087 0.1732 0.094 0.0705 0.01 0.134-0.011 0.1896-0.055 0.0547-0.044 0.0859-0.102 0.0935-0.1717 8e-3 -0.071-0.0102-0.1341-0.0547-0.1897-0.0439-0.055-0.102-0.085-0.1717-0.093-0.0701-0.01-0.133 0.01-0.188 0.054-0.0553 0.044-0.0876 0.1023-0.0955 0.1729-8e-3 0.07 0.01 0.1329 0.0536 0.1879zm1.489 0.4757-0.1573 1.8575 0.3245 0.4048 0.1894-2.3012 2.6436 0.1886-0.32-0.3989-2.1734-0.1573 1.2459-0.9992-0.2444-0.3045-2.7547 2.2099 0.2441 0.3045zm1.4392 1.8255 0.2046 0.2551 1.7796-1.4275-0.2049-0.2551zm-0.5602 0.6508c0.0445 0.055 0.1024 0.087 0.1729 0.094 0.0706 0.01 0.1344-0.011 0.1897-0.055 0.055-0.044 0.0859-0.102 0.0935-0.172 8e-3 -0.07-0.0102-0.1341-0.0544-0.1894-0.0442-0.055-0.1021-0.085-0.1718-0.093-0.07-0.01-0.1332 0.01-0.1882 0.054-0.0553 0.044-0.0873 0.1023-0.0952 0.1729-8e-3 0.07 0.01 0.1329 0.0535 0.1879zm1.5441 0.5757 0.2863 0.3569 0.2247-0.18-0.2863-0.3569 1.5548-1.2472-0.2046-0.2554-1.5548 1.2472-0.2466-0.3072-0.2245 0.1803 0.2463 0.3072-0.6497 0.521 0.2049 0.2554z" fill="#dcdddd"/>
  <g>
   <path transform="matrix(1.3333 0 0 -1.3333 0 2381.1)" d="m68.199 1622.3h4.5556c0.2242 0 0.4076-0.1834 0.4076-0.4076v-1.2223c0-0.2242-0.1834-0.4076-0.4076-0.4076h-4.5556c-0.2242 0-0.4076 0.1834-0.4076 0.4076v1.2223c0 0.2242 0.1834 0.4076 0.4076 0.4076" fill="#898989"/>
   <path transform="matrix(1.3333 0 0 -1.3333 0 2381.1)" d="m97.352 1619v0.8462c0 0.2304-0.2299 0.5162-0.4604 0.5162h-0.9017c-0.216 0-0.3926 0.1496-0.3926 0.3325v0.9978c0 0.1828 0.1763 0.3325 0.3926 0.3325h0.9218c0.2183 0 0.4403 0.2659 0.4403 0.4839v0.8778c0 0.2163 0.1496 0.3926 0.3325 0.3926h0.9978c0.1828 0 0.3325-0.1771 0.3325-0.3926v-0.8886c0-0.1727 0.2063-0.4731 0.3795-0.4731h0.9825c0.2163 0 0.3926-0.15 0.3926-0.3325v-0.9978c0-0.1826-0.1766-0.3325-0.3926-0.3325h-0.8858c-0.2339 0-0.4762-0.2826-0.4762-0.5162v-0.8462c0-0.2157-0.1503-0.3926-0.3325-0.3926h-0.9978c-0.1823 0-0.3325 0.1764-0.3325 0.3926" fill="#898989"/>
   <path transform="matrix(1.3333 0 0 -1.3333 0 2381.1)" d="m101.2 1595.7c2.7649 0 5.0063-2.2413 5.0063-5.0062 0-2.765-2.2414-5.0063-5.0063-5.0063-2.7646 0-5.0059 2.2413-5.0059 5.0063 0 2.7649 2.2413 5.0062 5.0059 5.0062" fill="#c9cacb"/>
   <path transform="matrix(1.3333 0 0 -1.3333 0 2381.1)" d="m51.328 1615.4c2.7649 0 5.0062-2.2413 5.0062-5.0063 0-2.7649-2.2413-5.0062-5.0062-5.0062s-5.0063 2.2413-5.0063 5.0062c0 2.765 2.2414 5.0063 5.0063 5.0063" fill="#c9cacb"/>
  </g>
  <g fill="#fff">
   <path transform="matrix(1.3333 0 0 -1.3333 0 2381.1)" d="m106.83 1608.1 1.7719 2.3862-1.5596 2.1898-0.0655 0.092h0.8739l0.0176-0.025 0.8433-1.1914c0.089-0.125 0.1644-0.2353 0.2259-0.3291 0.0383-0.059 0.0726-0.1129 0.1018-0.1616 0.038 0.059 0.0782 0.1193 0.1205 0.1803 0.0603 0.086 0.127 0.1774 0.199 0.271l0.9351 1.2322 0.0179 0.023h0.8129l-0.0697-0.093-1.6061-2.1541 1.7334-2.421 0.0663-0.092h-0.9039l-0.0176 0.025-1.1687 1.6566-3e-4 3e-4c-0.0315 0.045-0.0658 0.096-0.1009 0.1505l-3e-4 3e-4 -0.0533 0.083-0.0851-0.1352c-0.0377-0.059-0.0677-0.1049-0.0895-0.1366l-9e-4 -9e-4 -1.1656-1.6189-0.0173-0.024h-0.8841l0.0689 0.093z"/>
   <path transform="matrix(1.3333 0 0 -1.3333 0 2381.1)" d="m115.43 1599.8 1.7842 4.644 0.0147 0.038h0.7401l0.0148-0.036 1.9012-4.6443 0.0328-0.08h-0.8271l-0.0145 0.037-0.5272 1.3694h-1.8618l-0.4952-1.3685-0.0139-0.038h-0.7784l0.0303 0.079zm1.4777 1.9448h1.4074l-0.4555 1.2068c-0.0737 0.1961-0.1389 0.3753-0.1936 0.5357-0.0258 0.076-0.0499 0.1488-0.072 0.2177-0.0184-0.077-0.0383-0.1536-0.0598-0.2305v-2e-4c-0.0423-0.1486-0.0907-0.2982-0.1452-0.4462l-2e-4 -3e-4z"/>
   <path transform="matrix(1.3333 0 0 -1.3333 0 2381.1)" d="m124.84 1608.1v4.702h1.8017c0.1794 0 0.343-0.012 0.4887-0.036 0.1468-0.024 0.2764-0.061 0.3875-0.1091h3e-4c0.1122-0.049 0.2131-0.1125 0.3019-0.1888 0.0884-0.076 0.1647-0.1664 0.2279-0.2684 0.0629-0.1018 0.1114-0.2072 0.1434-0.3147 0.032-0.1071 0.0482-0.2174 0.0482-0.3293 0-0.1038-0.0145-0.2056-0.0431-0.3048-0.0286-0.098-0.0714-0.1939-0.1278-0.2857-0.0562-0.092-0.1279-0.1763-0.2132-0.2503-0.0541-0.048-0.1142-0.091-0.18-0.1315 0.095-0.036 0.182-0.08 0.2602-0.131 0.1131-0.073 0.2098-0.1633 0.2897-0.267v-3e-4c0.0794-0.1049 0.1395-0.2194 0.1795-0.3427 0.0396-0.1236 0.0595-0.256 0.0595-0.3966 0-0.1122-0.0122-0.2219-0.0363-0.3277-0.0238-0.1051-0.0601-0.2069-0.108-0.3041-0.0476-0.097-0.1015-0.1834-0.1607-0.2588h3e-4c-0.0593-0.075-0.1256-0.1406-0.1976-0.1948-0.0714-0.054-0.1517-0.1003-0.2393-0.14-0.0867-0.039-0.1836-0.072-0.2894-0.099v-3e-4c-0.2078-0.053-0.4629-0.079-0.7636-0.079h-1.8298v0.058zm0.7322 2.7508h0.9462c0.1349 0 0.2497 0 0.3436 0.013 0.0938 0.01 0.1698 0.022 0.2259 0.038 0.072 0.022 0.136 0.05 0.1893 0.085v3e-4c0.0533 0.035 0.0981 0.076 0.1327 0.1241 0.0354 0.048 0.0624 0.1041 0.0805 0.1653 0.0176 0.062 0.0269 0.1304 0.0269 0.2061 0 0.072-8e-3 0.1397-0.0255 0.2024h3e-4c-0.0164 0.062-0.0422 0.1193-0.076 0.1729-0.0334 0.053-0.0739 0.098-0.1207 0.1335-0.0476 0.036-0.1029 0.064-0.1641 0.084v-3e-4c-0.065 0.021-0.1545 0.036-0.2676 0.046-0.1143 0.011-0.2552 0.016-0.4221 0.016h-0.8694v-1.2866zm0-2.1444h1.0976c0.0992 0 0.1822 0 0.2483 0.01 0.068 0 0.1219 0.01 0.1601 0.016v-2e-4c0.0678 0.012 0.1296 0.029 0.1851 0.048 0.0542 0.019 0.1041 0.043 0.1489 0.071 0.0425 0.026 0.0813 0.059 0.1168 0.098 0.036 0.04 0.0686 0.086 0.0975 0.1386 0.0277 0.052 0.0487 0.108 0.0629 0.1681v3e-4c0.0142 0.06 0.0215 0.1253 0.0215 0.1947 0 0.082-0.0102 0.1573-0.0306 0.2262-0.0204 0.069-0.051 0.1338-0.0918 0.1925-0.0406 0.059-0.0893 0.1086-0.1452 0.1494-0.0566 0.041-0.1221 0.074-0.1947 0.098-0.0745 0.024-0.1672 0.043-0.2772 0.055s-0.2384 0.019-0.3838 0.019h-1.0154v-1.4794z"/>
   <path transform="matrix(1.3333 0 0 -1.3333 0 2381.1)" d="m117.3 1616.3v1.9494l-1.7796 2.6623-0.0606 0.091h0.8881l0.017-0.026 0.9158-1.4003 3e-4 -6e-4c0.0836-0.1298 0.1656-0.2619 0.2449-0.3943 0.061-0.1014 0.1205-0.2035 0.178-0.3055 0.0565 0.096 0.118 0.1978 0.1846 0.3061 0.0859 0.1389 0.1771 0.2821 0.2732 0.4289h3e-4l0.8995 1.3657 0.0175 0.026h0.8581l-0.0635-0.092-1.8425-2.6623v-2.0068h-0.7311v0.058z"/>
  </g>
 </g>
</svg>
