<?xml version="1.0" encoding="UTF-8"?>
<svg version="1.1" viewBox="0 0 175.93 116.38" xmlns="http://www.w3.org/2000/svg" xmlns:xlink="http://www.w3.org/1999/xlink">
 <!-- Extracted from https://gulikit.com/productinfo/1523654.html -->
 <g transform="translate(-26.099 -338.84)">
  <path transform="matrix(1.3333 0 0 -1.3333 0 2381.1)" d="m108.44 1512.8v-45.192m-2.0733 59.895c1.3555-2.91 2.1515-6.4465 2.0631-10.128m30.804-67.851c-0.0372-1.62-0.1185-3.1034-0.4164-4.8546m-13.37 75.865c2.7729-12.206 6.2796-26.11 9.3104-39.34 2.1416-9.3495 4.4581-18.255 4.4581-27.161m-28.405 60.996c0-1.2515-1.0148-2.266-2.266-2.266-1.2515 0-2.2663 1.0145-2.2663 2.266s1.0148 2.266 2.2663 2.266c1.2512 0 2.266-1.0145 2.266-2.266zm2.3051 9.8215c0.3997 0.5374 0.7024 1.1962 1.1169 1.7989 0.3342 0.4858 0.9161 0.6885 1.3351 1.0207 0.862 0.6832 2.3241 1.6024 3.1805 2.3678m22.662-78.284c0-1.2515-1.0145-2.266-2.266-2.266s-2.266 1.0145-2.266 2.266 1.0145 2.266 2.266 2.266 2.266-1.0145 2.266-2.266zm-39.583 76.054c0.5293 0.3982 1.2748 0.737 1.8967 1.074 0.8529 0.4621 1.603 0.9023 2.4129 1.2963 2.3567 1.146 4.3656 1.7127 7.8774 1.057 1.3907-0.2596 2.5824-0.4986 4.7577-1.1707 0.9488 0.8164 2.0404 0.8834 3.1059 0.8394 3.4827-0.1446 7.1674-3.822 8.6959-6.1753 0.496-0.7642 1.1029-0.959 1.4595-1.7433 0.411-0.9037 0.2078-2.3627 0.434-3.1346m-69.809-7.0503v-45.192m0.0105 49.767c-0.0887 3.6817 0.7072 7.2182 2.0628 10.128m-32.867-77.979c0.0371-1.62 0.1185-3.1034 0.4164-4.8546m-0.3977 9.3637c0 8.9059 2.3162 17.812 4.4578 27.161 3.0308 13.23 6.5375 27.134 9.3104 39.34m16.902-3.2395c1.2515 0 2.266-1.0145 2.266-2.266s-1.0145-2.266-2.266-2.266-2.266 1.0145-2.266 2.266 1.0145 2.266 2.266 2.266zm-10.204 12.743c0.8563-0.7654 2.3182-1.6846 3.1802-2.3678 0.4189-0.3322 1.0009-0.5349 1.3354-1.0207 0.4141-0.6027 0.7171-1.2615 1.1165-1.7989m-26.028-70.83c1.2512 0 2.266-1.0145 2.266-2.266s-1.0148-2.266-2.266-2.266c-1.2515 0-2.2663 1.0145-2.2663 2.266s1.0148 2.266 2.2663 2.266zm6.677 65.831c0.226 0.7719 0.0227 2.2309 0.4337 3.1346 0.3569 0.7843 0.9638 0.9791 1.4599 1.7433 1.5284 2.3533 5.2129 6.0307 8.6955 6.1753 1.0659 0.044 2.1575-0.023 3.106-0.8394 2.1753 0.6721 3.3672 0.9111 4.7576 1.1707 3.5122 0.6557 5.5211 0.089 7.8775-1.057 0.8099-0.394 1.5602-0.8342 2.4129-1.2963 0.6219-0.337 1.3674-0.6758 1.8966-1.074m15.985-60.225h-22.596c-4.2991 0-9.8374-3.9566-12.726-7.2885-7.8908-9.1031-12.505-15.288-17.769-15.706-5.9652-0.4734-11.793 6.1722-12.363 15.403-0.3577 5.7912 0.9819 12.844 3.0929 22.312 2.6572 11.917 7.9795 23.851 12.512 35.982 0.1503 0.402 1.0114 0.9624 1.4029 1.1373 0.4371 0.1956 0.896 0.3759 1.3728 0.5417 1.7189-1.5009 13.416 2.0024 17.958 3.3319 2.675 0.7832 2.2155 4.0892 3.8792 4.2069l8.1292 0.029h0.0765c0.7231 0.092 1.2308 0.2943 1.52 0.6038h31.607c0.2891-0.3095 0.7965-0.5119 1.5196-0.6038h0.0769l8.1289-0.029c1.6639-0.1177 1.2041-3.4237 3.8792-4.2069 4.5425-1.3295 16.239-4.8328 17.958-3.3319 0.4768-0.1658 0.9355-0.3461 1.3729-0.5417 0.3914-0.1749 1.2526-0.7353 1.4028-1.1373 4.5321-12.131 9.8541-24.065 12.512-35.982 2.1107-9.4677 3.4506-16.52 3.0926-22.312-0.5704-9.2307-6.3978-15.876-12.363-15.403-5.2631 0.4178-9.8779 6.6027-17.768 15.706-2.8882 3.3319-8.4271 7.2885-12.726 7.2885h-22.979zm-22.567 50.686h45.579" fill="#fff" stroke="#595757" stroke-linejoin="bevel" stroke-miterlimit="22.926" stroke-width=".3402"/>
  <path transform="matrix(1.3333 0 0 -1.3333 0 2381.1)" d="m85.548 1476.5c0.8529 0 1.5449-0.6916 1.5449-1.5448 0-0.853-0.692-1.5449-1.5449-1.5449-0.8533 0-1.5449 0.6919-1.5449 1.5449 0 0.8532 0.6916 1.5448 1.5449 1.5448" fill="#898989"/>
  <path transform="matrix(1.3333 0 0 -1.3333 0 2381.1)" d="m83.526 1481.1h4.0456c0.3458 0 0.6284-0.2823 0.6284-0.6281v-1.8848c0-0.3458-0.2826-0.6281-0.6284-0.6281h-4.0456c-0.3459 0-0.6282 0.2823-0.6282 0.6281v1.8848c0 0.3458 0.2823 0.6281 0.6282 0.6281z" fill="none" stroke="#595757" stroke-linejoin="bevel" stroke-miterlimit="22.926" stroke-width=".3402"/>
  <path transform="matrix(1.3333 0 0 -1.3333 0 2381.1)" d="m86.237 1504.7h-1.0386v0.2671h1.3467v-0.014c-0.0022-0.3455-0.0949-0.6695-0.3441-0.919-0.2472-0.2469-0.5661-0.3407-0.9108-0.3407-0.4331 0-0.8104 0.1395-1.095 0.4717-0.2066 0.2418-0.3107 0.5221-0.3107 0.8402 0 0.2358 0.0596 0.4563 0.1783 0.6602 0.1191 0.2038 0.2824 0.3631 0.4887 0.4776 0.2172 0.1205 0.4547 0.1723 0.7019 0.1723 0.2055 0 0.4059-0.036 0.5961-0.1145 0.2041-0.084 0.3858-0.2151 0.5451-0.3662l0.0111-0.01-0.2126-0.2013-0.01 0.01c-0.1303 0.1281-0.2792 0.233-0.4478 0.3047-0.1503 0.064-0.3096 0.1037-0.4734 0.1037-0.1939 0-0.3759-0.048-0.5462-0.1409-0.1679-0.091-0.3042-0.2168-0.4014-0.3815-0.093-0.1568-0.1423-0.3263-0.1423-0.5085 0-0.1874 0.0513-0.3615 0.1474-0.5222 0.0995-0.1672 0.2364-0.2962 0.4073-0.3892 0.1772-0.097 0.3685-0.1417 0.5703-0.1417 0.235 0 0.4522 0.062 0.6353 0.2115 0.1701 0.1389 0.2704 0.3163 0.3047 0.5317zm0.7467 0.737h0.244v-0.7951c0-0.1111-3e-4 -0.2829 0.0303-0.3895 0.0295-0.098 0.0857-0.1768 0.1704-0.2349 0.0902-0.062 0.1933-0.087 0.3019-0.087 0.1063 0 0.2092 0.023 0.2974 0.084 0.0802 0.056 0.1366 0.1284 0.1678 0.2208 0.0328 0.099 0.0314 0.3013 0.0314 0.4059v0.7951h0.2486v-0.835c0-0.1645-0.0122-0.3756-0.0819-0.527-0.0547-0.1185-0.1372-0.2126-0.2483-0.2806-0.1242-0.076-0.2704-0.1015-0.4142-0.1015-0.1442 0-0.2905 0.026-0.4155 0.1015-0.1125 0.068-0.1953 0.163-0.25 0.2829-0.07 0.1545-0.0819 0.3727-0.0819 0.54v0.8197zm1.9873 0.5863h0.2441v-2.3304h-0.2441zm0.7087-0.6293h0.244v-1.7011h-0.244zm0.1213 0.6293c0.053 0 0.0984-0.019 0.1358-0.056 0.0374-0.038 0.0561-0.083 0.0561-0.1363 0-0.052-0.0193-0.097-0.0561-0.1347-0.0374-0.037-0.0828-0.056-0.1358-0.056-0.0524 0-0.0972 0.019-0.1341 0.056-0.0371 0.037-0.0561 0.082-0.0561 0.1347 0 0.053 0.0187 0.099 0.0561 0.1363 0.0369 0.037 0.0817 0.056 0.1341 0.056zm0.9714-0.6441 1.0069 0.9581h0.3867l-1.2498-1.1837 1.3427-1.4494h-0.3812l-1.1053 1.1909v-1.1909h-0.2908v2.6331h0.2908zm1.7329 0.015h0.244v-1.7011h-0.244zm0.1173 0.6293c0.0527 0 0.0984-0.019 0.1355-0.056 0.0374-0.038 0.0564-0.083 0.0564-0.1363 0-0.052-0.0193-0.097-0.0564-0.1347-0.0371-0.037-0.0828-0.056-0.1355-0.056-0.0524 0-0.0972 0.019-0.1343 0.056-0.0369 0.037-0.0562 0.082-0.0562 0.1347 0 0.053 0.019 0.099 0.0562 0.1361 0.0371 0.037 0.0819 0.057 0.1343 0.057zm1.0554-0.6293h0.341v-0.2149h-0.341v-1.4862h-0.2441v1.4862h-0.2937v0.2149h0.2937v0.6207h0.2441zm-15.899 1.3237c0.8067 0.5925 1.9205 0.4666 2.5773-0.2605-0.0873 0.067-0.2121 0.072-0.305 0l-0.2399-0.176c-0.0348-0.024-0.0773-0.039-0.123-0.039-0.0697 0-0.1315 0.033-0.1709 0.084l-0.1755 0.239c-0.0827 0.1125-0.2423 0.1369-0.3546 0.054l-0.2046-0.1502c-0.1123-0.083-0.137-0.2424-0.0542-0.3546l0.1755-0.2393c0.0374-0.053 0.0504-0.1216 0.0295-0.1879-0.0136-0.044-0.04-0.08-0.0737-0.106l-0.2399-0.1763c-0.1125-0.082-0.1369-0.2421-0.0544-0.3546l0.1503-0.2044c0.0827-0.1126 0.2423-0.1369 0.3546-0.054l0.2401 0.1764c0.0348 0.024 0.0774 0.039 0.123 0.039 0.0697 0 0.1315-0.033 0.1706-0.085l0.1758-0.2389c0.0825-0.1126 0.2421-0.1369 0.3546-0.055l0.2044 0.1503c0.1125 0.083 0.1369 0.2421 0.0544 0.3546l-0.1757 0.2392c-0.0372 0.053-0.0502 0.1216-0.0295 0.188 0.0139 0.044 0.0402 0.08 0.0737 0.106l0.2401 0.1763c0.0927 0.068 0.1255 0.1885 0.0878 0.292 0.4975-0.8442 0.2844-1.9446-0.5224-2.537-0.86-0.6322-2.0698-0.4471-2.7017 0.4133-0.6318 0.8603-0.447 2.0701 0.4133 2.7019zm3.4305 0.6367c0.1916 0.1409 0.4615 0.1 0.6024-0.092 0.1408-0.1919 0.0995-0.4615-0.0922-0.6024-0.1919-0.1409-0.4614-0.1-0.6023 0.092-0.1409 0.1919-0.0995 0.4615 0.0921 0.6024zm1.1018 0.8042c0.1916 0.1409 0.4615 0.1 0.6024-0.092 0.1406-0.1917 0.0995-0.4612-0.0924-0.6021-0.1916-0.1409-0.4612-0.1-0.6021 0.092-0.1409 0.1916-0.0995 0.4615 0.0921 0.6021" fill="#b5b5b6"/>
  <path transform="matrix(1.3333 0 0 -1.3333 0 2381.1)" d="m85.402 1480.8h2.378c0.1117 0 0.2029-0.092 0.2029-0.2032v-2.1532c0-0.1111-0.0918-0.2033-0.2029-0.2033h-2.378c-0.1111 0-0.2032 0.092-0.2032 0.2033v2.1532c0 0.1117 0.0912 0.2032 0.2032 0.2032zm1.5174 0.033v-2.5716m-0.6568 2.5716v-2.5716" fill="none" stroke="#595757" stroke-linejoin="bevel" stroke-miterlimit="22.926" stroke-width=".3402"/>
 </g>
</svg>
