<?xml version="1.0" encoding="UTF-8"?>
<!-- https://commons.wikimedia.org/wiki/File:Dualshock_4_Layout.svg-->
<svg version="1.1" viewBox="0 0 600 400" xmlns="http://www.w3.org/2000/svg">
 <defs>
  <clipPath id="clipPath3233">
   <path d="m-94.812 186.38c-7.0174-0.0255-14.251 0.2594-22.437 0.90625-9.4007 1.7098-15.16 7.8179-17.594 16.938l3.6562 44.5c0.92818 2.6954 2.2883 4.7275 4.25 6.5938l24.562 23.688c2.7207 1.809 4.9035 2.2188 6.9062 2.2188s4.2168-0.4097 6.9375-2.2188l24.562-23.688c1.9617-1.8663 3.3218-3.8983 4.25-6.5938l3.6562-44.5c-2.4342-9.1196-8.2243-15.228-17.625-16.938-7.3062-0.54508-14.108-0.88081-21.125-0.90625zm-99.719 76.719c-9.1196 2.4342-15.228 8.193-16.938 17.594-1.2937 16.374-1.0902 28.95 0 43.562 1.7098 9.4007 7.8179 15.191 16.938 17.625l44.5-3.6562c2.6954-0.92818 4.7275-2.2883 6.5938-4.25l23.688-24.562c1.809-2.7207 2.2188-4.9347 2.2188-6.9375s-0.4097-4.1855-2.2188-6.9062l-23.688-24.562c-1.8663-1.9617-3.8983-3.3218-6.5938-4.25l-44.5-3.6562zm197.56 0-44.5 3.6562c-2.6954 0.92818-4.7275 2.2883-6.5938 4.25l-23.688 24.562c-1.809 2.7207-2.2188 4.9347-2.2188 6.9375s0.4097 4.1855 2.2188 6.9062l23.688 24.562c1.8663 1.9617 3.8983 3.3218 6.5938 4.25l44.5 3.6562c9.1196-2.4342 15.228-8.193 16.938-17.594 1.2937-16.374 1.0902-28.95 0-43.562-1.7098-9.4007-7.8179-15.191-16.938-17.625zm-98.5 60.906c-2.0028 0-4.1855 0.4097-6.9062 2.2188l-24.562 23.688c-1.9617 1.8663-3.3218 3.8983-4.25 6.5938l-3.6562 44.5c2.4342 9.1196 8.193 15.228 17.594 16.938 16.374 1.2937 28.95 1.0902 43.562 0 9.4007-1.7098 15.191-7.8179 17.625-16.938l-3.6562-44.5c-0.92818-2.6954-2.2883-4.7275-4.25-6.5938l-24.562-23.688c-2.7207-1.809-4.9347-2.2188-6.9375-2.2188z" color="#000000" fill="#37abc8"/>
  </clipPath>
 </defs>
 <path d="m98.961 39.662c20.1-11.096 43.742-13.192 67.57-3.6857v15.425h-67.57z" color="#000000" fill="#ccc" stroke="#000" stroke-width="1.2"/>
 <path d="m501.04 39.662c-20.1-11.096-43.742-13.192-67.57-3.6857v15.425h67.57z" color="#000000" fill="#ccc" stroke="#000" stroke-width="1.2"/>
 <path d="m135.18 37.685c-15.555-0.0442-30.767 2.9545-41.972 9.1254-6.6386 13.439-24.068 31.411-31.27 60.354-25.706 85.95-32.813 158.57-36.322 202.14 0 33.549 27.188 60.748 60.736 60.748 27.104 0 48.895-15.784 57.404-43.322l24.856-71.379c3.6972-5.8797 12.742-8.2975 18.49-8.9343h225.81c5.748 0.63681 14.792 3.0546 18.49 8.9343l24.856 71.379c8.5092 27.537 30.301 43.322 57.404 43.322 33.549 0 60.736-27.2 60.736-60.748-3.5097-43.574-10.617-116.19-36.322-202.14-7.2021-28.943-24.631-46.916-31.27-60.354-11.205-6.1709-26.417-9.1696-41.972-9.1254-15.555 0.0442-31.462 3.1312-44.038 9.1254h-241.57c-12.576-5.9942-28.483-9.0812-44.038-9.1254z" color="#000000" fill="#ccc" stroke="#000" stroke-width="1.2"/>
 <path d="m135.18 37.685c-15.555-0.0442-30.767 2.9545-41.972 9.1254-6.6386 13.439-24.068 31.411-31.27 60.354-21.436 71.673-29.94 134.08-34.208 178.1-0.15847 19.175 16.434 35.333 51.599 44.755 19.542 5.2364 44.194 8.7011 64.427-3.2847l24.856-71.379c3.6972-5.8797 12.742-8.2975 18.49-8.9343h79.095 67.616 79.095c5.748 0.63681 14.792 3.0546 18.49 8.9343l24.856 71.379c20.234 11.986 44.885 8.521 64.427 3.2847 35.165-9.4226 51.758-25.58 51.599-44.755-4.2685-44.021-12.773-106.43-34.208-178.1-7.2021-28.943-24.631-46.916-31.27-60.354-11.205-6.1709-26.417-9.1696-41.972-9.1254-15.555 0.0442-31.462 3.1311-44.038 9.1254h-86.978-67.616-86.978c-12.576-5.9943-28.483-9.0812-44.038-9.1254z" color="#000000" fill="#ccc" opacity=".5" stroke="#000" stroke-width="1.2"/>
 <path d="m217.5 45.222c-1.9667 0-7.4413 0.44578-7.4413 5.2913v16.28 66.525c0 6.1642 7.0794 11.603 13.244 11.603h157.06c6.1642 0 11.552-5.2971 11.552-11.461v-66.666-16.28c0-4.8455-5.4746-5.2913-7.4413-5.2913h-17.2-132.57z" color="#000000" fill="#ccc" stroke="#000" stroke-width="1.2"/>
 <path d="m217.5 45.222c-0.88458 0-2.4789 0.0929-3.9655 0.63304v19.027 65.359c0 6.0123 4.7614 10.845 10.69 10.845h153.51c5.9286 0 10.702-4.8331 10.702-10.845v-65.359-19.027c-1.4866-0.54016-3.0809-0.63304-3.9655-0.63304h-17.2-132.57-17.2z" color="#000000" fill="#ccc" opacity=".5" stroke="#000" stroke-width="1.2"/>
 <path d="m215.37 61.239v1.8991h1.8872v-1.8991h-1.8872zm4.2163 0v1.8991h1.8991v-1.8991h-1.8991zm4.2163 0v1.8991h1.8991v-1.8991h-1.8991zm4.2283 0v1.8991h1.8991v-1.8991h-1.8991zm4.2163 0v1.8991h1.8991v-1.8991h-1.8991zm4.2283 0v1.8991h1.8991v-1.8991h-1.8991zm4.2283 0v1.8991h1.8872v-1.8991h-1.8872zm4.2163 0v1.8991h1.8991v-1.8991h-1.8991zm4.2283 0v1.8991h1.8872v-1.8991h-1.8872zm4.2163 0v1.8991h1.8991v-1.8991h-1.8991zm4.2283 0v1.8991h1.8991v-1.8991h-1.8991zm4.2163 0v1.8991h1.8991v-1.8991h-1.8991zm4.2283 0v1.8991h1.8991v-1.8991h-1.8991zm4.2163 0v1.8991h1.8991v-1.8991h-1.8991zm4.2283 0v1.8991h1.8991v-1.8991h-1.8991zm4.2283 0v1.8991h1.8872v-1.8991h-1.8872zm4.2163 0v1.8991h1.8991v-1.8991h-1.8991zm4.2283 0v1.8991h1.8872v-1.8991h-1.8872zm4.2163 0v1.8991h1.8991v-1.8991h-1.8991zm4.2283 0v1.8991h1.8991v-1.8991h-1.8991zm4.2163 0v1.8991h1.8991v-1.8991h-1.8991zm4.2283 0v1.8991h1.8991v-1.8991h-1.8991zm4.2163 0v1.8991h1.8991v-1.8991h-1.8991zm4.2283 0v1.8991h1.8991v-1.8991h-1.8991zm4.2283 0v1.8991h1.8872v-1.8991h-1.8872zm4.2163 0v1.8991h1.8991v-1.8991h-1.8991zm4.2283 0v1.8991h1.8872v-1.8991h-1.8872zm4.2163 0v1.8991h1.8991v-1.8991h-1.8991zm4.2283 0v1.8991h1.8991v-1.8991h-1.8991zm4.2163 0v1.8991h1.8991v-1.8991h-1.8991zm4.2283 0v1.8991h1.8991v-1.8991h-1.8991zm4.2163 0v1.8991h1.8991v-1.8991h-1.8991zm4.2283 0v1.8991h1.8991v-1.8991h-1.8991zm4.2283 0v1.8991h1.8872v-1.8991h-1.8872zm4.2163 0v1.8991h1.8991v-1.8991h-1.8991zm4.2283 0v1.8991h1.8872v-1.8991h-1.8872zm4.2163 0v1.8991h1.8991v-1.8991h-1.8991zm4.2283 0v1.8991h1.8991v-1.8991h-1.8991zm4.2163 0v1.8991h1.8991v-1.8991h-1.8991zm4.2283 0v1.8991h1.8991v-1.8991h-1.8991zm4.2163 0v1.8991h1.9111v-1.8991h-1.9111zm-168.9 4.2283v1.8991h1.8872v-1.8991h-1.8872zm4.2163 0v1.8991h1.8991v-1.8991h-1.8991zm4.2163 0v1.8991h1.8991v-1.8991h-1.8991zm4.2283 0v1.8991h1.8991v-1.8991h-1.8991zm4.2163 0v1.8991h1.8991v-1.8991h-1.8991zm4.2283 0v1.8991h1.8991v-1.8991h-1.8991zm4.2283 0v1.8991h1.8872v-1.8991h-1.8872zm4.2163 0v1.8991h1.8991v-1.8991h-1.8991zm4.2283 0v1.8991h1.8872v-1.8991h-1.8872zm4.2163 0v1.8991h1.8991v-1.8991h-1.8991zm4.2283 0v1.8991h1.8991v-1.8991h-1.8991zm4.2163 0v1.8991h1.8991v-1.8991h-1.8991zm4.2283 0v1.8991h1.8991v-1.8991h-1.8991zm4.2163 0v1.8991h1.8991v-1.8991h-1.8991zm4.2283 0v1.8991h1.8991v-1.8991h-1.8991zm4.2283 0v1.8991h1.8872v-1.8991h-1.8872zm4.2163 0v1.8991h1.8991v-1.8991h-1.8991zm4.2283 0v1.8991h1.8872v-1.8991h-1.8872zm4.2163 0v1.8991h1.8991v-1.8991h-1.8991zm4.2283 0v1.8991h1.8991v-1.8991h-1.8991zm4.2163 0v1.8991h1.8991v-1.8991h-1.8991zm4.2283 0v1.8991h1.8991v-1.8991h-1.8991zm4.2163 0v1.8991h1.8991v-1.8991h-1.8991zm4.2283 0v1.8991h1.8991v-1.8991h-1.8991zm4.2283 0v1.8991h1.8872v-1.8991h-1.8872zm4.2163 0v1.8991h1.8991v-1.8991h-1.8991zm4.2283 0v1.8991h1.8872v-1.8991h-1.8872zm4.2163 0v1.8991h1.8991v-1.8991h-1.8991zm4.2283 0v1.8991h1.8991v-1.8991h-1.8991zm4.2163 0v1.8991h1.8991v-1.8991h-1.8991zm4.2283 0v1.8991h1.8991v-1.8991h-1.8991zm4.2163 0v1.8991h1.8991v-1.8991h-1.8991zm4.2283 0v1.8991h1.8991v-1.8991h-1.8991zm4.2283 0v1.8991h1.8872v-1.8991h-1.8872zm4.2163 0v1.8991h1.8991v-1.8991h-1.8991zm4.2283 0v1.8991h1.8872v-1.8991h-1.8872zm4.2163 0v1.8991h1.8991v-1.8991h-1.8991zm4.2283 0v1.8991h1.8991v-1.8991h-1.8991zm4.2163 0v1.8991h1.8991v-1.8991h-1.8991zm4.2283 0v1.8991h1.8991v-1.8991h-1.8991zm4.2163 0v1.8991h1.9111v-1.8991h-1.9111zm-168.9 4.2283v1.8872h1.8872v-1.8872h-1.8872zm4.2163 0v1.8872h1.8991v-1.8872h-1.8991zm4.2163 0v1.8872h1.8991v-1.8872h-1.8991zm4.2283 0v1.8872h1.8991v-1.8872h-1.8991zm4.2163 0v1.8872h1.8991v-1.8872h-1.8991zm4.2283 0v1.8872h1.8991v-1.8872h-1.8991zm4.2283 0v1.8872h1.8872v-1.8872h-1.8872zm4.2163 0v1.8872h1.8991v-1.8872h-1.8991zm4.2283 0v1.8872h1.8872v-1.8872h-1.8872zm4.2163 0v1.8872h1.8991v-1.8872h-1.8991zm4.2283 0v1.8872h1.8991v-1.8872h-1.8991zm4.2163 0v1.8872h1.8991v-1.8872h-1.8991zm4.2283 0v1.8872h1.8991v-1.8872h-1.8991zm4.2163 0v1.8872h1.8991v-1.8872h-1.8991zm4.2283 0v1.8872h1.8991v-1.8872h-1.8991zm4.2283 0v1.8872h1.8872v-1.8872h-1.8872zm4.2163 0v1.8872h1.8991v-1.8872h-1.8991zm4.2283 0v1.8872h1.8872v-1.8872h-1.8872zm4.2163 0v1.8872h1.8991v-1.8872h-1.8991zm4.2283 0v1.8872h1.8991v-1.8872h-1.8991zm4.2163 0v1.8872h1.8991v-1.8872h-1.8991zm4.2283 0v1.8872h1.8991v-1.8872h-1.8991zm4.2163 0v1.8872h1.8991v-1.8872h-1.8991zm4.2283 0v1.8872h1.8991v-1.8872h-1.8991zm4.2283 0v1.8872h1.8872v-1.8872h-1.8872zm4.2163 0v1.8872h1.8991v-1.8872h-1.8991zm4.2283 0v1.8872h1.8872v-1.8872h-1.8872zm4.2163 0v1.8872h1.8991v-1.8872h-1.8991zm4.2283 0v1.8872h1.8991v-1.8872h-1.8991zm4.2163 0v1.8872h1.8991v-1.8872h-1.8991zm4.2283 0v1.8872h1.8991v-1.8872h-1.8991zm4.2163 0v1.8872h1.8991v-1.8872h-1.8991zm4.2283 0v1.8872h1.8991v-1.8872h-1.8991zm4.2283 0v1.8872h1.8872v-1.8872h-1.8872zm4.2163 0v1.8872h1.8991v-1.8872h-1.8991zm4.2283 0v1.8872h1.8872v-1.8872h-1.8872zm4.2163 0v1.8872h1.8991v-1.8872h-1.8991zm4.2283 0v1.8872h1.8991v-1.8872h-1.8991zm4.2163 0v1.8872h1.8991v-1.8872h-1.8991zm4.2283 0v1.8872h1.8991v-1.8872h-1.8991zm4.2163 0v1.8872h1.9111v-1.8872h-1.9111zm-168.9 4.2163v1.8991h1.8872v-1.8991h-1.8872zm4.2163 0v1.8991h1.8991v-1.8991h-1.8991zm4.2163 0v1.8991h1.8991v-1.8991h-1.8991zm4.2283 0v1.8991h1.8991v-1.8991h-1.8991zm4.2163 0v1.8991h1.8991v-1.8991h-1.8991zm4.2283 0v1.8991h1.8991v-1.8991h-1.8991zm4.2283 0v1.8991h1.8872v-1.8991h-1.8872zm4.2163 0v1.8991h1.8991v-1.8991h-1.8991zm4.2283 0v1.8991h1.8872v-1.8991h-1.8872zm4.2163 0v1.8991h1.8991v-1.8991h-1.8991zm4.2283 0v1.8991h1.8991v-1.8991h-1.8991zm4.2163 0v1.8991h1.8991v-1.8991h-1.8991zm4.2283 0v1.8991h1.8991v-1.8991h-1.8991zm4.2163 0v1.8991h1.8991v-1.8991h-1.8991zm4.2283 0v1.8991h1.8991v-1.8991h-1.8991zm4.2283 0v1.8991h1.8872v-1.8991h-1.8872zm4.2163 0v1.8991h1.8991v-1.8991h-1.8991zm4.2283 0v1.8991h1.8872v-1.8991h-1.8872zm4.2163 0v1.8991h1.8991v-1.8991h-1.8991zm4.2283 0v1.8991h1.8991v-1.8991h-1.8991zm4.2163 0v1.8991h1.8991v-1.8991h-1.8991zm4.2283 0v1.8991h1.8991v-1.8991h-1.8991zm4.2163 0v1.8991h1.8991v-1.8991h-1.8991zm4.2283 0v1.8991h1.8991v-1.8991h-1.8991zm4.2283 0v1.8991h1.8872v-1.8991h-1.8872zm4.2163 0v1.8991h1.8991v-1.8991h-1.8991zm4.2283 0v1.8991h1.8872v-1.8991h-1.8872zm4.2163 0v1.8991h1.8991v-1.8991h-1.8991zm4.2283 0v1.8991h1.8991v-1.8991h-1.8991zm4.2163 0v1.8991h1.8991v-1.8991h-1.8991zm4.2283 0v1.8991h1.8991v-1.8991h-1.8991zm4.2163 0v1.8991h1.8991v-1.8991h-1.8991zm4.2283 0v1.8991h1.8991v-1.8991h-1.8991zm4.2283 0v1.8991h1.8872v-1.8991h-1.8872zm4.2163 0v1.8991h1.8991v-1.8991h-1.8991zm4.2283 0v1.8991h1.8872v-1.8991h-1.8872zm4.2163 0v1.8991h1.8991v-1.8991h-1.8991zm4.2283 0v1.8991h1.8991v-1.8991h-1.8991zm4.2163 0v1.8991h1.8991v-1.8991h-1.8991zm4.2283 0v1.8991h1.8991v-1.8991h-1.8991zm4.2163 0v1.8991h1.9111v-1.8991h-1.9111zm-168.9 4.2283v1.8872h1.8872v-1.8872h-1.8872zm4.2163 0v1.8872h1.8991v-1.8872h-1.8991zm4.2163 0v1.8872h1.8991v-1.8872h-1.8991zm4.2283 0v1.8872h1.8991v-1.8872h-1.8991zm4.2163 0v1.8872h1.8991v-1.8872h-1.8991zm4.2283 0v1.8872h1.8991v-1.8872h-1.8991zm4.2283 0v1.8872h1.8872v-1.8872h-1.8872zm4.2163 0v1.8872h1.8991v-1.8872h-1.8991zm4.2283 0v1.8872h1.8872v-1.8872h-1.8872zm4.2163 0v1.8872h1.8991v-1.8872h-1.8991zm4.2283 0v1.8872h1.8991v-1.8872h-1.8991zm4.2163 0v1.8872h1.8991v-1.8872h-1.8991zm4.2283 0v1.8872h1.8991v-1.8872h-1.8991zm4.2163 0v1.8872h1.8991v-1.8872h-1.8991zm4.2283 0v1.8872h1.8991v-1.8872h-1.8991zm4.2283 0v1.8872h1.8872v-1.8872h-1.8872zm4.2163 0v1.8872h1.8991v-1.8872h-1.8991zm4.2283 0v1.8872h1.8872v-1.8872h-1.8872zm4.2163 0v1.8872h1.8991v-1.8872h-1.8991zm4.2283 0v1.8872h1.8991v-1.8872h-1.8991zm4.2163 0v1.8872h1.8991v-1.8872h-1.8991zm4.2283 0v1.8872h1.8991v-1.8872h-1.8991zm4.2163 0v1.8872h1.8991v-1.8872h-1.8991zm4.2283 0v1.8872h1.8991v-1.8872h-1.8991zm4.2283 0v1.8872h1.8872v-1.8872h-1.8872zm4.2163 0v1.8872h1.8991v-1.8872h-1.8991zm4.2283 0v1.8872h1.8872v-1.8872h-1.8872zm4.2163 0v1.8872h1.8991v-1.8872h-1.8991zm4.2283 0v1.8872h1.8991v-1.8872h-1.8991zm4.2163 0v1.8872h1.8991v-1.8872h-1.8991zm4.2283 0v1.8872h1.8991v-1.8872h-1.8991zm4.2163 0v1.8872h1.8991v-1.8872h-1.8991zm4.2283 0v1.8872h1.8991v-1.8872h-1.8991zm4.2283 0v1.8872h1.8872v-1.8872h-1.8872zm4.2163 0v1.8872h1.8991v-1.8872h-1.8991zm4.2283 0v1.8872h1.8872v-1.8872h-1.8872zm4.2163 0v1.8872h1.8991v-1.8872h-1.8991zm4.2283 0v1.8872h1.8991v-1.8872h-1.8991zm4.2163 0v1.8872h1.8991v-1.8872h-1.8991zm4.2283 0v1.8872h1.8991v-1.8872h-1.8991zm4.2163 0v1.8872h1.9111v-1.8872h-1.9111zm-168.9 4.2163v1.8991h1.8872v-1.8991h-1.8872zm4.2163 0v1.8991h1.8991v-1.8991h-1.8991zm4.2163 0v1.8991h1.8991v-1.8991h-1.8991zm4.2283 0v1.8991h1.8991v-1.8991h-1.8991zm4.2163 0v1.8991h1.8991v-1.8991h-1.8991zm4.2283 0v1.8991h1.8991v-1.8991h-1.8991zm4.2283 0v1.8991h1.8872v-1.8991h-1.8872zm4.2163 0v1.8991h1.8991v-1.8991h-1.8991zm4.2283 0v1.8991h1.8872v-1.8991h-1.8872zm4.2163 0v1.8991h1.8991v-1.8991h-1.8991zm4.2283 0v1.8991h1.8991v-1.8991h-1.8991zm4.2163 0v1.8991h1.8991v-1.8991h-1.8991zm4.2283 0v1.8991h1.8991v-1.8991h-1.8991zm4.2163 0v1.8991h1.8991v-1.8991h-1.8991zm4.2283 0v1.8991h1.8991v-1.8991h-1.8991zm4.2283 0v1.8991h1.8872v-1.8991h-1.8872zm4.2163 0v1.8991h1.8991v-1.8991h-1.8991zm4.2283 0v1.8991h1.8872v-1.8991h-1.8872zm4.2163 0v1.8991h1.8991v-1.8991h-1.8991zm4.2283 0v1.8991h1.8991v-1.8991h-1.8991zm4.2163 0v1.8991h1.8991v-1.8991h-1.8991zm4.2283 0v1.8991h1.8991v-1.8991h-1.8991zm4.2163 0v1.8991h1.8991v-1.8991h-1.8991zm4.2283 0v1.8991h1.8991v-1.8991h-1.8991zm4.2283 0v1.8991h1.8872v-1.8991h-1.8872zm4.2163 0v1.8991h1.8991v-1.8991h-1.8991zm4.2283 0v1.8991h1.8872v-1.8991h-1.8872zm4.2163 0v1.8991h1.8991v-1.8991h-1.8991zm4.2283 0v1.8991h1.8991v-1.8991h-1.8991zm4.2163 0v1.8991h1.8991v-1.8991h-1.8991zm4.2283 0v1.8991h1.8991v-1.8991h-1.8991zm4.2163 0v1.8991h1.8991v-1.8991h-1.8991zm4.2283 0v1.8991h1.8991v-1.8991h-1.8991zm4.2283 0v1.8991h1.8872v-1.8991h-1.8872zm4.2163 0v1.8991h1.8991v-1.8991h-1.8991zm4.2283 0v1.8991h1.8872v-1.8991h-1.8872zm4.2163 0v1.8991h1.8991v-1.8991h-1.8991zm4.2283 0v1.8991h1.8991v-1.8991h-1.8991zm4.2163 0v1.8991h1.8991v-1.8991h-1.8991zm4.2283 0v1.8991h1.8991v-1.8991h-1.8991zm4.2163 0v1.8991h1.9111v-1.8991h-1.9111zm-168.9 4.2283v1.8991h1.8872v-1.8991h-1.8872zm4.2163 0v1.8991h1.8991v-1.8991h-1.8991zm4.2163 0v1.8991h1.8991v-1.8991h-1.8991zm4.2283 0v1.8991h1.8991v-1.8991h-1.8991zm4.2163 0v1.8991h1.8991v-1.8991h-1.8991zm4.2283 0v1.8991h1.8991v-1.8991h-1.8991zm4.2283 0v1.8991h1.8872v-1.8991h-1.8872zm4.2163 0v1.8991h1.8991v-1.8991h-1.8991zm4.2283 0v1.8991h1.8872v-1.8991h-1.8872zm4.2163 0v1.8991h1.8991v-1.8991h-1.8991zm4.2283 0v1.8991h1.8991v-1.8991h-1.8991zm4.2163 0v1.8991h1.8991v-1.8991h-1.8991zm4.2283 0v1.8991h1.8991v-1.8991h-1.8991zm4.2163 0v1.8991h1.8991v-1.8991h-1.8991zm4.2283 0v1.8991h1.8991v-1.8991h-1.8991zm4.2283 0v1.8991h1.8872v-1.8991h-1.8872zm4.2163 0v1.8991h1.8991v-1.8991h-1.8991zm4.2283 0v1.8991h1.8872v-1.8991h-1.8872zm4.2163 0v1.8991h1.8991v-1.8991h-1.8991zm4.2283 0v1.8991h1.8991v-1.8991h-1.8991zm4.2163 0v1.8991h1.8991v-1.8991h-1.8991zm4.2283 0v1.8991h1.8991v-1.8991h-1.8991zm4.2163 0v1.8991h1.8991v-1.8991h-1.8991zm4.2283 0v1.8991h1.8991v-1.8991h-1.8991zm4.2283 0v1.8991h1.8872v-1.8991h-1.8872zm4.2163 0v1.8991h1.8991v-1.8991h-1.8991zm4.2283 0v1.8991h1.8872v-1.8991h-1.8872zm4.2163 0v1.8991h1.8991v-1.8991h-1.8991zm4.2283 0v1.8991h1.8991v-1.8991h-1.8991zm4.2163 0v1.8991h1.8991v-1.8991h-1.8991zm4.2283 0v1.8991h1.8991v-1.8991h-1.8991zm4.2163 0v1.8991h1.8991v-1.8991h-1.8991zm4.2283 0v1.8991h1.8991v-1.8991h-1.8991zm4.2283 0v1.8991h1.8872v-1.8991h-1.8872zm4.2163 0v1.8991h1.8991v-1.8991h-1.8991zm4.2283 0v1.8991h1.8872v-1.8991h-1.8872zm4.2163 0v1.8991h1.8991v-1.8991h-1.8991zm4.2283 0v1.8991h1.8991v-1.8991h-1.8991zm4.2163 0v1.8991h1.8991v-1.8991h-1.8991zm4.2283 0v1.8991h1.8991v-1.8991h-1.8991zm4.2163 0v1.8991h1.9111v-1.8991h-1.9111zm-168.9 4.2163v1.8991h1.8872v-1.8991h-1.8872zm4.2163 0v1.8991h1.8991v-1.8991h-1.8991zm4.2163 0v1.8991h1.8991v-1.8991h-1.8991zm4.2283 0v1.8991h1.8991v-1.8991h-1.8991zm4.2163 0v1.8991h1.8991v-1.8991h-1.8991zm4.2283 0v1.8991h1.8991v-1.8991h-1.8991zm4.2283 0v1.8991h1.8872v-1.8991h-1.8872zm4.2163 0v1.8991h1.8991v-1.8991h-1.8991zm4.2283 0v1.8991h1.8872v-1.8991h-1.8872zm4.2163 0v1.8991h1.8991v-1.8991h-1.8991zm4.2283 0v1.8991h1.8991v-1.8991h-1.8991zm4.2163 0v1.8991h1.8991v-1.8991h-1.8991zm4.2283 0v1.8991h1.8991v-1.8991h-1.8991zm4.2163 0v1.8991h1.8991v-1.8991h-1.8991zm4.2283 0v1.8991h1.8991v-1.8991h-1.8991zm4.2283 0v1.8991h1.8872v-1.8991h-1.8872zm4.2163 0v1.8991h1.8991v-1.8991h-1.8991zm4.2283 0v1.8991h1.8872v-1.8991h-1.8872zm4.2163 0v1.8991h1.8991v-1.8991h-1.8991zm4.2283 0v1.8991h1.8991v-1.8991h-1.8991zm4.2163 0v1.8991h1.8991v-1.8991h-1.8991zm4.2283 0v1.8991h1.8991v-1.8991h-1.8991zm4.2163 0v1.8991h1.8991v-1.8991h-1.8991zm4.2283 0v1.8991h1.8991v-1.8991h-1.8991zm4.2283 0v1.8991h1.8872v-1.8991h-1.8872zm4.2163 0v1.8991h1.8991v-1.8991h-1.8991zm4.2283 0v1.8991h1.8872v-1.8991h-1.8872zm4.2163 0v1.8991h1.8991v-1.8991h-1.8991zm4.2283 0v1.8991h1.8991v-1.8991h-1.8991zm4.2163 0v1.8991h1.8991v-1.8991h-1.8991zm4.2283 0v1.8991h1.8991v-1.8991h-1.8991zm4.2163 0v1.8991h1.8991v-1.8991h-1.8991zm4.2283 0v1.8991h1.8991v-1.8991h-1.8991zm4.2283 0v1.8991h1.8872v-1.8991h-1.8872zm4.2163 0v1.8991h1.8991v-1.8991h-1.8991zm4.2283 0v1.8991h1.8872v-1.8991h-1.8872zm4.2163 0v1.8991h1.8991v-1.8991h-1.8991zm4.2283 0v1.8991h1.8991v-1.8991h-1.8991zm4.2163 0v1.8991h1.8991v-1.8991h-1.8991zm4.2283 0v1.8991h1.8991v-1.8991h-1.8991zm4.2163 0v1.8991h1.9111v-1.8991h-1.9111zm-168.9 4.2283v1.8991h1.8872v-1.8991h-1.8872zm4.2163 0v1.8991h1.8991v-1.8991h-1.8991zm4.2163 0v1.8991h1.8991v-1.8991h-1.8991zm4.2283 0v1.8991h1.8991v-1.8991h-1.8991zm4.2163 0v1.8991h1.8991v-1.8991h-1.8991zm4.2283 0v1.8991h1.8991v-1.8991h-1.8991zm4.2283 0v1.8991h1.8872v-1.8991h-1.8872zm4.2163 0v1.8991h1.8991v-1.8991h-1.8991zm4.2283 0v1.8991h1.8872v-1.8991h-1.8872zm4.2163 0v1.8991h1.8991v-1.8991h-1.8991zm4.2283 0v1.8991h1.8991v-1.8991h-1.8991zm4.2163 0v1.8991h1.8991v-1.8991h-1.8991zm4.2283 0v1.8991h1.8991v-1.8991h-1.8991zm4.2163 0v1.8991h1.8991v-1.8991h-1.8991zm4.2283 0v1.8991h1.8991v-1.8991h-1.8991zm4.2283 0v1.8991h1.8872v-1.8991h-1.8872zm4.2163 0v1.8991h1.8991v-1.8991h-1.8991zm4.2283 0v1.8991h1.8872v-1.8991h-1.8872zm4.2163 0v1.8991h1.8991v-1.8991h-1.8991zm4.2283 0v1.8991h1.8991v-1.8991h-1.8991zm4.2163 0v1.8991h1.8991v-1.8991h-1.8991zm4.2283 0v1.8991h1.8991v-1.8991h-1.8991zm4.2163 0v1.8991h1.8991v-1.8991h-1.8991zm4.2283 0v1.8991h1.8991v-1.8991h-1.8991zm4.2283 0v1.8991h1.8872v-1.8991h-1.8872zm4.2163 0v1.8991h1.8991v-1.8991h-1.8991zm4.2283 0v1.8991h1.8872v-1.8991h-1.8872zm4.2163 0v1.8991h1.8991v-1.8991h-1.8991zm4.2283 0v1.8991h1.8991v-1.8991h-1.8991zm4.2163 0v1.8991h1.8991v-1.8991h-1.8991zm4.2283 0v1.8991h1.8991v-1.8991h-1.8991zm4.2163 0v1.8991h1.8991v-1.8991h-1.8991zm4.2283 0v1.8991h1.8991v-1.8991h-1.8991zm4.2283 0v1.8991h1.8872v-1.8991h-1.8872zm4.2163 0v1.8991h1.8991v-1.8991h-1.8991zm4.2283 0v1.8991h1.8872v-1.8991h-1.8872zm4.2163 0v1.8991h1.8991v-1.8991h-1.8991zm4.2283 0v1.8991h1.8991v-1.8991h-1.8991zm4.2163 0v1.8991h1.8991v-1.8991h-1.8991zm4.2283 0v1.8991h1.8991v-1.8991h-1.8991zm4.2163 0v1.8991h1.9111v-1.8991h-1.9111zm-168.9 4.2163v1.8991h1.8872v-1.8991h-1.8872zm4.2163 0v1.8991h1.8991v-1.8991h-1.8991zm4.2163 0v1.8991h1.8991v-1.8991h-1.8991zm4.2283 0v1.8991h1.8991v-1.8991h-1.8991zm4.2163 0v1.8991h1.8991v-1.8991h-1.8991zm4.2283 0v1.8991h1.8991v-1.8991h-1.8991zm4.2283 0v1.8991h1.8872v-1.8991h-1.8872zm4.2163 0v1.8991h1.8991v-1.8991h-1.8991zm4.2283 0v1.8991h1.8872v-1.8991h-1.8872zm4.2163 0v1.8991h1.8991v-1.8991h-1.8991zm4.2283 0v1.8991h1.8991v-1.8991h-1.8991zm4.2163 0v1.8991h1.8991v-1.8991h-1.8991zm4.2283 0v1.8991h1.8991v-1.8991h-1.8991zm4.2163 0v1.8991h1.8991v-1.8991h-1.8991zm4.2283 0v1.8991h1.8991v-1.8991h-1.8991zm4.2283 0v1.8991h1.8872v-1.8991h-1.8872zm4.2163 0v1.8991h1.8991v-1.8991h-1.8991zm4.2283 0v1.8991h1.8872v-1.8991h-1.8872zm4.2163 0v1.8991h1.8991v-1.8991h-1.8991zm4.2283 0v1.8991h1.8991v-1.8991h-1.8991zm4.2163 0v1.8991h1.8991v-1.8991h-1.8991zm4.2283 0v1.8991h1.8991v-1.8991h-1.8991zm4.2163 0v1.8991h1.8991v-1.8991h-1.8991zm4.2283 0v1.8991h1.8991v-1.8991h-1.8991zm4.2283 0v1.8991h1.8872v-1.8991h-1.8872zm4.2163 0v1.8991h1.8991v-1.8991h-1.8991zm4.2283 0v1.8991h1.8872v-1.8991h-1.8872zm4.2163 0v1.8991h1.8991v-1.8991h-1.8991zm4.2283 0v1.8991h1.8991v-1.8991h-1.8991zm4.2163 0v1.8991h1.8991v-1.8991h-1.8991zm4.2283 0v1.8991h1.8991v-1.8991h-1.8991zm4.2163 0v1.8991h1.8991v-1.8991h-1.8991zm4.2283 0v1.8991h1.8991v-1.8991h-1.8991zm4.2283 0v1.8991h1.8872v-1.8991h-1.8872zm4.2163 0v1.8991h1.8991v-1.8991h-1.8991zm4.2283 0v1.8991h1.8872v-1.8991h-1.8872zm4.2163 0v1.8991h1.8991v-1.8991h-1.8991zm4.2283 0v1.8991h1.8991v-1.8991h-1.8991zm4.2163 0v1.8991h1.8991v-1.8991h-1.8991zm4.2283 0v1.8991h1.8991v-1.8991h-1.8991zm4.2163 0v1.8991h1.9111v-1.8991h-1.9111zm-168.9 4.2283v1.8991h1.8872v-1.8991h-1.8872zm4.2163 0v1.8991h1.8991v-1.8991h-1.8991zm4.2163 0v1.8991h1.8991v-1.8991h-1.8991zm4.2283 0v1.8991h1.8991v-1.8991h-1.8991zm4.2163 0v1.8991h1.8991v-1.8991h-1.8991zm4.2283 0v1.8991h1.8991v-1.8991h-1.8991zm4.2283 0v1.8991h1.8872v-1.8991h-1.8872zm4.2163 0v1.8991h1.8991v-1.8991h-1.8991zm4.2283 0v1.8991h1.8872v-1.8991h-1.8872zm4.2163 0v1.8991h1.8991v-1.8991h-1.8991zm4.2283 0v1.8991h1.8991v-1.8991h-1.8991zm4.2163 0v1.8991h1.8991v-1.8991h-1.8991zm4.2283 0v1.8991h1.8991v-1.8991h-1.8991zm4.2163 0v1.8991h1.8991v-1.8991h-1.8991zm4.2283 0v1.8991h1.8991v-1.8991h-1.8991zm4.2283 0v1.8991h1.8872v-1.8991h-1.8872zm4.2163 0v1.8991h1.8991v-1.8991h-1.8991zm4.2283 0v1.8991h1.8872v-1.8991h-1.8872zm4.2163 0v1.8991h1.8991v-1.8991h-1.8991zm4.2283 0v1.8991h1.8991v-1.8991h-1.8991zm4.2163 0v1.8991h1.8991v-1.8991h-1.8991zm4.2283 0v1.8991h1.8991v-1.8991h-1.8991zm4.2163 0v1.8991h1.8991v-1.8991h-1.8991zm4.2283 0v1.8991h1.8991v-1.8991h-1.8991zm4.2283 0v1.8991h1.8872v-1.8991h-1.8872zm4.2163 0v1.8991h1.8991v-1.8991h-1.8991zm4.2283 0v1.8991h1.8872v-1.8991h-1.8872zm4.2163 0v1.8991h1.8991v-1.8991h-1.8991zm4.2283 0v1.8991h1.8991v-1.8991h-1.8991zm4.2163 0v1.8991h1.8991v-1.8991h-1.8991zm4.2283 0v1.8991h1.8991v-1.8991h-1.8991zm4.2163 0v1.8991h1.8991v-1.8991h-1.8991zm4.2283 0v1.8991h1.8991v-1.8991h-1.8991zm4.2283 0v1.8991h1.8872v-1.8991h-1.8872zm4.2163 0v1.8991h1.8991v-1.8991h-1.8991zm4.2283 0v1.8991h1.8872v-1.8991h-1.8872zm4.2163 0v1.8991h1.8991v-1.8991h-1.8991zm4.2283 0v1.8991h1.8991v-1.8991h-1.8991zm4.2163 0v1.8991h1.8991v-1.8991h-1.8991zm4.2283 0v1.8991h1.8991v-1.8991h-1.8991zm4.2163 0v1.8991h1.9111v-1.8991h-1.9111zm-168.9 4.2283v1.8872h1.8872v-1.8872h-1.8872zm4.2163 0v1.8872h1.8991v-1.8872h-1.8991zm4.2163 0v1.8872h1.8991v-1.8872h-1.8991zm4.2283 0v1.8872h1.8991v-1.8872h-1.8991zm4.2163 0v1.8872h1.8991v-1.8872h-1.8991zm4.2283 0v1.8872h1.8991v-1.8872h-1.8991zm4.2283 0v1.8872h1.8872v-1.8872h-1.8872zm4.2163 0v1.8872h1.8991v-1.8872h-1.8991zm4.2283 0v1.8872h1.8872v-1.8872h-1.8872zm4.2163 0v1.8872h1.8991v-1.8872h-1.8991zm4.2283 0v1.8872h1.8991v-1.8872h-1.8991zm4.2163 0v1.8872h1.8991v-1.8872h-1.8991zm4.2283 0v1.8872h1.8991v-1.8872h-1.8991zm4.2163 0v1.8872h1.8991v-1.8872h-1.8991zm4.2283 0v1.8872h1.8991v-1.8872h-1.8991zm4.2283 0v1.8872h1.8872v-1.8872h-1.8872zm4.2163 0v1.8872h1.8991v-1.8872h-1.8991zm4.2283 0v1.8872h1.8872v-1.8872h-1.8872zm4.2163 0v1.8872h1.8991v-1.8872h-1.8991zm4.2283 0v1.8872h1.8991v-1.8872h-1.8991zm4.2163 0v1.8872h1.8991v-1.8872h-1.8991zm4.2283 0v1.8872h1.8991v-1.8872h-1.8991zm4.2163 0v1.8872h1.8991v-1.8872h-1.8991zm4.2283 0v1.8872h1.8991v-1.8872h-1.8991zm4.2283 0v1.8872h1.8872v-1.8872h-1.8872zm4.2163 0v1.8872h1.8991v-1.8872h-1.8991zm4.2283 0v1.8872h1.8872v-1.8872h-1.8872zm4.2163 0v1.8872h1.8991v-1.8872h-1.8991zm4.2283 0v1.8872h1.8991v-1.8872h-1.8991zm4.2163 0v1.8872h1.8991v-1.8872h-1.8991zm4.2283 0v1.8872h1.8991v-1.8872h-1.8991zm4.2163 0v1.8872h1.8991v-1.8872h-1.8991zm4.2283 0v1.8872h1.8991v-1.8872h-1.8991zm4.2283 0v1.8872h1.8872v-1.8872h-1.8872zm4.2163 0v1.8872h1.8991v-1.8872h-1.8991zm4.2283 0v1.8872h1.8872v-1.8872h-1.8872zm4.2163 0v1.8872h1.8991v-1.8872h-1.8991zm4.2283 0v1.8872h1.8991v-1.8872h-1.8991zm4.2163 0v1.8872h1.8991v-1.8872h-1.8991zm4.2283 0v1.8872h1.8991v-1.8872h-1.8991zm4.2163 0v1.8872h1.9111v-1.8872h-1.9111zm-168.9 4.2163v1.8991h1.8872v-1.8991h-1.8872zm4.2163 0v1.8991h1.8991v-1.8991h-1.8991zm4.2163 0v1.8991h1.8991v-1.8991h-1.8991zm4.2283 0v1.8991h1.8991v-1.8991h-1.8991zm4.2163 0v1.8991h1.8991v-1.8991h-1.8991zm4.2283 0v1.8991h1.8991v-1.8991h-1.8991zm4.2283 0v1.8991h1.8872v-1.8991h-1.8872zm4.2163 0v1.8991h1.8991v-1.8991h-1.8991zm4.2283 0v1.8991h1.8872v-1.8991h-1.8872zm4.2163 0v1.8991h1.8991v-1.8991h-1.8991zm4.2283 0v1.8991h1.8991v-1.8991h-1.8991zm4.2163 0v1.8991h1.8991v-1.8991h-1.8991zm4.2283 0v1.8991h1.8991v-1.8991h-1.8991zm4.2163 0v1.8991h1.8991v-1.8991h-1.8991zm4.2283 0v1.8991h1.8991v-1.8991h-1.8991zm4.2283 0v1.8991h1.8872v-1.8991h-1.8872zm4.2163 0v1.8991h1.8991v-1.8991h-1.8991zm4.2283 0v1.8991h1.8872v-1.8991h-1.8872zm4.2163 0v1.8991h1.8991v-1.8991h-1.8991zm4.2283 0v1.8991h1.8991v-1.8991h-1.8991zm4.2163 0v1.8991h1.8991v-1.8991h-1.8991zm4.2283 0v1.8991h1.8991v-1.8991h-1.8991zm4.2163 0v1.8991h1.8991v-1.8991h-1.8991zm4.2283 0v1.8991h1.8991v-1.8991h-1.8991zm4.2283 0v1.8991h1.8872v-1.8991h-1.8872zm4.2163 0v1.8991h1.8991v-1.8991h-1.8991zm4.2283 0v1.8991h1.8872v-1.8991h-1.8872zm4.2163 0v1.8991h1.8991v-1.8991h-1.8991zm4.2283 0v1.8991h1.8991v-1.8991h-1.8991zm4.2163 0v1.8991h1.8991v-1.8991h-1.8991zm4.2283 0v1.8991h1.8991v-1.8991h-1.8991zm4.2163 0v1.8991h1.8991v-1.8991h-1.8991zm4.2283 0v1.8991h1.8991v-1.8991h-1.8991zm4.2283 0v1.8991h1.8872v-1.8991h-1.8872zm4.2163 0v1.8991h1.8991v-1.8991h-1.8991zm4.2283 0v1.8991h1.8872v-1.8991h-1.8872zm4.2163 0v1.8991h1.8991v-1.8991h-1.8991zm4.2283 0v1.8991h1.8991v-1.8991h-1.8991zm4.2163 0v1.8991h1.8991v-1.8991h-1.8991zm4.2283 0v1.8991h1.8991v-1.8991h-1.8991zm4.2163 0v1.8991h1.9111v-1.8991h-1.9111zm-168.9 4.2283v1.8872h1.8872v-1.8872h-1.8872zm4.2163 0v1.8872h1.8991v-1.8872h-1.8991zm4.2163 0v1.8872h1.8991v-1.8872h-1.8991zm4.2283 0v1.8872h1.8991v-1.8872h-1.8991zm4.2163 0v1.8872h1.8991v-1.8872h-1.8991zm4.2283 0v1.8872h1.8991v-1.8872h-1.8991zm4.2283 0v1.8872h1.8872v-1.8872h-1.8872zm4.2163 0v1.8872h1.8991v-1.8872h-1.8991zm4.2283 0v1.8872h1.8872v-1.8872h-1.8872zm4.2163 0v1.8872h1.8991v-1.8872h-1.8991zm4.2283 0v1.8872h1.8991v-1.8872h-1.8991zm4.2163 0v1.8872h1.8991v-1.8872h-1.8991zm4.2283 0v1.8872h1.8991v-1.8872h-1.8991zm4.2163 0v1.8872h1.8991v-1.8872h-1.8991zm4.2283 0v1.8872h1.8991v-1.8872h-1.8991zm4.2283 0v1.8872h1.8872v-1.8872h-1.8872zm4.2163 0v1.8872h1.8991v-1.8872h-1.8991zm4.2283 0v1.8872h1.8872v-1.8872h-1.8872zm4.2163 0v1.8872h1.8991v-1.8872h-1.8991zm4.2283 0v1.8872h1.8991v-1.8872h-1.8991zm4.2163 0v1.8872h1.8991v-1.8872h-1.8991zm4.2283 0v1.8872h1.8991v-1.8872h-1.8991zm4.2163 0v1.8872h1.8991v-1.8872h-1.8991zm4.2283 0v1.8872h1.8991v-1.8872h-1.8991zm4.2283 0v1.8872h1.8872v-1.8872h-1.8872zm4.2163 0v1.8872h1.8991v-1.8872h-1.8991zm4.2283 0v1.8872h1.8872v-1.8872h-1.8872zm4.2163 0v1.8872h1.8991v-1.8872h-1.8991zm4.2283 0v1.8872h1.8991v-1.8872h-1.8991zm4.2163 0v1.8872h1.8991v-1.8872h-1.8991zm4.2283 0v1.8872h1.8991v-1.8872h-1.8991zm4.2163 0v1.8872h1.8991v-1.8872h-1.8991zm4.2283 0v1.8872h1.8991v-1.8872h-1.8991zm4.2283 0v1.8872h1.8872v-1.8872h-1.8872zm4.2163 0v1.8872h1.8991v-1.8872h-1.8991zm4.2283 0v1.8872h1.8872v-1.8872h-1.8872zm4.2163 0v1.8872h1.8991v-1.8872h-1.8991zm4.2283 0v1.8872h1.8991v-1.8872h-1.8991zm4.2163 0v1.8872h1.8991v-1.8872h-1.8991zm4.2283 0v1.8872h1.8991v-1.8872h-1.8991zm4.2163 0v1.8872h1.9111v-1.8872h-1.9111zm-168.9 4.2163v1.8991h1.8872v-1.8991h-1.8872zm4.2163 0v1.8991h1.8991v-1.8991h-1.8991zm4.2163 0v1.8991h1.8991v-1.8991h-1.8991zm4.2283 0v1.8991h1.8991v-1.8991h-1.8991zm4.2163 0v1.8991h1.8991v-1.8991h-1.8991zm4.2283 0v1.8991h1.8991v-1.8991h-1.8991zm4.2283 0v1.8991h1.8872v-1.8991h-1.8872zm4.2163 0v1.8991h1.8991v-1.8991h-1.8991zm4.2283 0v1.8991h1.8872v-1.8991h-1.8872zm4.2163 0v1.8991h1.8991v-1.8991h-1.8991zm4.2283 0v1.8991h1.8991v-1.8991h-1.8991zm4.2163 0v1.8991h1.8991v-1.8991h-1.8991zm4.2283 0v1.8991h1.8991v-1.8991h-1.8991zm4.2163 0v1.8991h1.8991v-1.8991h-1.8991zm4.2283 0v1.8991h1.8991v-1.8991h-1.8991zm4.2283 0v1.8991h1.8872v-1.8991h-1.8872zm4.2163 0v1.8991h1.8991v-1.8991h-1.8991zm4.2283 0v1.8991h1.8872v-1.8991h-1.8872zm4.2163 0v1.8991h1.8991v-1.8991h-1.8991zm4.2283 0v1.8991h1.8991v-1.8991h-1.8991zm4.2163 0v1.8991h1.8991v-1.8991h-1.8991zm4.2283 0v1.8991h1.8991v-1.8991h-1.8991zm4.2163 0v1.8991h1.8991v-1.8991h-1.8991zm4.2283 0v1.8991h1.8991v-1.8991h-1.8991zm4.2283 0v1.8991h1.8872v-1.8991h-1.8872zm4.2163 0v1.8991h1.8991v-1.8991h-1.8991zm4.2283 0v1.8991h1.8872v-1.8991h-1.8872zm4.2163 0v1.8991h1.8991v-1.8991h-1.8991zm4.2283 0v1.8991h1.8991v-1.8991h-1.8991zm4.2163 0v1.8991h1.8991v-1.8991h-1.8991zm4.2283 0v1.8991h1.8991v-1.8991h-1.8991zm4.2163 0v1.8991h1.8991v-1.8991h-1.8991zm4.2283 0v1.8991h1.8991v-1.8991h-1.8991zm4.2283 0v1.8991h1.8872v-1.8991h-1.8872zm4.2163 0v1.8991h1.8991v-1.8991h-1.8991zm4.2283 0v1.8991h1.8872v-1.8991h-1.8872zm4.2163 0v1.8991h1.8991v-1.8991h-1.8991zm4.2283 0v1.8991h1.8991v-1.8991h-1.8991zm4.2163 0v1.8991h1.8991v-1.8991h-1.8991zm4.2283 0v1.8991h1.8991v-1.8991h-1.8991zm4.2163 0v1.8991h1.9111v-1.8991h-1.9111zm-168.9 4.2283v1.8991h1.8872v-1.8991h-1.8872zm4.2163 0v1.8991h1.8991v-1.8991h-1.8991zm4.2163 0v1.8991h1.8991v-1.8991h-1.8991zm4.2283 0v1.8991h1.8991v-1.8991h-1.8991zm4.2163 0v1.8991h1.8991v-1.8991h-1.8991zm4.2283 0v1.8991h1.8991v-1.8991h-1.8991zm4.2283 0v1.8991h1.8872v-1.8991h-1.8872zm4.2163 0v1.8991h1.8991v-1.8991h-1.8991zm4.2283 0v1.8991h1.8872v-1.8991h-1.8872zm4.2163 0v1.8991h1.8991v-1.8991h-1.8991zm4.2283 0v1.8991h1.8991v-1.8991h-1.8991zm4.2163 0v1.8991h1.8991v-1.8991h-1.8991zm4.2283 0v1.8991h1.8991v-1.8991h-1.8991zm4.2163 0v1.8991h1.8991v-1.8991h-1.8991zm4.2283 0v1.8991h1.8991v-1.8991h-1.8991zm4.2283 0v1.8991h1.8872v-1.8991h-1.8872zm4.2163 0v1.8991h1.8991v-1.8991h-1.8991zm4.2283 0v1.8991h1.8872v-1.8991h-1.8872zm4.2163 0v1.8991h1.8991v-1.8991h-1.8991zm4.2283 0v1.8991h1.8991v-1.8991h-1.8991zm4.2163 0v1.8991h1.8991v-1.8991h-1.8991zm4.2283 0v1.8991h1.8991v-1.8991h-1.8991zm4.2163 0v1.8991h1.8991v-1.8991h-1.8991zm4.2283 0v1.8991h1.8991v-1.8991h-1.8991zm4.2283 0v1.8991h1.8872v-1.8991h-1.8872zm4.2163 0v1.8991h1.8991v-1.8991h-1.8991zm4.2283 0v1.8991h1.8872v-1.8991h-1.8872zm4.2163 0v1.8991h1.8991v-1.8991h-1.8991zm4.2283 0v1.8991h1.8991v-1.8991h-1.8991zm4.2163 0v1.8991h1.8991v-1.8991h-1.8991zm4.2283 0v1.8991h1.8991v-1.8991h-1.8991zm4.2163 0v1.8991h1.8991v-1.8991h-1.8991zm4.2283 0v1.8991h1.8991v-1.8991h-1.8991zm4.2283 0v1.8991h1.8872v-1.8991h-1.8872zm4.2163 0v1.8991h1.8991v-1.8991h-1.8991zm4.2283 0v1.8991h1.8872v-1.8991h-1.8872zm4.2163 0v1.8991h1.8991v-1.8991h-1.8991zm4.2283 0v1.8991h1.8991v-1.8991h-1.8991zm4.2163 0v1.8991h1.8991v-1.8991h-1.8991zm4.2283 0v1.8991h1.8991v-1.8991h-1.8991zm4.2163 0v1.8991h1.9111v-1.8991h-1.9111zm-168.9 4.2163v1.8991h1.8872v-1.8991h-1.8872zm4.2163 0v1.8991h1.8991v-1.8991h-1.8991zm4.2163 0v1.8991h1.8991v-1.8991h-1.8991zm4.2283 0v1.8991h1.8991v-1.8991h-1.8991zm4.2163 0v1.8991h1.8991v-1.8991h-1.8991zm4.2283 0v1.8991h1.8991v-1.8991h-1.8991zm4.2283 0v1.8991h1.8872v-1.8991h-1.8872zm4.2163 0v1.8991h1.8991v-1.8991h-1.8991zm4.2283 0v1.8991h1.8872v-1.8991h-1.8872zm4.2163 0v1.8991h1.8991v-1.8991h-1.8991zm4.2283 0v1.8991h1.8991v-1.8991h-1.8991zm4.2163 0v1.8991h1.8991v-1.8991h-1.8991zm4.2283 0v1.8991h1.8991v-1.8991h-1.8991zm4.2163 0v1.8991h1.8991v-1.8991h-1.8991zm4.2283 0v1.8991h1.8991v-1.8991h-1.8991zm4.2283 0v1.8991h1.8872v-1.8991h-1.8872zm4.2163 0v1.8991h1.8991v-1.8991h-1.8991zm4.2283 0v1.8991h1.8872v-1.8991h-1.8872zm4.2163 0v1.8991h1.8991v-1.8991h-1.8991zm4.2283 0v1.8991h1.8991v-1.8991h-1.8991zm4.2163 0v1.8991h1.8991v-1.8991h-1.8991zm4.2283 0v1.8991h1.8991v-1.8991h-1.8991zm4.2163 0v1.8991h1.8991v-1.8991h-1.8991zm4.2283 0v1.8991h1.8991v-1.8991h-1.8991zm4.2283 0v1.8991h1.8872v-1.8991h-1.8872zm4.2163 0v1.8991h1.8991v-1.8991h-1.8991zm4.2283 0v1.8991h1.8872v-1.8991h-1.8872zm4.2163 0v1.8991h1.8991v-1.8991h-1.8991zm4.2283 0v1.8991h1.8991v-1.8991h-1.8991zm4.2163 0v1.8991h1.8991v-1.8991h-1.8991zm4.2283 0v1.8991h1.8991v-1.8991h-1.8991zm4.2163 0v1.8991h1.8991v-1.8991h-1.8991zm4.2283 0v1.8991h1.8991v-1.8991h-1.8991zm4.2283 0v1.8991h1.8872v-1.8991h-1.8872zm4.2163 0v1.8991h1.8991v-1.8991h-1.8991zm4.2283 0v1.8991h1.8872v-1.8991h-1.8872zm4.2163 0v1.8991h1.8991v-1.8991h-1.8991zm4.2283 0v1.8991h1.8991v-1.8991h-1.8991zm4.2163 0v1.8991h1.8991v-1.8991h-1.8991zm4.2283 0v1.8991h1.8991v-1.8991h-1.8991zm4.2163 0v1.8991h1.9111v-1.8991h-1.9111zm-168.9 4.2283v1.8991h1.8872v-1.8991h-1.8872zm4.2163 0v1.8991h1.8991v-1.8991h-1.8991zm4.2163 0v1.8991h1.8991v-1.8991h-1.8991zm4.2283 0v1.8991h1.8991v-1.8991h-1.8991zm4.2163 0v1.8991h1.8991v-1.8991h-1.8991zm4.2283 0v1.8991h1.8991v-1.8991h-1.8991zm4.2283 0v1.8991h1.8872v-1.8991h-1.8872zm4.2163 0v1.8991h1.8991v-1.8991h-1.8991zm4.2283 0v1.8991h1.8872v-1.8991h-1.8872zm4.2163 0v1.8991h1.8991v-1.8991h-1.8991zm4.2283 0v1.8991h1.8991v-1.8991h-1.8991zm4.2163 0v1.8991h1.8991v-1.8991h-1.8991zm4.2283 0v1.8991h1.8991v-1.8991h-1.8991zm4.2163 0v1.8991h1.8991v-1.8991h-1.8991zm4.2283 0v1.8991h1.8991v-1.8991h-1.8991zm4.2283 0v1.8991h1.8872v-1.8991h-1.8872zm4.2163 0v1.8991h1.8991v-1.8991h-1.8991zm4.2283 0v1.8991h1.8872v-1.8991h-1.8872zm4.2163 0v1.8991h1.8991v-1.8991h-1.8991zm4.2283 0v1.8991h1.8991v-1.8991h-1.8991zm4.2163 0v1.8991h1.8991v-1.8991h-1.8991zm4.2283 0v1.8991h1.8991v-1.8991h-1.8991zm4.2163 0v1.8991h1.8991v-1.8991h-1.8991zm4.2283 0v1.8991h1.8991v-1.8991h-1.8991zm4.2283 0v1.8991h1.8872v-1.8991h-1.8872zm4.2163 0v1.8991h1.8991v-1.8991h-1.8991zm4.2283 0v1.8991h1.8872v-1.8991h-1.8872zm4.2163 0v1.8991h1.8991v-1.8991h-1.8991zm4.2283 0v1.8991h1.8991v-1.8991h-1.8991zm4.2163 0v1.8991h1.8991v-1.8991h-1.8991zm4.2283 0v1.8991h1.8991v-1.8991h-1.8991zm4.2163 0v1.8991h1.8991v-1.8991h-1.8991zm4.2283 0v1.8991h1.8991v-1.8991h-1.8991zm4.2283 0v1.8991h1.8872v-1.8991h-1.8872zm4.2163 0v1.8991h1.8991v-1.8991h-1.8991zm4.2283 0v1.8991h1.8872v-1.8991h-1.8872zm4.2163 0v1.8991h1.8991v-1.8991h-1.8991zm4.2283 0v1.8991h1.8991v-1.8991h-1.8991zm4.2163 0v1.8991h1.8991v-1.8991h-1.8991zm4.2283 0v1.8991h1.8991v-1.8991h-1.8991zm4.2163 0v1.8991h1.9111v-1.8991h-1.9111zm-168.22 4.2163c0.3681 0.44093 0.77383 0.85428 1.2064 1.2303v-1.2303h-1.2064zm3.5355 0v1.8991h1.8991v-1.8991h-1.8991zm4.2163 0v1.8991h1.8991v-1.8991h-1.8991zm4.2283 0v1.8991h1.8991v-1.8991h-1.8991zm4.2163 0v1.8991h1.8991v-1.8991h-1.8991zm4.2283 0v1.8991h1.8991v-1.8991h-1.8991zm4.2283 0v1.8991h1.8872v-1.8991h-1.8872zm4.2163 0v1.8991h1.8991v-1.8991h-1.8991zm4.2283 0v1.8991h1.8872v-1.8991h-1.8872zm4.2163 0v1.8991h1.8991v-1.8991h-1.8991zm4.2283 0v1.8991h1.8991v-1.8991h-1.8991zm4.2163 0v1.8991h1.8991v-1.8991h-1.8991zm4.2283 0v1.8991h1.8991v-1.8991h-1.8991zm4.2163 0v1.8991h1.8991v-1.8991h-1.8991zm4.2283 0v1.8991h1.8991v-1.8991h-1.8991zm4.2283 0v1.8991h1.8872v-1.8991h-1.8872zm4.2163 0v1.8991h1.8991v-1.8991h-1.8991zm4.2283 0v1.8991h1.8872v-1.8991h-1.8872zm4.2163 0v1.8991h1.8991v-1.8991h-1.8991zm4.2283 0v1.8991h1.8991v-1.8991h-1.8991zm4.2163 0v1.8991h1.8991v-1.8991h-1.8991zm4.2283 0v1.8991h1.8991v-1.8991h-1.8991zm4.2163 0v1.8991h1.8991v-1.8991h-1.8991zm4.2283 0v1.8991h1.8991v-1.8991h-1.8991zm4.2283 0v1.8991h1.8872v-1.8991h-1.8872zm4.2163 0v1.8991h1.8991v-1.8991h-1.8991zm4.2283 0v1.8991h1.8872v-1.8991h-1.8872zm4.2163 0v1.8991h1.8991v-1.8991h-1.8991zm4.2283 0v1.8991h1.8991v-1.8991h-1.8991zm4.2163 0v1.8991h1.8991v-1.8991h-1.8991zm4.2283 0v1.8991h1.8991v-1.8991h-1.8991zm4.2163 0v1.8991h1.8991v-1.8991h-1.8991zm4.2283 0v1.8991h1.8991v-1.8991h-1.8991zm4.2283 0v1.8991h1.8872v-1.8991h-1.8872zm4.2163 0v1.8991h1.8991v-1.8991h-1.8991zm4.2283 0v1.8991h1.8872v-1.8991h-1.8872zm4.2163 0v1.8991h1.8991v-1.8991h-1.8991zm4.2283 0v1.8991h1.8991v-1.8991h-1.8991zm4.2163 0v1.8991h1.8991v-1.8991h-1.8991zm4.2283 0v1.8991h1.8991v-1.8991h-1.8991zm4.2163 0v1.5766c0.59508-0.46522 1.1389-0.9968 1.6244-1.5766h-1.6244z" color="#000000" opacity=".5"/>
 <path d="m193.4 125.81a63.609 63.609 0 1 1-127.22 0 63.609 63.609 0 1 1 127.22 0z" color="#000000" fill="#ccc" stroke="#000" stroke-width="1.2"/>
 <path d="m129.73 68.17 8.4824 8.4658h-16.965z" color="#000000" fill="#ccc" stroke="#000" stroke-width="1.2"/>
 <path d="m128.36 183.53 8.4824-8.4658h-16.965z" color="#000000" fill="#ccc" stroke="#000" stroke-width="1.2"/>
 <path d="m186.72 125.22-8.4658 8.4824v-16.965z" color="#000000" fill="#ccc" stroke="#000" stroke-width="1.2"/>
 <path d="m71.455 125.22 8.4658-8.4824v16.965z" color="#000000" fill="#ccc" stroke="#000" stroke-width="1.2"/>
 <g transform="matrix(.38222 0 0 .38222 159.52 4.2774)" fill="#ccc" stroke="#000" stroke-width="3.1396">
  <path d="m-81.526 336.98c-2.0028 0-4.1855 0.4097-6.9062 2.2188l-24.563 23.688c-1.9617 1.8663-3.3218 3.8983-4.25 6.5938l-3.6562 44.5c2.4342 9.1196 8.193 15.228 17.594 16.938 16.374 1.2937 28.95 1.0902 43.563 0 9.4007-1.7098 15.191-7.8179 17.625-16.938l-3.6562-44.5c-0.92818-2.6954-2.2883-4.7275-4.25-6.5938l-24.562-23.688c-2.7207-1.809-4.9347-2.2188-6.9375-2.2188z" color="#000000"/>
  <path d="m-81.526 294.18c-2.0028 0-4.1855-0.4097-6.9062-2.2188l-24.563-23.688c-1.9617-1.8663-3.3218-3.8983-4.25-6.5938l-3.6562-44.5c2.4342-9.1196 8.193-15.228 17.594-16.938 16.374-1.2937 28.95-1.0902 43.563 0 9.4007 1.7098 15.191 7.8179 17.625 16.938l-3.6562 44.5c-0.92818 2.6954-2.2883 4.7275-4.25 6.5938l-24.562 23.688c-2.7207 1.809-4.9347 2.2188-6.9375 2.2188z" color="#000000"/>
  <path d="m-60.043 315.47c0 2.0028 0.4097 4.1855 2.2188 6.9062l23.688 24.562c1.8663 1.9617 3.8983 3.3218 6.5938 4.25l44.5 3.6562c9.1196-2.4342 15.228-8.193 16.938-17.594 1.2937-16.374 1.0902-28.95 0-43.562-1.7098-9.4007-7.8179-15.191-16.938-17.625l-44.5 3.6562c-2.6954 0.92818-4.7275 2.2883-6.5938 4.25l-23.688 24.562c-1.809 2.7207-2.2188 4.9347-2.2188 6.9375z" color="#000000"/>
  <path d="m-103.6 315.44c0-2.0028-0.4097-4.1855-2.2188-6.9062l-23.688-24.562c-1.8663-1.9617-3.8983-3.3218-6.5938-4.25l-44.5-3.6562c-9.1196 2.4342-15.228 8.193-16.938 17.594-1.2937 16.374-1.0902 28.95 0 43.562 1.7098 9.4007 7.8179 15.191 16.938 17.625l44.5-3.6562c2.6954-0.92818 4.7275-2.2883 6.5938-4.25l23.688-24.562c1.809-2.7207 2.2188-4.9347 2.2188-6.9375z" color="#000000"/>
 </g>
 <path transform="matrix(.38222 0 0 .38222 164.84 9.2347)" d="m-43 302.61a52.75 52.75 0 1 1-105.5 0 52.75 52.75 0 1 1 105.5 0z" clip-path="url(#clipPath3233)" color="#000000" fill="#ccc" opacity=".5" stroke="#000" stroke-width="3.1396"/>
 <path d="m534.9 125.81a63.609 63.609 0 1 1-127.22 0 63.609 63.609 0 1 1 127.22 0z" color="#000000" fill="#ccc" stroke="#000" stroke-width="1.2"/>
 <path d="m489.21 85.075a17.08 17.08 0 0 1-34.16 0 17.08 17.08 0 1 1 34.16 0z" color="#000000" fill="#ccc" stroke="#000" stroke-width="1.2"/>
 <path d="m489.21 164.89a17.08 17.08 0 0 1-34.16 0 17.08 17.08 0 1 1 34.16 0z" color="#000000" fill="#ccc" stroke="#000" stroke-width="1.2"/>
 <path d="m449.06 124.76a17.08 17.08 0 0 1-34.16 0 17.08 17.08 0 1 1 34.16 0z" color="#000000" fill="#ccc" stroke="#000" stroke-width="1.2"/>
 <path d="m530.15 124.76a17.08 17.08 0 0 1-34.16 0 17.08 17.08 0 1 1 34.16 0z" color="#000000" fill="#ccc" stroke="#000" stroke-width="1.2"/>
 <path d="m462.29 155.16 19.68 19.459" fill="#ccc" stroke="#000" stroke-width="2"/>
 <path d="m481.91 155.03-19.546 19.715" fill="#ccc" stroke="#000" stroke-width="2"/>
 <path d="m524.51 124.76a11.438 11.438 0 1 1-22.876 0 11.438 11.438 0 1 1 22.876 0z" color="#000000" fill="#ccc" stroke="#000" stroke-width="2"/>
 <rect x="422.62" y="115.4" width="18.726" height="18.726" color="#000000" fill="#ccc" stroke="#000" stroke-width="2"/>
 <path d="m472.13 72.244 11.39 18.726h-22.78z" color="#000000" fill="#ccc" stroke="#000" stroke-width="2"/>
 <path d="m212.92 150.28c30.562 0 52.674 24.776 52.674 55.338 0 30.562-18.154 55.338-52.674 55.338-31.381 0-53.785-24.776-53.785-55.338 0-8.0759 1.6118-15.741 4.5627-22.658l30.076-29.192c5.9024-2.2469 12.342-3.4877 19.147-3.4877z" color="#000000" fill="#ccc" stroke="#000" stroke-width="1.2"/>
 <g transform="matrix(-.38222 0 0 .38222 441.41 4.2774)" fill="#ccc" stroke="#000">
  <path d="m599.53 384.66c-70.982 0-128.53 57.518-128.53 128.5s57.549 128.53 128.53 128.53 128.53-57.549 128.53-128.53c0-20.563-4.8514-39.984-13.438-57.219l-61.281-59.5c-16.374-7.563-34.591-11.781-53.812-11.781z" color="#000000" stroke-width="3.1396"/>
  <path transform="matrix(.58726 0 0 .58726 102.4 317.53)" d="m1006.1 333.13a159.6 159.6 0 1 1-319.21 0 159.6 159.6 0 1 1 319.21 0z" color="#000000" stroke-width="5.3461"/>
 </g>
 <path d="m245.28 197.87a31.901 31.901 0 1 1-63.802 0 31.901 31.901 0 1 1 63.802 0z" color="#000000" fill="#ccc" stroke="#000" stroke-width="1.2"/>
 <path d="m239.37 197.87a25.991 25.991 0 1 1-51.981 0 25.991 25.991 0 1 1 51.981 0z" color="#000000" fill="#ccc" opacity=".5" stroke="#000" stroke-width="1.2"/>
 <path d="m232.92 197.87a19.546 19.546 0 1 1-39.092 0 19.546 19.546 0 1 1 39.092 0z" color="#000000" fill="#ccc" opacity=".5" stroke="#000" stroke-width="1.2"/>
 <path d="m388 150.28c-30.562 0-52.674 24.776-52.674 55.338 0 30.562 18.154 55.338 52.674 55.338 31.381 0 53.785-24.776 53.785-55.338 0-8.0759-1.6118-15.741-4.5627-22.658l-30.076-29.192c-5.9024-2.2469-12.342-3.4877-19.147-3.4877z" color="#000000" fill="#ccc" stroke="#000" stroke-width="1.2"/>
 <g transform="matrix(.38222 0 0 .38222 159.52 4.2774)" fill="#ccc" stroke="#000">
  <path d="m599.53 384.66c-70.982 0-128.53 57.518-128.53 128.5s57.549 128.53 128.53 128.53 128.53-57.549 128.53-128.53c0-20.563-4.8514-39.984-13.438-57.219l-61.281-59.5c-16.374-7.563-34.591-11.781-53.812-11.781z" color="#000000" stroke-width="3.1396"/>
  <path transform="matrix(.58726 0 0 .58726 102.4 317.53)" d="m1006.1 333.13a159.6 159.6 0 1 1-319.21 0 159.6 159.6 0 1 1 319.21 0z" color="#000000" stroke-width="5.3461"/>
 </g>
 <path d="m420.2 197.87a31.901 31.901 0 1 1-63.802 0 31.901 31.901 0 1 1 63.802 0z" color="#000000" fill="#ccc" stroke="#000" stroke-width="1.2"/>
 <path d="m414.29 197.87a25.991 25.991 0 1 1-51.981 0 25.991 25.991 0 1 1 51.981 0z" color="#000000" fill="#ccc" opacity=".5" stroke="#000" stroke-width="1.2"/>
 <path d="m407.85 197.87a19.546 19.546 0 1 1-39.092 0 19.546 19.546 0 1 1 39.092 0z" color="#000000" fill="#ccc" opacity=".5" stroke="#000" stroke-width="1.2"/>
 <path d="m188.83 56.581c-4.8239 0-8.7312 3.9073-8.7312 8.7312v13.306c0 4.8239 3.9073 8.7312 8.7312 8.7312 4.8239 0 8.7312-3.9073 8.7312-8.7312v-13.306c0-4.8239-3.9073-8.7312-8.7312-8.7312z" color="#000000" fill="#ccc" stroke="#000" stroke-width="1.2"/>
 <path d="m412.8 56.581c-4.8239 0-8.7312 3.9073-8.7312 8.7312v13.306c0 4.8239 3.9073 8.7312 8.7312 8.7312 4.8239 0 8.7312-3.9073 8.7312-8.7312v-13.306c0-4.8239-3.9073-8.7312-8.7312-8.7312z" color="#000000" fill="#ccc" stroke="#000" stroke-width="1.2"/>
 <path d="m313.75 203.37a13.755 13.755 0 1 1-27.509 0 13.755 13.755 0 1 1 27.509 0z" color="#000000" fill="#ccc" stroke="#000" stroke-width="1.2"/>
 <g transform="matrix(.38222 0 0 .38222 158.72 4.2774)" fill="#ccc" stroke="#000">
  <path transform="matrix(.92903 0 0 .92903 20.557 27.74)" d="m328.04 420.44a6.9196 6.9196 0 1 1-13.839 0 6.9196 6.9196 0 1 1 13.839 0z" color="#000000" stroke-width="3.3794"/>
  <path transform="matrix(.85806 0 0 .85806 68.848 58.069)" d="m328.04 420.44a6.9196 6.9196 0 1 1-13.839 0 6.9196 6.9196 0 1 1 13.839 0z" color="#000000" stroke-width="3.6589"/>
  <path transform="matrix(.85806 0 0 .85806 94.35 58.069)" d="m328.04 420.44a6.9196 6.9196 0 1 1-13.839 0 6.9196 6.9196 0 1 1 13.839 0z" color="#000000" stroke-width="3.6589"/>
  <path transform="matrix(.85806 0 0 .85806 119.85 58.069)" d="m328.04 420.44a6.9196 6.9196 0 1 1-13.839 0 6.9196 6.9196 0 1 1 13.839 0z" color="#000000" stroke-width="3.6589"/>
  <path transform="matrix(.85806 0 0 .85806 145.35 58.069)" d="m328.04 420.44a6.9196 6.9196 0 1 1-13.839 0 6.9196 6.9196 0 1 1 13.839 0z" color="#000000" stroke-width="3.6589"/>
  <path transform="matrix(.85806 0 0 .85806 132.57 76.978)" d="m328.04 420.44a6.9196 6.9196 0 1 1-13.839 0 6.9196 6.9196 0 1 1 13.839 0z" color="#000000" stroke-width="3.6589"/>
  <path transform="matrix(.85806 0 0 .85806 106.83 76.978)" d="m328.04 420.44a6.9196 6.9196 0 1 1-13.839 0 6.9196 6.9196 0 1 1 13.839 0z" color="#000000" stroke-width="3.6589"/>
  <path transform="matrix(.85806 0 0 .85806 81.085 76.978)" d="m328.04 420.44a6.9196 6.9196 0 1 1-13.839 0 6.9196 6.9196 0 1 1 13.839 0z" color="#000000" stroke-width="3.6589"/>
  <path transform="matrix(.85806 0 0 .85806 55.342 76.978)" d="m328.04 420.44a6.9196 6.9196 0 1 1-13.839 0 6.9196 6.9196 0 1 1 13.839 0z" color="#000000" stroke-width="3.6589"/>
  <path transform="matrix(.85806 0 0 .85806 68.343 95.528)" d="m328.04 420.44a6.9196 6.9196 0 1 1-13.839 0 6.9196 6.9196 0 1 1 13.839 0z" color="#000000" stroke-width="3.6589"/>
  <path transform="matrix(.85806 0 0 .85806 94.092 95.528)" d="m328.04 420.44a6.9196 6.9196 0 1 1-13.839 0 6.9196 6.9196 0 1 1 13.839 0z" color="#000000" stroke-width="3.6589"/>
  <path transform="matrix(.85806 0 0 .85806 119.84 95.528)" d="m328.04 420.44a6.9196 6.9196 0 1 1-13.839 0 6.9196 6.9196 0 1 1 13.839 0z" color="#000000" stroke-width="3.6589"/>
 </g>
 <g transform="scale(1.245 .80323)">
  <path d="m144.3 65.722c0 0.23979-0.0441 0.45322-0.13241 0.64031-0.0883 0.18709-0.2108 0.34585-0.36758 0.47628-0.15679 0.13043-0.34124 0.22859-0.55335 0.29446-0.21213 0.06588-0.44071 0.09881-0.68577 0.09881-0.17128 0-0.33004-0.01449-0.47628-0.04348-0.14624-0.02898-0.27668-0.06456-0.3913-0.10672-0.11462-0.04216-0.2108-0.08564-0.28853-0.13043-0.0777-0.04479-0.13175-0.083-0.16206-0.11462-0.0303-0.03162-0.0527-0.0718-0.0672-0.12055-0.0145-0.04875-0.0217-0.11396-0.0217-0.19565 0-0.05797 3e-3 -0.10606 8e-3 -0.14427 5e-3 -0.03821 0.0132-0.06917 0.0237-0.09288s0.0237-0.04018 0.0395-0.04941c0.0158-0.0092 0.0342-0.01383 0.0553-0.01383 0.0369 1e-6 0.0889 0.0224 0.15613 0.06719 0.0672 0.0448 0.15349 0.09354 0.25889 0.14624 0.1054 0.0527 0.23254 0.10211 0.38142 0.14822 0.14887 0.04611 0.32081 0.06917 0.5158 0.06917 0.14756 0 0.28261-0.01976 0.40514-0.05929 0.12252-0.03952 0.22792-0.09552 0.3162-0.16798 0.0883-0.07246 0.15612-0.16139 0.20355-0.2668 0.0474-0.1054 0.0711-0.22529 0.0711-0.35968 0-0.14492-0.0329-0.26877-0.0988-0.37154-0.0659-0.10276-0.15284-0.19301-0.26087-0.27075-0.10804-0.07773-0.23123-0.14888-0.36956-0.21344-0.13834-0.06456-0.27997-0.13043-0.4249-0.19763-0.14493-0.06719-0.2859-0.14163-0.42292-0.22332-0.13702-0.08168-0.25955-0.17786-0.36758-0.28854-0.10804-0.11067-0.19565-0.24044-0.26285-0.38932-0.0672-0.14888-0.10079-0.3274-0.10079-0.53557 0-0.21343 0.0389-0.40381 0.1166-0.57114 0.0777-0.16732 0.18577-0.30763 0.32411-0.42094 0.13834-0.1133 0.30303-0.1996 0.49407-0.25889 0.19103-0.05928 0.39722-0.08893 0.61857-0.08893 0.1133 5e-6 0.22726 0.0099 0.34189 0.02964 0.11462 0.01977 0.22266 0.04612 0.32411 0.07905 0.10144 0.03294 0.19169 0.06983 0.27074 0.11067 0.0791 0.04085 0.13109 0.07379 0.15613 0.09881 0.025 0.02504 0.0415 0.0448 0.0494 0.05929 8e-3 0.0145 0.0145 0.03294 0.0198 0.05534 5e-3 0.0224 9e-3 0.04941 0.0119 0.08103 3e-3 0.03162 4e-3 0.07247 4e-3 0.12253 0 0.04744-2e-3 0.08959-6e-3 0.12648-4e-3 0.03689-0.01 0.06786-0.0178 0.09288-8e-3 0.02504-0.0191 0.04348-0.0336 0.05533-0.0145 0.01186-0.031 0.01779-0.0494 0.01779-0.029 4e-6 -0.0744-0.01844-0.13636-0.05534-0.0619-0.03689-0.13768-0.07839-0.22727-0.1245-0.0896-0.04611-0.19565-0.08827-0.31818-0.12648-0.12253-0.0382-0.26021-0.05731-0.41304-0.05731-0.14229 5e-6 -0.26614 0.01911-0.37154 0.05731-0.1054 0.03821-0.19235 0.08894-0.26086 0.15217-0.0685 0.06325-0.1199 0.13834-0.15415 0.22529-0.0343 0.08696-0.0514 0.17918-0.0514 0.27668-1e-5 0.1423 0.0329 0.26482 0.0988 0.36758 0.0659 0.10277 0.15349 0.19368 0.26284 0.27272 0.10935 0.07905 0.23386 0.15152 0.37352 0.21739 0.13965 0.06588 0.28194 0.13241 0.42687 0.1996 0.14492 0.06719 0.28721 0.14098 0.42687 0.22134 0.13965 0.08037 0.26416 0.17523 0.37351 0.28458 0.10935 0.10936 0.19763 0.23847 0.26482 0.38735 0.0672 0.14888 0.10079 0.32477 0.10079 0.52766z"/>
  <path d="m148.96 67.054c-1e-5 0.02108-5e-3 0.03952-0.0158 0.05533-0.0105 0.01581-0.029 0.02833-0.0553 0.03755-0.0264 0.0092-0.0613 0.01713-0.10474 0.02371-0.0435 0.0066-0.0968 0.0099-0.16008 0.0099-0.0685 0-0.12385-0.0033-0.16601-0.0099-0.0422-0.0066-0.0764-0.01449-0.10276-0.02371-0.0264-0.0092-0.0448-0.02174-0.0553-0.03755s-0.0158-0.03426-0.0158-0.05533v-2.2688h-2.328v2.2688c-1e-5 0.02108-5e-3 0.03952-0.0158 0.05533-0.0105 0.01581-0.029 0.02833-0.0553 0.03755-0.0264 0.0092-0.0613 0.01713-0.10474 0.02371-0.0435 0.0066-0.0982 0.0099-0.16403 0.0099-0.0632 0-0.11726-0.0033-0.16205-0.0099-0.0448-0.0066-0.0804-0.01449-0.10672-0.02371-0.0264-0.0092-0.0448-0.02174-0.0553-0.03755s-0.0158-0.03426-0.0158-0.05533v-4.909c0-0.02107 5e-3 -0.03952 0.0158-0.05534 0.0105-0.01581 0.029-0.02832 0.0553-0.03755 0.0264-0.0092 0.0619-0.01712 0.10672-0.02372 0.0448-0.0066 0.0988-0.0099 0.16205-0.0099 0.0659 5e-6 0.12055 0.0033 0.16403 0.0099 0.0435 0.0066 0.0784 0.0145 0.10474 0.02372 0.0264 0.0092 0.0448 0.02174 0.0553 0.03755 0.0105 0.01582 0.0158 0.03426 0.0158 0.05534v2.0474h2.328v-2.0474c0-0.02107 5e-3 -0.03952 0.0158-0.05534 0.0105-0.01581 0.029-0.02832 0.0553-0.03755 0.0264-0.0092 0.0606-0.01712 0.10276-0.02372 0.0422-0.0066 0.0975-0.0099 0.16601-0.0099 0.0632 5e-6 0.1166 0.0033 0.16008 0.0099 0.0435 0.0066 0.0784 0.0145 0.10474 0.02372 0.0264 0.0092 0.0448 0.02174 0.0553 0.03755 0.0105 0.01582 0.0158 0.03426 0.0158 0.05534z"/>
  <path d="m154.15 66.916c0.0211 0.05797 0.0323 0.10474 0.0336 0.14032 1e-3 0.03557-9e-3 0.06258-0.0297 0.08103-0.0211 0.01844-0.056 0.0303-0.10474 0.03557-0.0488 0.0053-0.11397 0.0079-0.19565 0.0079-0.0817 0-0.1469-2e-3 -0.19565-0.0059-0.0488-4e-3 -0.0856-0.01054-0.11067-0.01976-0.025-0.0092-0.0435-0.02174-0.0553-0.03755-0.0119-0.01581-0.0231-0.03557-0.0336-0.05929l-0.43873-1.245h-2.1265l-0.41897 1.2292c-8e-3 0.02371-0.0184 0.04414-0.0316 0.06126-0.0132 0.01713-0.0323 0.03162-0.0573 0.04348s-0.0606 0.02042-0.10672 0.02569c-0.0461 0.0053-0.10606 0.0079-0.17984 0.0079-0.0764 0-0.13899-0.0033-0.18774-0.0099-0.0487-0.0066-0.083-0.0191-0.10277-0.03755-0.0198-0.01844-0.029-0.04545-0.0277-0.08103 1e-3 -0.03557 0.0125-0.08234 0.0336-0.14031l1.7154-4.7509c0.0105-0.02898 0.0244-0.05269 0.0415-0.07115 0.0171-0.01844 0.0422-0.03293 0.0751-0.04348 0.0329-0.01053 0.0751-0.01778 0.12648-0.02174 0.0514-0.0039 0.11659-0.0059 0.19565-0.0059 0.0843 5e-6 0.15414 2e-3 0.20948 0.0059 0.0553 4e-3 0.10013 0.0112 0.13439 0.02174 0.0343 0.01055 0.0606 0.0257 0.079 0.04545 0.0184 0.01977 0.0329 0.04414 0.0435 0.07312zm-2.2016-4.1936h-4e-3l-0.88141 2.5494h1.7786z"/>
  <path d="m158.41 67.054c0 0.02108-4e-3 0.03952-0.0119 0.05533-8e-3 0.01581-0.025 0.02898-0.0514 0.03952s-0.0632 0.01844-0.11067 0.02371c-0.0474 0.0053-0.11067 0.0079-0.18972 0.0079-0.0685 0-0.12451-0.0026-0.16798-0.0079-0.0435-0.0053-0.0784-0.01383-0.10474-0.02569-0.0264-0.01186-0.0468-0.02833-0.0613-0.04941s-0.027-0.04743-0.0376-0.07905l-0.47035-1.2055c-0.0553-0.13702-0.11265-0.26284-0.17193-0.37747-0.0593-0.11462-0.12978-0.21343-0.21146-0.29644-0.0817-0.083-0.17787-0.14756-0.28854-0.19367-0.11067-0.04611-0.24374-0.06917-0.3992-0.06917h-0.45454v2.1778c0 0.02108-6e-3 0.03952-0.0178 0.05533-0.0119 0.01581-0.0303 0.02833-0.0553 0.03755-0.025 0.0092-0.0593 0.01713-0.10277 0.02371-0.0435 0.0066-0.0982 0.0099-0.16403 0.0099-0.0659 0-0.12055-0.0033-0.16403-0.0099-0.0435-0.0066-0.0784-0.01449-0.10474-0.02371-0.0263-0.0092-0.0448-0.02174-0.0553-0.03755s-0.0158-0.03426-0.0158-0.05533v-4.7351c-1e-5 -0.10276 0.027-0.17456 0.081-0.21541 0.054-0.04084 0.11133-0.06126 0.17194-0.06126h1.0869c0.12911 5e-6 0.23649 0.0033 0.32213 0.0099 0.0856 0.0066 0.16271 0.01384 0.23122 0.02174 0.19763 0.03426 0.3722 0.08828 0.52371 0.16205 0.15151 0.07379 0.27865 0.16733 0.38142 0.28063 0.10277 0.11331 0.17984 0.24308 0.23123 0.38932 0.0514 0.14625 0.0771 0.30764 0.0771 0.48418 0 0.17128-0.0231 0.32477-0.0692 0.46047-0.0461 0.13571-0.11265 0.2556-0.1996 0.35968-0.087 0.10409-0.19104 0.19434-0.31225 0.27075-0.12121 0.07642-0.25692 0.14098-0.40711 0.19367 0.0843 0.03689 0.16073 0.08366 0.22925 0.14032 0.0685 0.05666 0.1324 0.12451 0.19169 0.20356 0.0593 0.07905 0.11528 0.16996 0.16799 0.27272 0.0527 0.10277 0.10539 0.21871 0.1581 0.34782l0.45849 1.1265c0.0369 0.09486 0.0606 0.1614 0.0711 0.1996 0.0105 0.03821 0.0158 0.06785 0.0158 0.08893zm-1.0237-3.5928c0-0.20026-0.0448-0.36956-0.13439-0.5079-0.0896-0.13833-0.23978-0.23781-0.45058-0.29842-0.0659-0.01844-0.14032-0.03162-0.22332-0.03953-0.083-0.0079-0.1917-0.01185-0.32608-0.01186h-0.57312v1.7233h0.66402c0.17918 3e-6 0.33399-0.02174 0.46443-0.06522 0.13043-0.04348 0.23912-0.10408 0.32608-0.18182 0.087-0.07773 0.15085-0.1693 0.1917-0.2747 0.0408-0.1054 0.0613-0.22002 0.0613-0.34387z"/>
  <path d="m162.24 66.876c0 0.04743-3e-3 0.08893-8e-3 0.1245-5e-3 0.03557-0.0145 0.06522-0.0277 0.08893-0.0132 0.02372-0.0283 0.04084-0.0454 0.05138s-0.0362 0.01581-0.0573 0.01581h-2.4545c-0.0606 0-0.11792-0.02042-0.17194-0.06126-0.054-0.04084-0.081-0.11265-0.081-0.21541v-4.5612c0-0.10276 0.027-0.17456 0.081-0.21541 0.054-0.04084 0.11133-0.06126 0.17194-0.06126h2.4268c0.0211 5e-6 0.0402 0.0053 0.0573 0.01581 0.0171 0.01055 0.031 0.02767 0.0415 0.05138 0.0105 0.02372 0.0191 0.05336 0.0257 0.08893 7e-3 0.03558 0.01 0.07971 0.01 0.13241 0 0.04744-3e-3 0.08894-0.01 0.1245-7e-3 0.03558-0.0152 0.06456-0.0257 0.08696s-0.0244 0.03887-0.0415 0.04941c-0.0171 0.01055-0.0362 0.01582-0.0573 0.01581h-2v1.6047h1.7154c0.0211 3e-6 0.0402 0.0059 0.0573 0.01779 0.0171 0.01186 0.0316 0.02833 0.0435 0.04941s0.0204 0.05007 0.0257 0.08696c5e-3 0.03689 8e-3 0.08037 8e-3 0.13043 0 0.04743-3e-3 0.08827-8e-3 0.12253-5e-3 0.03426-0.0138 0.06193-0.0257 0.083-0.0119 0.02108-0.0264 0.03623-0.0435 0.04545-0.0171 0.0092-0.0362 0.01384-0.0573 0.01383h-1.7154v1.83h2.0276c0.0211 1e-6 0.0402 0.0053 0.0573 0.01581 0.0171 0.01054 0.0323 0.02701 0.0454 0.04941 0.0132 0.0224 0.0224 0.05138 0.0277 0.08695 5e-3 0.03557 8e-3 0.07971 8e-3 0.13241z"/>
 </g>
 <g transform="scale(1.2313 .81218)">
  <path d="m326.96 63.969c0 0.40914-0.0482 0.77788-0.14463 1.1062-0.0964 0.32835-0.2404 0.60784-0.43194 0.83847-0.19154 0.23063-0.43194 0.40783-0.7212 0.53162-0.28926 0.12378-0.62674 0.18568-1.0124 0.18568-0.38047 0-0.70947-0.05668-0.98701-0.17004-0.27753-0.11336-0.50686-0.27819-0.68797-0.49448-0.18112-0.2163-0.31597-0.48471-0.40458-0.80524-0.0886-0.32053-0.1329-0.68928-0.1329-1.1062 0-0.39871 0.0482-0.76094 0.14463-1.0867 0.0964-0.32574 0.24105-0.60263 0.43389-0.83065 0.19284-0.22802 0.4339-0.40392 0.72316-0.52771 0.28926-0.12378 0.62673-0.18567 1.0124-0.18568 0.37265 5e-6 0.69709 0.05603 0.97333 0.16808 0.27622 0.11206 0.5062 0.27559 0.68993 0.49057 0.18371 0.215 0.32052 0.4808 0.41044 0.79743 0.0899 0.31663 0.13485 0.67951 0.13485 1.0886zm-0.70752 0.04691c0-0.28665-0.0254-0.55311-0.0762-0.79938-0.0508-0.24626-0.13551-0.45995-0.25408-0.64107-0.11858-0.18111-0.27689-0.32248-0.47494-0.42412-0.19806-0.10163-0.44302-0.15244-0.73488-0.15245-0.29187 5e-6 -0.53683 0.05473-0.73488 0.16418-0.19806 0.10946-0.35898 0.25539-0.48276 0.4378-0.12379 0.18242-0.21239 0.39546-0.26581 0.63911-0.0534 0.24366-0.0801 0.4997-0.0801 0.76811 0 0.29708 0.0247 0.57071 0.0743 0.82088 0.0495 0.25017 0.1329 0.46582 0.25017 0.64693 0.11727 0.18112 0.27428 0.32184 0.47103 0.42217 0.19675 0.10033 0.44366 0.1505 0.74075 0.1505 0.29447 0 0.54203-0.05473 0.7427-0.16418 0.20065-0.10945 0.36222-0.25734 0.48471-0.44367 0.12247-0.18632 0.20977-0.40197 0.2619-0.64693 0.0521-0.24496 0.0782-0.50425 0.0782-0.77788z"/>
  <path d="m331.13 62.98c0 0.25278-0.0417 0.4808-0.12508 0.68407-0.0834 0.20327-0.20262 0.37656-0.35767 0.51989-0.15506 0.14333-0.34529 0.25408-0.57071 0.33226-0.22542 0.07818-0.49448 0.11727-0.8072 0.11727h-0.57461v1.8216c0 0.02085-6e-3 0.03909-0.0176 0.05473-0.0117 0.01564-0.03 0.02801-0.0547 0.03714-0.0248 0.0091-0.0586 0.01694-0.10163 0.02345-0.043 0.0065-0.0971 0.0098-0.16222 0.0098-0.0651 0-0.11923-0.0033-0.16222-0.0098-0.043-0.0065-0.0775-0.01433-0.10359-0.02345-0.0261-0.0091-0.0443-0.0215-0.0547-0.03714s-0.0156-0.03388-0.0156-0.05473v-4.6673c0-0.10423 0.0274-0.1785 0.0821-0.22281 0.0547-0.0443 0.11596-0.06645 0.18372-0.06645h1.0828c0.10944 5e-6 0.21434 0.0046 0.31467 0.01368 0.10032 0.0091 0.2189 0.02867 0.35571 0.05863 0.13681 0.02997 0.27623 0.086 0.41826 0.16808 0.14202 0.08209 0.26255 0.18307 0.36158 0.30294 0.099 0.11988 0.17524 0.25865 0.22867 0.4163 0.0534 0.15766 0.0801 0.33161 0.0801 0.52184zm-0.70752 0.05473c0-0.20587-0.0384-0.37786-0.11531-0.51598-0.0769-0.13811-0.172-0.24105-0.28535-0.30881-0.11337-0.06775-0.23063-0.11075-0.35181-0.129-0.12118-0.01824-0.2391-0.02736-0.35376-0.02736h-0.62152v2.0287h0.60589c0.20326 2e-6 0.37199-0.02606 0.5062-0.07818s0.24692-0.12443 0.33813-0.21695c0.0912-0.09251 0.16026-0.20326 0.20717-0.33226 0.0469-0.12899 0.0704-0.26906 0.0704-0.42021z"/>
  <path d="m335.34 61.787c0 0.04952-3e-3 0.09252-8e-3 0.129-5e-3 0.03649-0.0137 0.06581-0.0254 0.08795-0.0117 0.02216-0.0261 0.03844-0.043 0.04886-0.0169 0.01043-0.0358 0.01564-0.0567 0.01564h-1.4229v4.3858c0 0.02085-5e-3 0.03909-0.0156 0.05473-0.0104 0.01564-0.0287 0.02801-0.0547 0.03714-0.0261 0.0091-0.0606 0.01694-0.10359 0.02345-0.043 0.0065-0.0971 0.0098-0.16222 0.0098-0.0625 0-0.11596-0.0033-0.16026-0.0098s-0.0795-0.01433-0.10555-0.02345c-0.0261-0.0091-0.0443-0.0215-0.0547-0.03714s-0.0156-0.03388-0.0156-0.05473v-4.3858h-1.4228c-0.0208 5e-6 -0.0397-0.0052-0.0567-0.01564-0.0169-0.01042-0.0306-0.02671-0.0411-0.04886-0.0104-0.02215-0.0189-0.05146-0.0254-0.08795-7e-3 -0.03648-0.01-0.07948-0.01-0.129 0-0.04951 3e-3 -0.09316 0.01-0.13095 7e-3 -0.03778 0.015-0.0684 0.0254-0.09186 0.0104-0.02345 0.0241-0.04039 0.0411-0.05082 0.0169-0.01042 0.0358-0.01563 0.0567-0.01564h3.518c0.0208 5e-6 0.0397 0.0052 0.0567 0.01564 0.0169 0.01043 0.0313 0.02737 0.043 0.05082 0.0117 0.02346 0.0202 0.05408 0.0254 0.09186 5e-3 0.03779 8e-3 0.08144 8e-3 0.13095z"/>
  <path d="m336.75 66.455c-1e-5 0.02085-5e-3 0.03909-0.0156 0.05473-0.0104 0.01564-0.0287 0.02801-0.0547 0.03714-0.0261 0.0091-0.0606 0.01694-0.10358 0.02345-0.043 0.0065-0.0971 0.0098-0.16222 0.0098-0.0626 0-0.11597-0.0033-0.16027-0.0098s-0.0795-0.01433-0.10554-0.02345c-0.0261-0.0091-0.0443-0.0215-0.0547-0.03714s-0.0156-0.03388-0.0156-0.05473v-4.8549c0-0.02084 6e-3 -0.03908 0.0176-0.05472 0.0117-0.01563 0.0313-0.02801 0.0586-0.03713 0.0274-0.0091 0.0625-0.01693 0.10554-0.02345 0.043-0.0065 0.0945-0.0098 0.15441-0.0098 0.0651 5e-6 0.11922 0.0033 0.16222 0.0098s0.0775 0.01434 0.10358 0.02345c0.0261 0.0091 0.0443 0.0215 0.0547 0.03713 0.0104 0.01564 0.0156 0.03388 0.0156 0.05472z"/>
  <path d="m342.33 63.969c-1e-5 0.40914-0.0482 0.77788-0.14463 1.1062-0.0964 0.32835-0.24041 0.60784-0.43194 0.83847-0.19155 0.23063-0.43195 0.40783-0.7212 0.53162-0.28927 0.12378-0.62674 0.18568-1.0124 0.18568-0.38048 0-0.70948-0.05668-0.98701-0.17004-0.27754-0.11336-0.50686-0.27819-0.68798-0.49448-0.18111-0.2163-0.31597-0.48471-0.40457-0.80524-0.0886-0.32053-0.13291-0.68928-0.13291-1.1062 0-0.39871 0.0482-0.76094 0.14463-1.0867 0.0964-0.32574 0.24105-0.60263 0.4339-0.83065 0.19284-0.22802 0.43389-0.40392 0.72315-0.52771 0.28926-0.12378 0.62673-0.18567 1.0124-0.18568 0.37265 5e-6 0.69709 0.05603 0.97333 0.16808 0.27623 0.11206 0.5062 0.27559 0.68993 0.49057 0.18371 0.215 0.32053 0.4808 0.41044 0.79743 0.0899 0.31663 0.13485 0.67951 0.13486 1.0886zm-0.70752 0.04691c-1e-5 -0.28665-0.0254-0.55311-0.0762-0.79938-0.0508-0.24626-0.13551-0.45995-0.25408-0.64107-0.11857-0.18111-0.27689-0.32248-0.47494-0.42412-0.19805-0.10163-0.44301-0.15244-0.73488-0.15245-0.29187 5e-6 -0.53683 0.05473-0.73488 0.16418-0.19806 0.10946-0.35898 0.25539-0.48276 0.4378-0.12378 0.18242-0.21238 0.39546-0.26581 0.63911-0.0534 0.24366-0.0801 0.4997-0.0801 0.76811 0 0.29708 0.0248 0.57071 0.0743 0.82088 0.0495 0.25017 0.1329 0.46582 0.25017 0.64693 0.11727 0.18112 0.27428 0.32184 0.47103 0.42217 0.19675 0.10033 0.44367 0.1505 0.74075 0.1505 0.29447 0 0.54204-0.05473 0.7427-0.16418 0.20065-0.10945 0.36222-0.25734 0.48471-0.44367 0.12248-0.18632 0.20977-0.40197 0.2619-0.64693 0.0521-0.24496 0.0782-0.50425 0.0782-0.77788z"/>
  <path d="m347.22 66.279c0 0.05212-8e-3 0.09642-0.0254 0.1329-0.0169 0.03648-0.0391 0.06645-0.0665 0.08991-0.0274 0.02345-0.058 0.04039-0.0919 0.05082-0.0339 0.01042-0.0678 0.01564-0.10163 0.01564h-0.21499c-0.0678 0-0.12705-0.0072-0.17786-0.0215-0.0508-0.01433-0.099-0.04039-0.14463-0.07818-0.0456-0.03779-0.0912-0.08925-0.13681-0.1544-0.0456-0.06515-0.0958-0.14854-0.1505-0.25017l-1.5948-2.877c-0.0834-0.14854-0.16743-0.30424-0.25213-0.46712-0.0847-0.16287-0.16352-0.32118-0.23649-0.47494h-8e-3c5e-3 0.18763 9e-3 0.37917 0.0117 0.57462 3e-3 0.19545 4e-3 0.3896 4e-3 0.58243v3.0529c0 0.01824-5e-3 0.03583-0.0156 0.05277-0.0104 0.01694-0.028 0.02997-0.0528 0.03909-0.0248 0.0091-0.0573 0.01694-0.0977 0.02345-0.0404 0.0065-0.0919 0.0098-0.1544 0.0098s-0.11402-0.0033-0.15441-0.0098c-0.0404-0.0065-0.0723-0.01433-0.0958-0.02345-0.0235-0.0091-0.0404-0.02215-0.0508-0.03909s-0.0156-0.03453-0.0156-0.05277v-4.6673c0-0.10423 0.0287-0.1785 0.086-0.22281 0.0573-0.0443 0.11987-0.06645 0.18763-0.06645h0.32053c0.0756 5e-6 0.13877 0.0065 0.18958 0.01955 0.0508 0.01304 0.0964 0.03453 0.13682 0.0645 0.0404 0.02997 0.0795 0.07167 0.11727 0.12509 0.0378 0.05343 0.0788 0.12053 0.12313 0.20131l1.2274 2.2203c0.0756 0.13551 0.14854 0.26776 0.2189 0.39676 0.0704 0.129 0.13811 0.25604 0.20327 0.38112 0.0651 0.12509 0.12964 0.24822 0.19349 0.3694 0.0638 0.12118 0.12704 0.24301 0.18958 0.36549h4e-3c-5e-3 -0.20587-8e-3 -0.42021-0.01-0.64302-1e-3 -0.22281-2e-3 -0.43715-2e-3 -0.64302v-2.7441c0-0.01824 5e-3 -0.03518 0.0156-0.05082 0.0104-0.01563 0.028-0.02931 0.0528-0.04104 0.0247-0.01172 0.0573-0.02019 0.0977-0.02541 0.0404-0.0052 0.0931-0.0078 0.15831-0.0078 0.0573 5e-6 0.10684 0.0026 0.14854 0.0078s0.0743 0.01369 0.0977 0.02541c0.0235 0.01173 0.0404 0.02541 0.0508 0.04104 0.0104 0.01564 0.0156 0.03258 0.0156 0.05082z"/>
  <path d="m351.29 65.137c0 0.23714-0.0437 0.44823-0.13095 0.63325-0.0873 0.18502-0.20848 0.34203-0.36353 0.47103-0.15506 0.129-0.33748 0.22607-0.54725 0.29122-0.20979 0.06515-0.43585 0.09772-0.67821 0.09772-0.16939 0-0.32639-0.01433-0.47102-0.043-0.14464-0.02867-0.27363-0.06385-0.38699-0.10554-0.11336-0.0417-0.20848-0.08469-0.28535-0.129-0.0769-0.0443-0.1303-0.08209-0.16027-0.11336-0.03-0.03127-0.0521-0.07101-0.0664-0.11922-0.0143-0.04821-0.0215-0.11271-0.0215-0.19349 0-0.05733 3e-3 -0.10489 8e-3 -0.14268 5e-3 -0.03778 0.013-0.0684 0.0235-0.09186 0.0104-0.02345 0.0234-0.03974 0.0391-0.04886 0.0156-0.0091 0.0339-0.01368 0.0547-0.01368 0.0365 1e-6 0.088 0.02215 0.15441 0.06645 0.0664 0.0443 0.15179 0.09251 0.25603 0.14463 0.10424 0.05212 0.22998 0.10098 0.37722 0.14659 0.14723 0.04561 0.31727 0.06841 0.51012 0.06841 0.14593 0 0.27948-0.01955 0.40066-0.05864s0.22542-0.09446 0.31272-0.16613c0.0873-0.07166 0.1544-0.15962 0.20131-0.26385 0.0469-0.10424 0.0704-0.22281 0.0704-0.35572 0-0.14333-0.0326-0.26581-0.0977-0.36744-0.0651-0.10163-0.15115-0.19088-0.25799-0.26776-0.10685-0.07687-0.22868-0.14724-0.36549-0.21108-0.13682-0.06384-0.27689-0.12899-0.42021-0.19545-0.14333-0.06645-0.28275-0.14007-0.41826-0.22086-0.13551-0.08078-0.25669-0.1759-0.36353-0.28535-0.10685-0.10945-0.1935-0.23779-0.25995-0.38503-0.0665-0.14723-0.0997-0.32379-0.0997-0.52966 0-0.21108 0.0384-0.39936 0.11532-0.56484 0.0769-0.16547 0.18372-0.30424 0.32053-0.4163 0.13681-0.11205 0.29969-0.1974 0.48862-0.25604 0.18893-0.05863 0.39285-0.08795 0.61175-0.08795 0.11206 5e-6 0.22476 0.0098 0.33813 0.02932 0.11335 0.01955 0.2202 0.04561 0.32053 0.07818 0.10033 0.03258 0.18958 0.06906 0.26776 0.10945 0.0782 0.0404 0.12965 0.07297 0.15441 0.09772 0.0248 0.02476 0.041 0.04431 0.0489 0.05863 8e-3 0.01434 0.0143 0.03258 0.0195 0.05472 5e-3 0.02216 9e-3 0.04887 0.0117 0.08013 3e-3 0.03128 4e-3 0.07167 4e-3 0.12118 0 0.04691-2e-3 0.08861-6e-3 0.12509-4e-3 0.03649-0.01 0.06711-0.0176 0.09186-8e-3 0.02476-0.0189 0.043-0.0332 0.05472-0.0143 0.01173-0.0306 0.0176-0.0489 0.01759-0.0287 4e-6 -0.0736-0.01824-0.13486-0.05473-0.0612-0.03648-0.13617-0.07752-0.22477-0.12313-0.0886-0.0456-0.19349-0.08729-0.31467-0.12509-0.12118-0.03778-0.25734-0.05667-0.40848-0.05668-0.14073 5e-6 -0.26321 0.0189-0.36744 0.05668-0.10424 0.03779-0.19024 0.08796-0.25799 0.1505-0.0678 0.06255-0.11858 0.13682-0.15245 0.22281-0.0339 0.086-0.0508 0.17721-0.0508 0.27363 0 0.14073 0.0326 0.2619 0.0977 0.36353 0.0652 0.10164 0.1518 0.19154 0.25995 0.26972 0.10815 0.07818 0.23128 0.14985 0.3694 0.21499 0.13811 0.06515 0.27883 0.13095 0.42216 0.1974s0.28405 0.13942 0.42217 0.2189c0.13811 0.07948 0.26124 0.1733 0.36939 0.28144 0.10815 0.10815 0.19545 0.23584 0.2619 0.38308 0.0664 0.14724 0.0997 0.32119 0.0997 0.52184z"/>
 </g>
 <g transform="matrix(.067003 0 0 .067003 289.95 140.73)" stroke-width="17.91">
  <g transform="matrix(.78491 0 0 .78491 -972.12 -72.846)" fill-rule="evenodd" stroke-width="22.817">
   <path d="m1443 1196.8-0.242 234.32-59.46-20.418-0.4185-274.2 75.897 21.186c48.583 13.786 78.314 40.584 77.83 87.551-0.4829 54.625-25.865 75.816-68.853 55.84v-101.28c0-14.941-24.754-25.851-24.754-2.9946z"/>
   <path d="m1370.7 1303.2-8.9415 2.8809-86.546 31.044c-18.219 8.3547-33.437 13.758-33.534 27.371 0.4569 17.231 27.459 25.614 66.997 32.218 21.07 4.2232 42.596 1.3924 61.026-2.5123l0.015-32.465s-34.165 13.278-42.295 14.383l-16.439-0.09c-12.204-0.067-17.887-7.8843-5.7302-12.076l65.436-24.763 0.011-35.99z"/>
   <path d="m1524.5 1317.8c-22.722-0.075-54.188 6.1167-69.788 13.374v37.003l41.132-15.041 32.581-10.358c33.932-5.5872 47.423 6.2615 14.373 16.165l-88.083 32.232-0.1072 35.882 128.7-46.3c14.203-4.9527 34.177-14.952 34.225-27.242-3.4472-19.028-32.07-30.132-76.52-34.839-3.9869-0.4111-7.9933-0.6688-11.973-0.7879-1.5161-0.044-3.0225-0.083-4.5372-0.088z"/>
  </g>
 </g>
</svg>
